<svg width="34.333333" height="33" viewBox="0 0 34.333333 33" fill="none" xmlns="http://www.w3.org/2000/svg">
<path d="M20.8266 11.8089L21.1202 12.4929L21.8614 12.5607L30.6435 13.3641C30.7147 13.3706 30.7542 13.3932 30.7803 13.4151C30.8114 13.4413 30.8411 13.4823 30.8584 13.5358C30.8758 13.5893 30.876 13.6399 30.8661 13.6793C30.8579 13.7124 30.8393 13.7539 30.7854 13.8011L24.1528 19.613L23.593 20.1035L23.7576 20.8295L25.7073 29.4299C25.7231 29.4997 25.7138 29.5442 25.701 29.5758C25.6858 29.6135 25.656 29.6544 25.6105 29.6875C25.5649 29.7205 25.5168 29.7363 25.4763 29.7391C25.4423 29.7415 25.3971 29.7366 25.3356 29.7L17.7586 25.188L17.119 24.8072L16.4795 25.188L8.90244 29.7C8.84094 29.7366 8.79572 29.7415 8.76173 29.7391C8.72119 29.7363 8.67309 29.7205 8.62758 29.6875C8.58207 29.6544 8.55221 29.6135 8.537 29.5758C8.52424 29.5442 8.51489 29.4997 8.53071 29.4299L10.4805 20.8295L10.645 20.1035L10.0852 19.613L3.45259 13.8011C3.39876 13.7539 3.38016 13.7124 3.37191 13.6793C3.36208 13.6399 3.3622 13.5893 3.37959 13.5358C3.39697 13.4823 3.42662 13.4413 3.45775 13.4151C3.48386 13.3932 3.5233 13.3706 3.59458 13.3641L12.3766 12.5607L13.1179 12.4929L13.4114 11.8089L16.8893 3.70492C16.9175 3.63914 16.9512 3.60863 16.9801 3.59057C17.0146 3.56903 17.0628 3.55351 17.119 3.55351C17.1753 3.55351 17.2235 3.56903 17.2579 3.59057C17.2868 3.60863 17.3205 3.63914 17.3488 3.70492L20.8266 11.8089Z" fill="#F8C087" stroke="#81341A" stroke-width="2.5"/>
<!-- <path d="M59.8266 11.8089L60.1202 12.4929L60.8614 12.5607L69.6435 13.3641C69.7147 13.3706 69.7542 13.3932 69.7803 13.4151C69.8114 13.4413 69.8411 13.4823 69.8584 13.5358C69.8758 13.5893 69.876 13.6399 69.8661 13.6793C69.8579 13.7124 69.8393 13.7539 69.7854 13.8011L63.1528 19.613L62.593 20.1035L62.7576 20.8295L64.7073 29.4299C64.7231 29.4997 64.7138 29.5442 64.701 29.5758C64.6858 29.6135 64.656 29.6544 64.6105 29.6875C64.5649 29.7205 64.5168 29.7363 64.4763 29.7391C64.4423 29.7415 64.3971 29.7366 64.3356 29.7L56.7586 25.188L56.119 24.8072L55.4795 25.188L47.9024 29.7C47.8409 29.7366 47.7957 29.7415 47.7617 29.7391C47.7212 29.7363 47.6731 29.7205 47.6276 29.6875C47.5821 29.6544 47.5522 29.6135 47.537 29.5758C47.5242 29.5442 47.5149 29.4997 47.5307 29.4299L49.4805 20.8295L49.645 20.1035L49.0852 19.613L42.4526 13.8011C42.3988 13.7539 42.3802 13.7124 42.3719 13.6793C42.3621 13.6399 42.3622 13.5893 42.3796 13.5358C42.397 13.4823 42.4266 13.4413 42.4578 13.4151C42.4839 13.3932 42.5233 13.3706 42.5946 13.3641L51.3766 12.5607L52.1179 12.4929L52.4114 11.8089L55.8893 3.70492C55.9175 3.63914 55.9512 3.60863 55.9801 3.59057C56.0146 3.56903 56.0628 3.55351 56.119 3.55351C56.1753 3.55351 56.2235 3.56903 56.2579 3.59057C56.2868 3.60863 56.3205 3.63914 56.3488 3.70492L59.8266 11.8089Z" fill="#F8C087" stroke="#81341A" stroke-width="2.5"/>
<path d="M98.8266 11.8089L99.1202 12.4929L99.8614 12.5607L108.643 13.3641C108.715 13.3706 108.754 13.3932 108.78 13.4151C108.811 13.4413 108.841 13.4823 108.858 13.5358C108.876 13.5893 108.876 13.6399 108.866 13.6793C108.858 13.7124 108.839 13.7539 108.785 13.8011L102.153 19.613L101.593 20.1035L101.758 20.8295L103.707 29.4299C103.723 29.4997 103.714 29.5442 103.701 29.5758C103.686 29.6135 103.656 29.6544 103.61 29.6875C103.565 29.7205 103.517 29.7363 103.476 29.7391C103.442 29.7415 103.397 29.7366 103.336 29.7L95.7586 25.188L95.119 24.8072L94.4795 25.188L86.9024 29.7C86.8409 29.7366 86.7957 29.7415 86.7617 29.7391C86.7212 29.7363 86.6731 29.7205 86.6276 29.6875C86.5821 29.6544 86.5522 29.6135 86.537 29.5758C86.5242 29.5442 86.5149 29.4997 86.5307 29.4299L88.4805 20.8295L88.645 20.1035L88.0852 19.613L81.4526 13.8011C81.3988 13.7539 81.3802 13.7124 81.3719 13.6793C81.3621 13.6399 81.3622 13.5893 81.3796 13.5358C81.397 13.4823 81.4266 13.4413 81.4578 13.4151C81.4839 13.3932 81.5233 13.3706 81.5946 13.3641L90.3766 12.5607L91.1179 12.4929L91.4114 11.8089L94.8893 3.70492C94.9175 3.63914 94.9512 3.60863 94.9801 3.59057C95.0146 3.56903 95.0628 3.55351 95.119 3.55351C95.1753 3.55351 95.2235 3.56903 95.2579 3.59057C95.2868 3.60863 95.3205 3.63914 95.3488 3.70492L98.8266 11.8089Z" fill="#F8C087" stroke="#81341A" stroke-width="2.5"/> -->
</svg>
