<svg width="78" height="83" viewBox="0 0 78 83" fill="none" xmlns="http://www.w3.org/2000/svg">
<path d="M49.2602 69.9174H48.5795L48.1313 70.4297L39.2787 80.5469L30.4261 70.4297L29.9779 69.9174H29.2972H5.77869C3.84569 69.9174 2.27869 68.3504 2.27869 66.4174V5.12112C2.27869 3.18812 3.84569 1.62112 5.77869 1.62112H72.7787C74.7117 1.62112 76.2787 3.18813 76.2787 5.12112V66.4174C76.2787 68.3504 74.7117 69.9174 72.7787 69.9174H49.2602Z" fill="white" stroke="#81341A" stroke-width="3"/>
<path d="M52.112 12.9545C45.8121 12.9545 41.4176 16.5193 39.2787 20.0841C37.1398 16.5193 32.7453 12.9545 26.4454 12.9545C17.8898 12.9545 12.1861 18.6582 12.1861 27.2137C12.1861 37.1952 21.4546 50.0285 39.2787 58.5841C57.1028 50.0285 66.3713 37.1952 66.3713 27.2137C66.3713 18.6582 60.6676 12.9545 52.112 12.9545Z" fill="#FFCDC4" stroke="#81341A" stroke-width="3"/>
</svg>
