<svg width="70" height="70" viewBox="0 0 70 70" fill="none" xmlns="http://www.w3.org/2000/svg">
<circle cx="35" cy="35" r="34.25" fill="#FFD6AE" stroke="#81341A" stroke-width="1.5"/>
<path d="M55.5 31C55.5 33.3919 54.7991 35.5368 53.6909 37.0712C52.5822 38.6063 51.094 39.5 49.5 39.5C47.906 39.5 46.4178 38.6063 45.3091 37.0712C44.2009 35.5368 43.5 33.3919 43.5 31C43.5 28.6081 44.2009 26.4632 45.3091 24.9288C46.4178 23.3937 47.906 22.5 49.5 22.5C51.094 22.5 52.5822 23.3937 53.6909 24.9288C54.7991 26.4632 55.5 28.6081 55.5 31Z" fill="#A0430A" stroke="#81341A"/>
<path d="M28.5 31C28.5 33.3919 27.7991 35.5368 26.6909 37.0712C25.5822 38.6063 24.094 39.5 22.5 39.5C20.906 39.5 19.4178 38.6063 18.3091 37.0712C17.2009 35.5368 16.5 33.3919 16.5 31C16.5 28.6081 17.2009 26.4632 18.3091 24.9288C19.4178 23.3937 20.906 22.5 22.5 22.5C24.094 22.5 25.5822 23.3937 26.6909 24.9288C27.7991 26.4632 28.5 28.6081 28.5 31Z" fill="#A0430A" stroke="#81341A"/>
<circle cx="13" cy="38" r="5" fill="#E8BAAD"/>
<circle cx="59" cy="38" r="5" fill="#E8BAAD"/>
<path d="M45 45C45 49.9706 40.5228 54 35 54C29.4772 54 25 49.9706 25 45" stroke="#81341A" stroke-width="2"/>
</svg>
