<svg width="100" height="100" viewBox="0 0 100 100" fill="none" xmlns="http://www.w3.org/2000/svg">
<path d="M50 0L55.365 23.0284L69.1342 3.80602L65.2782 27.1346L85.3553 14.6447L72.8654 34.7218L96.194 30.8658L76.9716 44.635L100 50L76.9716 55.365L96.194 69.1342L72.8654 65.2782L85.3553 85.3553L65.2782 72.8654L69.1342 96.194L55.365 76.9716L50 100L44.635 76.9716L30.8658 96.194L34.7218 72.8654L14.6447 85.3553L27.1346 65.2782L3.80602 69.1342L23.0284 55.365L0 50L23.0284 44.635L3.80602 30.8658L27.1346 34.7218L14.6447 14.6447L34.7218 27.1346L30.8658 3.80602L44.635 23.0284L50 0Z" fill="#FFCDC4"/>
</svg>
