<?xml version="1.0" encoding="UTF-8"?><svg xmlns="http://www.w3.org/2000/svg" xmlns:xlink="http://www.w3.org/1999/xlink" height="119.5" preserveAspectRatio="xMidYMid meet" version="1.0" viewBox="35.2 14.4 398.8 119.5" width="398.8" zoomAndPan="magnify"><g id="change1_1"><path d="M38.6,38.5c0.3,0-1.4,3.3-0.8,4.2c0.2,0.2,1.5,0.5,1.9,0.9c1.6,1.8-0.8,5.6,2.5,6 c0.3,0,0.6,0.1,0.5,0.4c-0.5,1.9-1,3.8-1.6,5.6c-0.9,2.7-0.4,3.8,2.9,4c0.3,0,0.7,0.1,0.5,0.4c-1.8,4.6-0.2,9.1-1.1,14.1 c-1,5.6,0.7,6,0.1,11.7c0.7-0.1-2.2,5-1.5,4.9c0.5-0.1,1.5,0.1,0.8,0.7C39.8,94,41.6,96.7,45,97c0.2,0,0.4,0,0.5,0.2 c-0.2,4.6-2.8,9.1-4,13.5c-0.5,2-0.7,4.5-0.2,6.5c0.6,2.3,1.7,2.7,3.7,4.3c2.9,2.3,1.9,4.3,0.7,7.4c-0.6,1.5-1.2,3.4-2.1,5 L429,121.6c0-0.4,0-0.7,0.1-1.1c0.1-0.5,0.9-2,1.3-3.3c-0.3-0.5-0.5-1.1-0.6-1.7c0,0,0,0,0,0c-1.5,0.1-1-0.6-0.2-1.2 c-0.2-1.6,0.1-3,0.6-4.4c-0.6-0.6-1.4-1.1-2.2-1.3c-0.6-0.2,0.3-0.9,0.4-1c1.4-1,2.8-1.5,4.3-2.1c0.2-0.2,0.4-0.5,0.6-0.7 c0.2-0.3,0.4-0.6,0.7-0.9c-0.3-0.3-0.4-0.8-0.2-1.5c-0.5,0.2-1,0.3-1.5,0.5c-0.8,0.2-3.6,0.6-1.8-0.7c1-0.8,1.9-1.4,2.7-2.1 c-0.1-0.7-0.2-1.3-0.3-2c-1.3-0.1-2.6-0.3-3.7-0.5c-0.6-0.1,0.4-0.9,0.4-1c1.2-0.8,3.5-1.5,2.9-3.2c-0.3-0.8-2.9-1.3-3.7-1.7 c-2.5-1.2-3.8-2.6-4.4-5.3c-0.4-1.7-0.3-3.6-0.7-5.3c-0.3-1.3-1-2.6-1.2-3.9c-0.2-1.1-0.1-2.1,0.2-3.1c-1.2,0.4-2.3,0.5-2,0.1 c0,0,0,0,0,0c-0.9,0.1-2.8,0.4-1.8-0.5c1.2-1,2.4-1.8,3.8-2.6c0.1-0.1,1.2-0.5,2.2-0.8c0.7-0.4,2.1-0.9,3.4-1.2 c-1.3-0.8-3-0.7-4.6-1.2c-0.2-0.1-0.2-0.2-0.2-0.4c0.4-0.8,0.8-1.6,1-2.3c-0.7-0.6-1.3-1.3-1.8-2c-0.1,0-0.2-0.1-0.2-0.2 c-0.7-1.1-1.3-2.2-1.6-3.5c-0.5-1.9,0.2-3.8,1.6-5c0.1-1.4,0.2-2.8-0.5-4c-0.5-0.8-1.3-1.3-1.7-2.3c-0.5-1.1-1.7-4.8-1.5-5.9 c0.1-0.9,1.5-2.1,2.1-3c0,0,0,0-0.1,0c-0.1,0-0.8-0.1-0.5-0.4c1.1-1.5,2.2-2.9,3.3-4.4c0.2-0.2,0.6-0.5,1.1-0.7 c0.4-0.9,0.8-1.8,1.1-2.8c-0.4,0.1-0.7,0.3-1.1,0.4c-2.5,0.8-3-0.2-0.6-1.4c0.7-0.4,1.5-0.7,2.2-1.1c0.2-1.2,0.1-2.1-0.6-2.4 c-0.2-0.1-0.2-0.2-0.2-0.4c0.5-1.3,1-2.6,1.3-3.9c-0.1,0-0.2,0-0.4,0.1c-0.6,0-0.6-0.2-0.3-0.5c-0.8,0-1.6,0-2.4-0.1 c-0.3,0-0.6-0.1-0.5-0.4c0.6-2.5,0.4-4.1-1.1-6.2c-0.1-0.1,0.1-0.4,0.4-0.7L38,26.7c-1,1.1-2.7,3.2-2.6,4.7c0.1,1.8-0.2,0.9,1.2,1.8 c1.5,0.9,2.3,0.5,1.9,2.4" fill="#CBBBA0" opacity=".75"/></g></svg>