<svg xmlns="http://www.w3.org/2000/svg" xmlns:xlink="http://www.w3.org/1999/xlink" preserveAspectRatio="xMidYMid meet" version="1.0" viewBox="-15.4 -12.2 479.9 512.2" zoomAndPan="magnify" style="fill: rgb(0, 0, 0);" original_string_length="13201"><g id="__id4_s99bw5m4re"><path d="M330.24,204.76c116.69-17.11,134.28-78.64,108.7-108.12c-26.53-30.57-66.31-7.05-66.31-7.05 s-6.76-45.72-47.21-47.1c-4.19-0.14-8.35,0.34-12.37,1.43c-0.5-19.22-10.92-33.57-25.56-39.96c-37.1-16.17-62.89,22.19-62.89,22.19 s-25.78-38.36-62.89-22.19c-14.65,6.38-25.07,20.74-25.56,39.96h-0.03c-4.02-1.09-8.19-1.58-12.39-1.44 c-40.45,1.38-47.21,47.1-47.21,47.1s-39.79-23.52-66.31,7.05c-25.58,29.48-7.99,91.01,108.7,108.12l0.03,0.75 c0.11,0,0.76-0.04,1.77-0.17c-7.69,9.72-3.89,20.66,2.37,18.33c6.29-2.34,10.11-8.55,11.35-10.86l87.88,214.18 c-6.08-9.83-12.39-17.43-19.19-23.11c-4.02-3.36-8.77-5.78-13.03-6.64c-5.58-1.13-10.29,0.37-13.6,4.33c-2.16,2.58-2.9,5.2-2.21,7.8 c2.03,7.66,15.96,12.84,23.45,15.62c0.81,0.3,1.52,0.56,2.11,0.79c7.24,2.82,14.93,5.33,23.46,7.67l-27.07,65.98l1.38,0.57 l26.24-63.96v63.68h1.5v-65.33L252.27,500l1.39-0.57l-27.14-66.16c8.28-2.29,15.78-4.75,22.85-7.5c0.59-0.23,1.3-0.49,2.11-0.79 c7.48-2.78,21.42-7.96,23.45-15.62c0.69-2.59-0.06-5.21-2.21-7.8c-7.74-9.27-20.38-2.91-26.63,2.31c-6.1,5.1-11.8,11.74-17.29,20.14 l86.36-210.47c1.56,2.69,5.22,7.99,10.93,10.11c6.26,2.33,10.06-8.61,2.37-18.33c1.01,0.13,1.66,0.17,1.77,0.17L330.24,204.76z M200.38,424.38c-0.59-0.23-1.31-0.5-2.13-0.8c-6.71-2.5-20.69-7.69-22.52-14.6c-0.56-2.12,0.06-4.23,1.92-6.45 c2.32-2.77,5.31-4.17,8.91-4.17c1.03,0,2.11,0.11,3.24,0.34c4.02,0.81,8.53,3.12,12.37,6.32c7.61,6.36,14.61,15.18,21.38,26.94 C215.12,429.65,207.54,427.17,200.38,424.38z M223.84,426.77l-88.07-214.65c2.5,0.48,9.82,1.48,15.66-1.97 c5.77-3.41-0.4-13.3-12.86-13.38c0.37-0.37,0.73-0.73,1.09-1.13l-0.44-0.38c19.2-32.33,28.57-59.68,31.16-81.91 c11.09,11.41,25.23,23.18,42.89,35.02l-0.3,0.69c0.1,0.04,0.7,0.29,1.67,0.61c-11.12,5.46-12.4,16.97-5.75,17.56 c6.72,0.6,12.87-3.41,14.95-4.94V426.77z M247.03,405.03c3.72-3.1,9.83-6.67,15.59-6.67c3.26,0,6.41,1.15,8.94,4.17 c1.85,2.22,2.48,4.33,1.91,6.45c-1.83,6.91-15.81,12.11-22.52,14.6c-0.81,0.3-1.53,0.57-2.13,0.8c-7.08,2.75-14.57,5.21-22.88,7.5 l-0.1-0.24C232.55,420.05,239.49,411.33,247.03,405.03z M225.35,428.45V162.28c2.08,1.53,8.23,5.54,14.95,4.94 c6.67-0.59,5.37-12.15-5.82-17.6c0.48-0.17,0.96-0.36,1.44-0.57l-0.23-0.54c17.76-11.89,31.96-23.69,43.09-35.14 c2.59,22.22,11.97,49.57,31.16,81.88l-0.44,0.38c0.35,0.4,0.72,0.77,1.09,1.13c-12.46,0.08-18.63,9.97-12.86,13.38 c6.75,3.99,15.49,2.04,16.45,1.8L225.35,428.45z" style="fill: rgb(207, 61, 80);"/></g><g id="__id5_s99bw5m4re"><path d="M313.05,43.94c-0.03-1.2-0.1-2.37-0.21-3.53c0-0.02,0-0.03,0-0.05c-0.21-2.29-0.57-4.5-1.06-6.63 c-0.01-0.05-0.02-0.1-0.03-0.15c-0.49-2.1-1.12-4.12-1.86-6.06c-0.02-0.05-0.04-0.1-0.06-0.15c-0.38-0.97-0.78-1.91-1.21-2.83 c-0.01-0.01-0.01-0.02-0.02-0.04c-0.43-0.92-0.9-1.81-1.39-2.69c-0.01-0.03-0.03-0.05-0.04-0.08c-0.48-0.85-0.99-1.68-1.52-2.49 c-0.06-0.08-0.11-0.17-0.17-0.25c-1.06-1.58-2.21-3.07-3.45-4.47c-0.1-0.11-0.19-0.22-0.29-0.32c-0.62-0.68-1.25-1.34-1.9-1.98 c-0.03-0.03-0.07-0.06-0.1-0.1c-0.62-0.6-1.27-1.17-1.93-1.73c-0.12-0.1-0.23-0.2-0.35-0.3c-0.68-0.56-1.37-1.1-2.08-1.62 c-0.12-0.09-0.25-0.18-0.38-0.27c-0.66-0.46-1.32-0.91-2-1.34c-0.1-0.06-0.2-0.13-0.31-0.2c-0.74-0.45-1.5-0.88-2.27-1.29 c-0.17-0.09-0.34-0.18-0.52-0.27c-0.79-0.41-1.59-0.79-2.41-1.15c-37.1-16.17-62.89,22.19-62.89,22.19s-25.78-38.36-62.89-22.19 c-0.82,0.36-1.62,0.75-2.41,1.15c-0.17,0.09-0.35,0.18-0.52,0.27c-0.77,0.41-1.53,0.84-2.27,1.29c-0.1,0.06-0.2,0.13-0.31,0.2 c-0.68,0.43-1.35,0.87-2.01,1.34c-0.13,0.09-0.25,0.17-0.38,0.26c-0.71,0.52-1.4,1.06-2.08,1.62c-0.12,0.1-0.23,0.2-0.35,0.3 c-0.66,0.56-1.31,1.13-1.93,1.73c-0.03,0.03-0.07,0.06-0.1,0.09c-0.66,0.64-1.29,1.3-1.91,1.98c-0.1,0.11-0.19,0.21-0.29,0.32 c-1.24,1.4-2.39,2.89-3.45,4.47c-0.06,0.08-0.11,0.17-0.17,0.25c-0.53,0.81-1.04,1.64-1.52,2.49c-0.02,0.03-0.03,0.05-0.04,0.08 c-0.49,0.87-0.95,1.77-1.39,2.69c-0.01,0.01-0.01,0.02-0.02,0.03c-0.43,0.92-0.84,1.87-1.21,2.83c-0.02,0.05-0.04,0.1-0.06,0.15 c-0.74,1.93-1.37,3.96-1.86,6.06c-0.01,0.05-0.02,0.1-0.03,0.15c-0.49,2.13-0.85,4.34-1.06,6.63c0,0.02,0,0.04-0.01,0.05 c-0.11,1.16-0.18,2.33-0.21,3.53l0.72,0.07c-0.03,0.33-2.73,33.92,34.03,68.79l-0.51,0.54c2.77,2.85,5.73,5.73,8.89,8.62l0.01,0.01 c4.71,4.31,9.87,8.67,15.49,13.04c0.06,0.05,0.12,0.09,0.17,0.14c3.74,2.91,7.69,5.83,11.85,8.76c0.02,0.01,0.04,0.03,0.06,0.04 c2.09,1.47,4.23,2.94,6.42,4.41l0.29-0.68c0.04,0.02,1.28,0.53,3.28,1.04c3.49,0.89,9.35,1.74,15.5,0c0.99-0.28,1.99-0.61,2.98-1.03 l0.36,0.84c2.15-1.44,4.25-2.88,6.3-4.32c0.11-0.07,0.21-0.15,0.32-0.22c4.13-2.9,8.05-5.8,11.76-8.69 c0.09-0.07,0.18-0.14,0.26-0.21c5.61-4.37,10.76-8.71,15.47-13.01c0.03-0.02,0.05-0.05,0.08-0.07c3.16-2.89,6.13-5.77,8.9-8.62 l0.01-0.01l-0.53-0.56c20.82-19.76,28.98-39.09,32.14-52.21l-0.29-0.45c0.02-0.01,0.17-0.11,0.46-0.27 c2.22-9.62,1.74-15.72,1.73-15.86L313.05,43.94z M194.09,17.24c-0.14-0.09-14.12-8.54-31.84,1.79 c-17.64,10.29-13.2,30.19-13.15,30.39l-1.46,0.34c-0.05-0.21-4.75-21.18,13.85-32.03c18.52-10.8,33.24-1.86,33.38-1.77L194.09,17.24 z M277.4,22.47c-2.03-2.63-0.38-6.52,2.94-6.66c6.37-0.28,11.79,9.94,5.92,10.85C282.16,27.29,279.21,24.82,277.4,22.47z M298.77,45.4c-4.23,3.6-9.17,0.69-10.68-7.2c-1.5-7.89,1.29-8.6,1.29-8.6C295.12,24.53,302.99,41.8,298.77,45.4z M244.28,161.65 c0.04,0.4,0.04,0.78,0.02,1.15c0,0.06-0.01,0.11-0.01,0.16c-0.02,0.36-0.08,0.71-0.16,1.04v0.01c-0.08,0.32-0.2,0.62-0.34,0.91 c-0.02,0.06-0.05,0.11-0.08,0.17c-0.15,0.27-0.31,0.52-0.51,0.75c-0.03,0.03-0.06,0.06-0.09,0.09c-0.19,0.21-0.4,0.39-0.63,0.55 c-0.05,0.03-0.09,0.06-0.13,0.09c-0.26,0.17-0.54,0.3-0.84,0.41c-0.06,0.02-0.13,0.04-0.2,0.06c-0.33,0.1-0.67,0.18-1.04,0.21 c-0.48,0.04-0.95,0.05-1.42,0.05c-0.15,0-0.3-0.01-0.45-0.01c-0.32-0.01-0.64-0.02-0.96-0.05c-0.17-0.01-0.33-0.03-0.49-0.05 c-0.31-0.03-0.62-0.08-0.92-0.13c-0.15-0.03-0.29-0.05-0.44-0.08c-0.36-0.07-0.72-0.15-1.08-0.24c-0.07-0.02-0.15-0.03-0.22-0.05 c-0.43-0.11-0.85-0.24-1.26-0.37c-0.11-0.04-0.22-0.08-0.33-0.12c-0.29-0.11-0.58-0.21-0.87-0.32c-0.13-0.05-0.27-0.11-0.4-0.16 c-0.26-0.1-0.51-0.21-0.76-0.32c-0.12-0.06-0.25-0.11-0.37-0.17c-0.27-0.12-0.53-0.24-0.78-0.37c-0.09-0.05-0.18-0.09-0.26-0.13 c-0.33-0.17-0.65-0.34-0.95-0.51c-0.06-0.04-0.12-0.07-0.18-0.11c-0.24-0.14-0.46-0.27-0.68-0.4c-0.09-0.06-0.18-0.11-0.27-0.17 c-0.17-0.1-0.33-0.21-0.49-0.31c-0.09-0.06-0.18-0.12-0.26-0.17c-0.15-0.1-0.3-0.2-0.43-0.29c-0.06-0.04-0.13-0.09-0.19-0.13 c-0.18-0.13-0.35-0.25-0.49-0.35c-0.49-0.36-0.75-0.58-0.75-0.58s-0.27,0.22-0.75,0.58c-0.14,0.11-0.31,0.22-0.49,0.35 c-0.06,0.04-0.13,0.09-0.19,0.13c-0.13,0.09-0.28,0.19-0.43,0.29c-0.08,0.05-0.16,0.1-0.25,0.16c-0.16,0.1-0.33,0.2-0.5,0.31 c-0.09,0.06-0.18,0.11-0.27,0.17c-0.21,0.13-0.44,0.26-0.67,0.39c-0.06,0.04-0.12,0.07-0.19,0.11c-0.3,0.17-0.62,0.34-0.95,0.51 c-0.08,0.04-0.17,0.08-0.25,0.12c-0.25,0.13-0.51,0.26-0.78,0.38c-0.12,0.06-0.25,0.12-0.37,0.17c-0.25,0.11-0.5,0.22-0.76,0.32 c-0.13,0.05-0.26,0.11-0.4,0.16c-0.28,0.1-0.58,0.21-0.87,0.31c-0.11,0.04-0.22,0.08-0.33,0.12c-0.41,0.13-0.83,0.26-1.26,0.37 c-0.07,0.02-0.15,0.03-0.22,0.05c-0.35,0.09-0.71,0.17-1.08,0.24c-0.14,0.03-0.29,0.06-0.44,0.08c-0.3,0.05-0.61,0.09-0.92,0.13 c-0.16,0.02-0.33,0.04-0.49,0.05c-0.32,0.02-0.64,0.04-0.96,0.05c-0.15,0-0.3,0.01-0.45,0.01c-0.47,0.01-0.94-0.01-1.42-0.05 c-0.37-0.03-0.71-0.11-1.03-0.21c-0.07-0.02-0.13-0.04-0.2-0.06c-0.3-0.1-0.59-0.24-0.84-0.4c-0.04-0.03-0.08-0.06-0.12-0.09 c-0.22-0.16-0.43-0.34-0.62-0.54c-0.03-0.04-0.06-0.07-0.09-0.1c-0.2-0.23-0.36-0.48-0.51-0.75c-0.03-0.05-0.05-0.1-0.08-0.16 c-0.28-0.58-0.45-1.25-0.51-1.97c0-0.06-0.01-0.11-0.01-0.16c-0.02-0.37-0.02-0.75,0.02-1.15c0-0.03,0.01-0.06,0.01-0.09 c0.09-0.84,0.3-1.72,0.64-2.62c0.01-0.03,0.02-0.05,0.03-0.08c0.9-2.33,2.67-4.79,5.36-6.87c0.01-0.01,0.01-0.01,0.02-0.02 c1.08-0.84,2.31-1.61,3.7-2.29c2.03,0.65,5.73,1.6,10.18,1.6c2.97,0,6.28-0.42,9.65-1.64c1.39,0.68,2.62,1.45,3.71,2.28 c0.02,0.01,0.04,0.03,0.06,0.04c1.07,0.82,2,1.71,2.79,2.63c0,0.01,0.01,0.01,0.01,0.02c0.4,0.46,0.76,0.93,1.08,1.4 c0,0.01,0,0.01,0,0.01c0.64,0.93,1.13,1.87,1.49,2.79c0.01,0.04,0.03,0.07,0.04,0.11c0.34,0.9,0.55,1.77,0.64,2.6 C244.3,161.54,244.31,161.58,244.28,161.65z" style="fill: rgb(255, 190, 198);"/></g><g id="__id6_s99bw5m4re"><path d="M417.55,102.8c-3.77,1.75-7.28,0.2-9.68-1.56c-2.68-1.97-2.17-6.16,0.98-7.22 C414.89,91.99,422.94,100.3,417.55,102.8z M421.36,104.76c0,0-2.49,1.46,1.14,8.62c3.63,7.16,9.19,8.59,12.26,3.96 C437.83,112.71,425.47,98.3,421.36,104.76z M96.9,72.32c0.21,3.32,4.12,4.9,6.72,2.82c2.32-1.86,4.73-4.85,4.02-8.94 C106.62,60.34,96.51,65.96,96.9,72.32z M110.52,63.03c0,0,0.77,2.78,8.62,1.13c7.86-1.65,10.68-6.65,7-10.81 C122.47,49.19,105.35,57.38,110.52,63.03z M280.34,15.8c-3.32,0.14-4.98,4.03-2.94,6.66c1.82,2.35,4.76,4.82,8.87,4.19 C292.14,25.74,286.71,15.53,280.34,15.8z M289.38,29.6c0,0-2.8,0.71-1.29,8.6c1.5,7.89,6.45,10.8,10.68,7.2 C302.99,41.8,295.12,24.53,289.38,29.6z" style="fill: rgb(255, 190, 198);"/></g><g id="__id7_s99bw5m4re"><path d="M314.27,211.93c0,0-0.04,0.01-0.1,0.02l-88.83,216.5V162.28c-0.48-0.36-0.75-0.58-0.75-0.58 s-0.26,0.22-0.75,0.58V426.8l-8.1-19.74l-79.98-194.94c-0.56-0.11-0.89-0.19-0.89-0.19s-0.15,0.33-0.45,0.88l37.59,91.62 l50.29,122.56c-1.24-2-2.49-3.89-3.75-5.7c-0.33-0.48-0.66-0.97-0.99-1.43c-0.46-0.64-0.91-1.25-1.37-1.86 c-0.4-0.53-0.79-1.06-1.19-1.58c-0.43-0.56-0.87-1.1-1.31-1.64c-0.44-0.54-0.88-1.08-1.32-1.6c-0.41-0.48-0.82-0.96-1.24-1.43 c-0.49-0.55-0.98-1.09-1.47-1.62c-0.38-0.41-0.76-0.82-1.14-1.21c-0.57-0.59-1.15-1.15-1.72-1.71c-0.32-0.31-0.63-0.62-0.95-0.92 c-0.9-0.84-1.81-1.65-2.73-2.42c-4.02-3.36-8.77-5.78-13.03-6.64c-5.58-1.13-10.29,0.37-13.6,4.33c-2.16,2.58-2.9,5.2-2.21,7.8 c2.03,7.66,15.96,12.84,23.45,15.62c0.81,0.3,1.52,0.56,2.11,0.79c1.82,0.71,3.66,1.39,5.54,2.06c1.78,0.63,3.59,1.25,5.43,1.86 c0.09,0.03,0.18,0.06,0.28,0.09c3.88,1.27,7.92,2.48,12.17,3.65c0.01,0,0.03,0.01,0.04,0.01l-27.07,65.98l1.38,0.57l26.24-63.96 v63.68h1.5v-65.33L252.27,500l1.39-0.57l-27.14-66.16c4.13-1.15,8.07-2.33,11.86-3.57c0.16-0.05,0.31-0.11,0.47-0.16 c1.72-0.57,3.42-1.14,5.08-1.74c1.84-0.66,3.65-1.33,5.44-2.02c0.59-0.23,1.3-0.49,2.11-0.79c7.48-2.78,21.42-7.96,23.45-15.62 c0.69-2.59-0.06-5.21-2.21-7.8c-7.74-9.27-20.38-2.91-26.63,2.31c-0.89,0.74-1.76,1.52-2.63,2.33c-0.3,0.28-0.59,0.56-0.89,0.85 c-0.57,0.54-1.13,1.1-1.69,1.67c-0.35,0.36-0.71,0.73-1.06,1.1c-0.5,0.53-0.99,1.08-1.48,1.63c-0.37,0.41-0.74,0.82-1.11,1.24 c-0.73,0.85-1.45,1.73-2.17,2.63c-0.5,0.63-1,1.29-1.5,1.95c-0.28,0.37-0.57,0.75-0.85,1.13c-0.52,0.71-1.04,1.43-1.56,2.16 c-0.23,0.33-0.47,0.67-0.7,1.01c-0.55,0.8-1.1,1.61-1.65,2.45l86.36-210.47C314.57,212.57,314.27,211.93,314.27,211.93z M200.38,424.38c-0.59-0.23-1.31-0.5-2.13-0.8c-6.71-2.5-20.69-7.69-22.52-14.6c-0.56-2.12,0.06-4.23,1.92-6.45 c2.32-2.77,5.31-4.17,8.91-4.17c1.03,0,2.11,0.11,3.24,0.34c4.02,0.81,8.53,3.12,12.37,6.32c7.61,6.36,14.61,15.18,21.38,26.94 C215.12,429.65,207.54,427.17,200.38,424.38z M236.13,416.35c0.02-0.03,0.05-0.06,0.07-0.08c0.85-1.07,1.72-2.11,2.58-3.1 c0.12-0.14,0.24-0.26,0.36-0.4c0.77-0.87,1.55-1.73,2.33-2.54c0.34-0.35,0.68-0.67,1.02-1c0.58-0.58,1.15-1.17,1.74-1.71 c0.93-0.87,1.86-1.69,2.81-2.48c3.72-3.1,9.83-6.67,15.59-6.67c3.26,0,6.41,1.15,8.94,4.17c1.85,2.22,2.48,4.33,1.91,6.45 c-1.83,6.91-15.81,12.11-22.52,14.6c-0.81,0.3-1.53,0.57-2.13,0.8c-1.77,0.69-3.57,1.36-5.4,2.01c-1.74,0.62-3.52,1.23-5.32,1.82 c-0.09,0.03-0.17,0.06-0.25,0.09c-3.79,1.24-7.75,2.43-11.9,3.58l-0.01-0.02l-0.09-0.21c0,0,0,0,0-0.01 C229.2,425.85,232.61,420.77,236.13,416.35z M326.85,203.53c2.03,0.41,3.37,0.48,3.41,0.48l-0.03,0.74l-0.03,0.75 c-0.11,0-0.76-0.04-1.77-0.17c-3.52-0.47-11.57-2.22-17.85-8.57c-0.37-0.36-0.74-0.73-1.09-1.13l0.44-0.38l0.69-0.6 c0.72,0.82,1.48,1.54,2.25,2.22C317.67,201.09,323.32,202.84,326.85,203.53z M45.33,93.17l-0.17,1.49 C45,94.64,28.74,93.04,17.2,109.99c-11.5,16.91,1.09,32.94,1.22,33.1l-1.17,0.94c-0.14-0.16-13.41-17.06-1.29-34.87 C28.02,91.44,45.16,93.17,45.33,93.17z M138.56,196.78c-6.28,6.35-14.34,8.1-17.85,8.57c-1.01,0.13-1.66,0.17-1.77,0.17l-0.03-0.75 l-0.03-0.74c0.04,0,1.38-0.07,3.41-0.48c3.53-0.7,9.18-2.45,13.98-6.67c0.78-0.68,1.53-1.4,2.25-2.22l0.69,0.6l0.44,0.38 C139.3,196.04,138.93,196.4,138.56,196.78z M147.66,49.78c-0.05-0.21-4.76-21.18,13.85-32.03c18.52-10.8,33.23-1.86,33.38-1.77 l-0.79,1.27c-0.14-0.09-14.13-8.54-31.84,1.79c-17.63,10.28-13.2,30.19-13.15,30.39L147.66,49.78z M361.27,90.49l-1.49-0.15 c0.02-0.16,1.38-16.45-15.74-27.73c-14.75-9.71-28.55-3.69-32.2-1.76c-3.2,13.36-11.47,33.01-32.57,53.02l-0.49-0.52l-0.53-0.56 c20.83-19.76,28.98-39.09,32.14-52.21l-0.29-0.45c0.02-0.01,0.18-0.11,0.46-0.27c2.22-9.62,1.74-15.72,1.73-15.86l0.76-0.07 l0.73-0.07c0.01,0.14,0.48,5.92-1.49,15.12c5.1-2.39,18.45-6.93,32.59,2.39C362.78,73.17,361.31,90.33,361.27,90.49z M213.12,149.09 c-0.07-0.03-0.13-0.05-0.15-0.06l0.3-0.69l0.29-0.68c0.03,0.02,1.27,0.53,3.28,1.04c3.5,0.89,9.35,1.74,15.5,0 c0.99-0.28,1.98-0.6,2.98-1.03l0.36,0.84l0.23,0.54c-0.48,0.21-0.96,0.4-1.44,0.57c-3.37,1.22-6.68,1.64-9.65,1.64 c-4.45,0-8.15-0.94-10.18-1.6c-0.48-0.15-0.88-0.29-1.16-0.4c-0.13-0.05-0.24-0.1-0.32-0.13 C213.15,149.12,213.14,149.12,213.12,149.09z M135.35,43.87l0.75,0.07h0.01h0.02l0.72,0.07c-0.03,0.34-2.73,33.92,34.03,68.79 l-0.51,0.54l-0.51,0.54C132.54,78.48,135.34,44.21,135.35,43.87z" style="fill: rgb(0, 0, 0);"/></g></svg>