<svg preserveAspectRatio="xMidYMid meet" version="1.0" viewBox="0.0 0.1 500.0 214.2" xmlns="http://www.w3.org/2000/svg" xmlns:xlink="http://www.w3.org/1999/xlink" zoomAndPan="magnify" style="fill: rgb(0, 0, 0);" original_string_length="1103"><g id="__id3_s99bw5m4re"><path d="M500,176.9c0,16.9-13.7,30.6-30.6,30.6c-8.7,0-16.6-3.7-22.2-9.5c-9.5,7.2-21.3,11.5-34.1,11.5 c-14.2,0-27.2-5.3-37.2-14c-7.8,7.5-18.4,12-30,12c-18.4,0-34.2-11.5-40.5-27.7c-8.4,2.6-17.4,3.9-26.7,3.9c-14.2,0-27.7-3.2-39.7-9 c-1.9,22.2-20.6,39.6-43.3,39.6c-9.3,0-17.9-2.9-25-7.9c-10.3,5.1-22,7.9-34.3,7.9c-22.9,0-43.5-9.8-57.7-25.5 c-8.3,7.3-19.2,11.7-31.2,11.7C21.2,200.6,0,179.3,0,153.2s21.2-47.4,47.4-47.4c5.6,0,11,1,16,2.8c11.2-29.3,39.6-50.2,72.9-50.2 c19.7,0,37.7,7.3,51.5,19.4c6.8-44,44.9-77.7,90.8-77.7c41.2,0,76,27.1,87.7,64.4c15.4,5.1,27.1,18.6,29.4,35.1 c5.4-1.7,11.2-2.7,17.2-2.7c28.8,0,52.5,21.6,55.9,49.4c0.1,0,0.3,0,0.4,0C486.3,146.2,500,160,500,176.9L500,176.9z" style="fill: rgb(237, 152, 162);"/></g></svg>