<svg xmlns="http://www.w3.org/2000/svg" xmlns:xlink="http://www.w3.org/1999/xlink" preserveAspectRatio="xMidYMid meet" version="1.0" viewBox="-0.1 -0.7 500.6 149.7" zoomAndPan="magnify" style="fill: rgb(0, 0, 0);" original_string_length="28827"><g id="__id0_s99bw5m4re"><path d="M496.5,27.7c-8.3-4.3-28.5,7.7-36.4,12.7c2.9-8.9,9.4-31.5,3.2-38.4c-1.7-1.9-4.2-2.5-7.4-1.7 c-3.2,0.7-5.5,2.5-6.7,5.3c-4.6,10.1,5.5,30.9,8.3,36.2c-8.7,5.3-17.3,10.1-25.9,14.5c-2-1.3-4.2-2.2-6.5-2.8 c-20.1-4.9-29.8,16.7-29.8,16.7s-16.3-17.1-33.6-5.7c-6.7,4.4-10.7,12.4-9.5,21.9c-2.5,0.6-5,1.3-7.5,1.8c-1-10.3-7.3-17.5-15.3-20 c-19.8-6.2-30.7,14.8-30.7,14.8s-15.2-18.1-33.2-7.8c-7.4,4.2-12,12.6-10.7,23c-2.9,0-5.7-0.1-8.5-0.1c1.3-10.3-3.3-18.6-10.7-22.8 c-18-10.3-33.2,7.8-33.2,7.8s-11-20.9-30.8-14.8c-7.5,2.4-13.5,8.7-15,17.9c-2.6-0.6-5.1-1.3-7.7-1.9c0.4-8.5-3.5-15.6-9.7-19.7 c-17.3-11.4-33.6,5.7-33.6,5.7S96,48.6,75.9,53.5c-2.1,0.5-4.2,1.4-6,2.5c-14.3-6.6-23.8-12-27.4-14c2.6-5,13.1-26.2,8.4-36.4 c-1.3-2.8-3.5-4.5-6.7-5.3c-3.2-0.7-5.7-0.1-7.4,1.7c-6.2,6.9,0.3,29.5,3.2,38.4C32,35.4,11.8,23.4,3.5,27.7 c-2.2,1.2-3.4,3.4-3.5,6.7c-0.1,3.3,1,5.9,3.4,7.8c3.5,2.8,9.3,3.8,15.4,3.8c9.4,0,19.4-2.2,22.3-2.9c0.2,0,0.3-0.2,0.5-0.3 c3.4,2,12.8,7.3,27.1,13.9C54,67.1,51.2,97.1,94.4,135.4c38.4-15.5,53.1-34.9,54.5-50.1c2.5,0.6,5,1.3,7.5,1.9 c-1.9,14.9,7.3,37,38.8,61.6c34.3-16.4,48.4-34.8,50.9-49.5c3,0.1,5.9,0.1,8.9,0.1c2.5,14.7,16.7,33,50.8,49.4 c29.9-23.4,39.8-44.4,39-59.3c2.6-0.6,5.1-1.2,7.7-1.9c2.6,14.8,17.7,33,54.2,47.8c42.8-37.9,40.5-67.8,26.1-78.4 c8.6-4.5,17.1-9.2,25.6-14.4c0,0,0,0,0,0c0.1,0.2,0.3,0.4,0.6,0.5c2.9,0.7,12.9,2.9,22.3,2.9c6.1,0,11.9-0.9,15.4-3.8 c2.4-1.9,3.5-4.6,3.4-7.8C499.9,31.2,498.7,28.9,496.5,27.7z M4.2,41.4c-2.1-1.7-3.1-4-3-6.9c0.1-2.9,1-4.7,2.9-5.7 C5.1,28.2,6.4,28,7.9,28c9.9,0,27.5,11,32.3,14l0,0c0,0,0.1,0,0.2,0.1C34.7,43.4,12.4,48,4.2,41.4z M41.4,41.2 c-2-6-10-31.5-3.8-38.4c1-1.1,2.3-1.7,4-1.7c0.7,0,1.4,0.1,2.3,0.3c2.9,0.6,4.8,2.2,5.9,4.6C54.2,15.7,44.2,36.1,41.4,41.2z M458.7,41c-0.1,0-0.1,0.1-0.2,0.1c-2.8-5.3-12.6-25.5-8.3-35.1c1.1-2.5,3.1-4,5.9-4.6c0.8-0.2,1.6-0.3,2.3-0.3c1.7,0,3,0.6,4,1.7 C468.6,9.7,460.7,34.8,458.7,41z M495.8,41.4c-8.2,6.7-30.4,2.1-36.1,0.8c5.3-3.4,28-17.6,36.2-13.3c1.9,1,2.8,2.8,2.9,5.7 C498.9,37.4,497.9,39.7,495.8,41.4z" style="fill: rgb(255, 190, 198);"/></g><g id="__id1_s99bw5m4re"><path d="M235.6,90c3.9,9.9-1.4,20.6-15.9,32c-4.4,3.4-9.1,7.1-14,10.6c-0.1,0.1-0.3,0.2-0.7,0.5c-5.7,4.2-7.8,5.6-8.5,6 c-7.8-8.1-15.1-16.4-21.7-24.9c-6.6-8.4-9.4-16.2-8.7-23.8c0.7-7.5,5.8-12.8,12.9-13.5c0.7-0.1,1.4-0.1,2-0.1 c14.2,0,19.8,15.8,19.9,16l0.4,1.2L202,93c0.1-0.2,9.9-15.7,24.8-10.8C231,83.6,234.2,86.4,235.6,90z M246.4,92.4 c0.1,1.2,0.1,2.4,0.1,3.6c0,0,0,0.1,0,0.1c0,0.6-0.1,1.2-0.2,1.9c0,0.4-0.1,0.9-0.2,1.3c-0.1,0.5-0.2,0.9-0.3,1.4c0,0,0,0.1,0,0.1 c-0.1,0.4-0.2,0.9-0.3,1.3c0,0,0,0.1,0,0.1c-0.6,2.3-1.5,4.7-2.7,7.2c0,0.1-0.1,0.1-0.1,0.2c-0.2,0.4-0.4,0.8-0.7,1.3 c0,0.1-0.1,0.2-0.1,0.3c-0.2,0.4-0.5,0.8-0.7,1.2c0,0.1-0.1,0.2-0.2,0.3c-0.3,0.4-0.5,0.9-0.8,1.3c0,0.1-0.1,0.1-0.1,0.2 c-1,1.5-2.1,3-3.3,4.6c-0.1,0.1-0.2,0.2-0.2,0.3c-0.3,0.4-0.7,0.8-1,1.2c-0.1,0.1-0.2,0.3-0.3,0.4c-0.3,0.4-0.6,0.7-1,1.1 c-0.1,0.2-0.3,0.3-0.4,0.5c-0.3,0.4-0.7,0.7-1,1.1c-0.1,0.1-0.3,0.3-0.4,0.4c-0.4,0.4-0.8,0.8-1.1,1.1c-0.1,0.1-0.2,0.3-0.4,0.4 c-0.5,0.5-1,1-1.5,1.5c0,0,0,0-0.1,0c-0.5,0.5-1.1,1-1.7,1.6c-0.1,0.1-0.2,0.2-0.3,0.3c-0.5,0.4-1,0.8-1.5,1.3 c-0.2,0.2-0.4,0.3-0.6,0.5c-0.4,0.3-0.8,0.7-1.3,1c-0.2,0.2-0.4,0.4-0.7,0.5c-0.4,0.3-0.8,0.6-1.3,1c-0.2,0.2-0.5,0.4-0.7,0.6 c-0.4,0.3-0.9,0.7-1.3,1c-0.3,0.2-0.5,0.4-0.8,0.5c-0.5,0.3-1,0.7-1.5,1c-0.2,0.2-0.5,0.3-0.7,0.5c-0.7,0.5-1.3,0.9-2,1.4 c-0.1,0-0.1,0.1-0.2,0.1c-0.8,0.5-1.5,1-2.3,1.5c-0.2,0.1-0.5,0.3-0.7,0.4c-0.6,0.3-1.1,0.7-1.7,1.1c-0.3,0.2-0.6,0.4-0.9,0.5 c-0.5,0.3-1.1,0.6-1.6,0.9c-0.3,0.2-0.7,0.4-1,0.6c-0.5,0.3-1.1,0.6-1.6,0.9c-0.4,0.2-0.7,0.4-1.1,0.6c-0.6,0.3-1.1,0.6-1.7,0.9 c-0.4,0.2-0.7,0.4-1.1,0.6c-0.6,0.3-1.3,0.7-1.9,1c-0.3,0.2-0.6,0.3-0.9,0.5c-1,0.5-2,1-3,1.4c-0.9-0.7-1.8-1.4-2.7-2.1 c-0.3-0.2-0.5-0.4-0.8-0.7c-0.6-0.5-1.2-1-1.8-1.4c-0.3-0.3-0.6-0.5-0.9-0.8c-0.5-0.5-1.1-0.9-1.6-1.4c-0.3-0.3-0.6-0.5-0.9-0.8 c-0.6-0.5-1.1-1-1.6-1.5c-0.2-0.2-0.5-0.4-0.7-0.6c-0.8-0.7-1.5-1.4-2.2-2.1c-0.1-0.1-0.1-0.2-0.2-0.2c-0.6-0.6-1.3-1.2-1.9-1.8 c-0.2-0.2-0.4-0.4-0.7-0.7c-0.5-0.5-0.9-0.9-1.4-1.4c-0.2-0.2-0.5-0.5-0.7-0.7c-0.4-0.5-0.8-0.9-1.3-1.4c-0.2-0.2-0.4-0.5-0.6-0.7 c-0.5-0.5-0.9-1-1.3-1.5c-0.2-0.2-0.3-0.3-0.4-0.5c-0.6-0.7-1.1-1.3-1.7-2c-0.1-0.1-0.1-0.2-0.2-0.3c-0.5-0.6-0.9-1.1-1.4-1.7 c-0.2-0.2-0.3-0.4-0.5-0.6c-0.4-0.5-0.7-0.9-1-1.4c-0.2-0.2-0.3-0.4-0.5-0.6c-0.3-0.5-0.7-0.9-1-1.4c-0.1-0.2-0.3-0.4-0.4-0.6 c-0.4-0.5-0.7-1.1-1.1-1.6c-0.1-0.1-0.1-0.2-0.2-0.3c-0.4-0.6-0.8-1.3-1.2-1.9c0-0.1-0.1-0.1-0.1-0.2c-0.3-0.6-0.7-1.1-1-1.7 c-0.1-0.2-0.2-0.3-0.3-0.5c-0.3-0.5-0.5-0.9-0.8-1.4c-0.1-0.2-0.2-0.3-0.3-0.5c-0.3-0.5-0.5-1-0.7-1.4c-0.1-0.1-0.1-0.3-0.2-0.4 c-0.6-1.2-1.2-2.4-1.6-3.6c0,0,0,0,0,0c-0.2-0.6-0.4-1.1-0.6-1.7c0-0.1-0.1-0.2-0.1-0.3c-0.2-0.5-0.3-1-0.5-1.5 c0-0.1-0.1-0.2-0.1-0.3c-0.2-0.5-0.3-1-0.5-1.5c0,0,0-0.1,0-0.1c-0.5-1.7-0.8-3.4-1.1-5c0,0,0-0.1,0-0.1c-0.1-0.5-0.1-1-0.2-1.5 c0,0,0-0.1,0-0.1c-0.2-2.1-0.3-4.1-0.1-6c0,0,0,0,0,0c0-0.5,0.1-1,0.1-1.4c0-0.4,0.1-0.8,0.2-1.2c0.7-4,2.2-7.5,4.3-10.3 c0,0,0,0,0-0.1c0.3-0.4,0.6-0.8,0.9-1.1c0,0,0,0,0,0c0.3-0.4,0.6-0.7,1-1c0,0,0.1-0.1,0.1-0.1c0.3-0.3,0.6-0.6,1-0.9c0,0,0,0,0,0 c0.3-0.3,0.7-0.6,1.1-0.9c0.1,0,0.1-0.1,0.2-0.1c0.3-0.3,0.7-0.5,1-0.7c0,0,0,0,0.1,0c0.4-0.2,0.8-0.5,1.1-0.7 c0.1,0,0.2-0.1,0.3-0.1c0.4-0.2,0.7-0.4,1.1-0.6c0,0,0,0,0.1,0c0.4-0.2,0.8-0.4,1.2-0.5c0.1,0,0.2-0.1,0.3-0.1 c0.4-0.2,0.8-0.3,1.2-0.4c19.8-6.2,30.8,14.8,30.8,14.8s15.2-18.1,33.2-7.8c0.4,0.2,0.8,0.5,1.2,0.8c0.1,0,0.1,0.1,0.2,0.2 c0.4,0.3,0.8,0.5,1.1,0.8c0.1,0,0.1,0.1,0.2,0.1c0.4,0.3,0.7,0.6,1,0.9c0,0,0,0,0.1,0.1c0.3,0.3,0.7,0.7,1,1 c0.1,0.1,0.1,0.1,0.2,0.2c0.3,0.3,0.6,0.7,0.9,1.1c0,0,0.1,0.1,0.1,0.1c0.3,0.4,0.6,0.7,0.8,1.1c0,0,0,0.1,0.1,0.1 c0.3,0.4,0.5,0.8,0.8,1.2c0,0,0.1,0.1,0.1,0.2c0.5,0.9,1,1.8,1.4,2.8c0,0,0,0.1,0,0.1c0.2,0.5,0.4,1,0.5,1.5c0,0,0,0.1,0,0.1 c0.3,1,0.6,2.1,0.8,3.2c0,0,0,0.1,0,0.1C246.2,91.2,246.3,91.8,246.4,92.4C246.4,92.4,246.4,92.4,246.4,92.4z M236.8,89.6 c-1.6-4-5-7-9.5-8.5c-13.6-4.5-23.1,6.9-25.6,10.3c-1.7-3.9-8.5-17-22.7-15.6c-7.7,0.8-13.2,6.5-14,14.6c-0.8,7.9,2.1,16,8.9,24.6 c6.7,8.6,14.2,17.1,22.1,25.3c0.1,0.1,0.2,0.2,0.4,0.2c0.6,0,2.3-1.1,9.4-6.4c0.4-0.3,0.6-0.4,0.7-0.5c4.9-3.5,9.6-7.2,14-10.6 C235.4,111.2,240.9,100,236.8,89.6z M418.3,62.8c-15.8-0.6-20.8,17-20.9,17.2l-0.3,1.2l-0.7-1c-0.1-0.1-7.6-10.6-18.6-10.6 c-2.2,0-4.5,0.4-6.8,1.4c-4.1,1.7-7.1,4.6-8.3,8.4c-3.3,10.1,2.7,20.5,17.9,31c4.6,3.2,9.5,6.5,14.6,9.7l0.7,0.4 c5.9,3.8,8.1,5.1,8.9,5.5c7.3-8.5,14-17.4,20.1-26.2c6-8.8,8.4-16.7,7.2-24.3C430.8,68,425.4,63,418.3,62.8z M442,76.7 c0,0.7,0,1.3,0,2c0,0.1,0,0.1,0,0.2c0,0.7-0.1,1.4-0.1,2.2c0,0,0,0,0,0.1c-0.1,0.7-0.2,1.5-0.3,2.2c0,0.1,0,0.2,0,0.3 c-0.1,0.7-0.3,1.5-0.4,2.2c0,0.1,0,0.2-0.1,0.4c-0.2,0.8-0.4,1.5-0.6,2.3c0,0,0,0.1,0,0.1c-0.2,0.8-0.5,1.6-0.7,2.4 c0,0.1-0.1,0.2-0.1,0.3c-0.3,0.8-0.6,1.6-0.9,2.4c0,0.1-0.1,0.3-0.2,0.4c-0.3,0.8-0.7,1.6-1,2.4c-0.1,0.1-0.1,0.3-0.2,0.4 c-0.4,0.9-0.8,1.7-1.3,2.6v0c-0.4,0.9-0.9,1.8-1.4,2.7c-0.1,0.1-0.2,0.3-0.2,0.4c-0.5,0.9-1,1.7-1.5,2.6c-0.1,0.2-0.2,0.3-0.3,0.5 c-0.6,0.9-1.1,1.8-1.7,2.7c-0.1,0.1-0.2,0.3-0.3,0.4c-0.6,0.9-1.3,1.8-1.9,2.7c-0.1,0.1-0.1,0.2-0.2,0.2c-0.7,0.9-1.4,1.9-2.1,2.8 c-0.1,0.2-0.3,0.4-0.4,0.5c-0.7,0.9-1.5,1.9-2.3,2.8c-0.2,0.2-0.3,0.3-0.5,0.5c-0.8,1-1.7,2-2.6,3c-0.1,0.1-0.2,0.2-0.2,0.3 c-0.9,1-1.8,2-2.7,2.9c-0.1,0.1-0.2,0.3-0.4,0.4c-1,1-1.9,2-3,3c-0.2,0.2-0.4,0.4-0.6,0.6c-1,1-2.1,2-3.1,3 c-0.2,0.2-0.4,0.3-0.5,0.5c-1.1,1.1-2.3,2.1-3.5,3.2c-1.1-0.4-2.1-0.9-3.1-1.3c-0.3-0.1-0.7-0.3-1-0.4c-0.7-0.3-1.4-0.6-2-0.9 c-0.4-0.2-0.7-0.3-1.1-0.5c-0.6-0.3-1.2-0.6-1.9-0.8c-0.4-0.2-0.7-0.3-1.1-0.5c-0.6-0.3-1.2-0.6-1.8-0.9c-0.3-0.2-0.6-0.3-1-0.5 c-0.7-0.4-1.5-0.7-2.2-1.1c-0.2-0.1-0.3-0.2-0.5-0.3c-0.9-0.5-1.7-0.9-2.6-1.4c-0.2-0.1-0.5-0.3-0.7-0.4c-0.6-0.3-1.2-0.7-1.8-1 c-0.3-0.2-0.6-0.3-0.9-0.5c-0.5-0.3-1-0.6-1.5-0.9c-0.3-0.2-0.6-0.3-0.9-0.5c-0.5-0.3-1-0.6-1.5-0.9c-0.3-0.2-0.5-0.3-0.8-0.5 c-0.5-0.4-1.1-0.7-1.6-1.1c-0.2-0.1-0.4-0.3-0.5-0.4c-0.7-0.5-1.4-0.9-2-1.4c-0.1-0.1-0.3-0.2-0.4-0.3c-0.5-0.4-1-0.8-1.5-1.1 c-0.2-0.2-0.4-0.3-0.6-0.5c-0.4-0.3-0.8-0.6-1.2-1c-0.2-0.2-0.5-0.4-0.7-0.5c-0.4-0.3-0.8-0.6-1.1-0.9c-0.2-0.2-0.4-0.4-0.6-0.5 c-0.4-0.3-0.8-0.7-1.2-1c-0.2-0.1-0.3-0.3-0.5-0.4c-0.5-0.5-1-1-1.6-1.4c0,0,0,0,0,0c-0.5-0.5-1-0.9-1.4-1.4 c-0.1-0.2-0.3-0.3-0.4-0.5c-0.3-0.3-0.6-0.7-1-1c-0.2-0.2-0.3-0.4-0.5-0.5c-0.3-0.3-0.6-0.6-0.8-0.9c-0.2-0.2-0.3-0.3-0.5-0.5 c-0.3-0.3-0.5-0.7-0.8-1c-0.1-0.1-0.3-0.3-0.4-0.4c-0.3-0.4-0.7-0.9-1-1.3c0-0.1-0.1-0.1-0.1-0.2c-0.4-0.5-0.7-1-1-1.4 c-0.1-0.1-0.2-0.2-0.2-0.4c-0.2-0.4-0.5-0.7-0.7-1.1c-0.1-0.2-0.2-0.3-0.3-0.5c-0.2-0.3-0.4-0.6-0.6-1c-0.1-0.2-0.2-0.3-0.3-0.5 c-0.2-0.3-0.4-0.6-0.5-1c-0.1-0.2-0.2-0.3-0.2-0.5c-0.2-0.4-0.4-0.8-0.6-1.1c-0.1-0.1-0.1-0.2-0.1-0.3c-0.2-0.5-0.4-0.9-0.6-1.4 c0-0.1-0.1-0.2-0.1-0.2c-0.2-0.4-0.3-0.8-0.5-1.1c0-0.1-0.1-0.3-0.2-0.4c-0.1-0.3-0.2-0.6-0.3-0.9c0-0.2-0.1-0.3-0.2-0.5 c-0.1-0.3-0.2-0.6-0.3-0.9c0-0.2-0.1-0.3-0.1-0.4c-0.1-0.3-0.2-0.7-0.3-1c0-0.1-0.1-0.2-0.1-0.3c-0.1-0.5-0.2-0.9-0.3-1.3 c-0.1-0.4-0.1-0.9-0.2-1.3c-0.1-0.6-0.1-1.1-0.2-1.7c0,0,0-0.1,0-0.1c0-0.6,0-1.1,0-1.7c0,0,0-0.1,0-0.1c0-0.5,0-1.1,0.1-1.6 c0,0,0,0,0,0c0-0.5,0.1-1.1,0.2-1.6c0-0.1,0-0.1,0-0.1c0.1-1,0.4-2,0.6-3c0,0,0-0.1,0-0.2c0.3-0.9,0.6-1.8,1-2.7 c0-0.1,0.1-0.1,0.1-0.2c0.2-0.4,0.4-0.8,0.6-1.3c0,0,0-0.1,0-0.1c0.2-0.4,0.4-0.8,0.7-1.1c0-0.1,0.1-0.1,0.1-0.2 c0.3-0.4,0.5-0.8,0.8-1.1c0-0.1,0.1-0.1,0.1-0.2c0.2-0.3,0.5-0.6,0.8-1c0-0.1,0.1-0.1,0.1-0.2c0.3-0.3,0.6-0.7,0.9-1 c0.1-0.1,0.1-0.1,0.2-0.2c0.3-0.3,0.6-0.6,0.9-0.8c0,0,0.1-0.1,0.1-0.1c0.3-0.3,0.7-0.6,1-0.8c0.1-0.1,0.2-0.1,0.2-0.2 c0.3-0.3,0.7-0.5,1.1-0.8c17.3-11.4,33.6,5.7,33.6,5.7s9.7-21.6,29.8-16.7c0.5,0.1,1.1,0.3,1.6,0.5c0,0,0.1,0,0.1,0 c0.5,0.2,1,0.4,1.5,0.6c0,0,0.1,0,0.1,0c0.5,0.2,1,0.5,1.5,0.7c0,0,0,0,0.1,0c0.5,0.3,1,0.6,1.5,0.9c0.4,0.2,0.8,0.5,1.1,0.8 c0.4,0.3,0.9,0.7,1.3,1c0,0,0,0,0.1,0c1.3,1.1,2.4,2.3,3.4,3.7c0,0,0,0,0,0.1c0.3,0.5,0.6,0.9,0.9,1.4c0,0,0,0.1,0,0.1 c0.6,1,1.1,2.1,1.6,3.2c0,0,0,0,0,0c0.2,0.6,0.4,1.1,0.6,1.7c0,0.1,0,0.1,0,0.2c0.2,0.6,0.3,1.1,0.5,1.7c0,0,0,0.1,0,0.1 c0.3,1.2,0.5,2.5,0.6,3.8c0,0.1,0,0.1,0,0.2c0.1,0.6,0.1,1.3,0.1,2C442,76.5,442,76.6,442,76.7z M433.2,75.2 c-1.3-8-7.1-13.4-14.8-13.7c-14.3-0.5-20.3,13-21.7,17c-2.7-3.3-12.9-14-26.2-8.7c-4.5,1.8-7.6,5-9,9.1 c-3.5,10.6,2.7,21.5,18.4,32.3c4.6,3.2,9.6,6.5,14.7,9.7l0.7,0.4c7.3,4.7,9.1,5.8,9.8,5.8c0.2,0,0.3-0.1,0.4-0.2 c7.4-8.7,14.3-17.6,20.5-26.6C432,91.4,434.4,83.1,433.2,75.2z" style="fill: rgb(207, 61, 80);"/></g><g id="__id2_s99bw5m4re"><path d="M496.5,27.7c-0.3-0.1-0.5-0.3-0.8-0.4c-0.1,0-0.2-0.1-0.3-0.1c-0.2-0.1-0.4-0.1-0.6-0.2c-0.1,0-0.3,0-0.4-0.1 c-0.2,0-0.4-0.1-0.6-0.1c-0.1,0-0.3,0-0.4,0c-0.2,0-0.4,0-0.6,0c-0.2,0-0.3,0-0.5,0c-0.2,0-0.4,0-0.6,0c-0.2,0-0.3,0-0.5,0 c-0.2,0-0.4,0-0.6,0c-0.2,0-0.3,0-0.5,0.1c-0.2,0-0.4,0.1-0.7,0.1c-0.2,0-0.4,0.1-0.5,0.1c-0.2,0-0.5,0.1-0.7,0.1 c-0.2,0-0.4,0.1-0.5,0.1c-0.2,0-0.5,0.1-0.7,0.2c-0.2,0-0.4,0.1-0.5,0.1c-0.3,0.1-0.5,0.1-0.8,0.2c-0.2,0-0.4,0.1-0.6,0.2 c-0.3,0.1-0.5,0.2-0.8,0.2c-0.2,0.1-0.4,0.1-0.5,0.2c-0.3,0.1-0.5,0.2-0.8,0.3c-0.2,0.1-0.4,0.1-0.5,0.2c-0.3,0.1-0.6,0.2-0.8,0.3 c-0.2,0.1-0.3,0.1-0.5,0.2c-0.3,0.1-0.6,0.3-0.9,0.4c-0.1,0.1-0.3,0.1-0.4,0.2c-0.4,0.1-0.7,0.3-1.1,0.5c-0.1,0-0.2,0.1-0.3,0.1 c-0.9,0.4-1.9,0.8-2.8,1.3c-0.1,0-0.2,0.1-0.3,0.2c-0.4,0.2-0.7,0.3-1,0.5c-0.1,0.1-0.3,0.1-0.4,0.2c-0.3,0.2-0.6,0.3-0.9,0.5 c-0.2,0.1-0.3,0.2-0.5,0.3c-0.3,0.1-0.5,0.3-0.8,0.4c-0.2,0.1-0.4,0.2-0.5,0.3c-0.3,0.1-0.5,0.3-0.8,0.4c-0.2,0.1-0.4,0.2-0.5,0.3 c-0.2,0.1-0.5,0.3-0.7,0.4c-0.2,0.1-0.3,0.2-0.5,0.3c-0.2,0.1-0.5,0.3-0.7,0.4c-0.2,0.1-0.3,0.2-0.5,0.3c-0.2,0.1-0.5,0.3-0.7,0.4 c-0.2,0.1-0.4,0.2-0.5,0.3c-0.2,0.1-0.4,0.2-0.6,0.3c-0.2,0.1-0.4,0.2-0.5,0.3c-0.2,0.1-0.4,0.2-0.6,0.3c-0.2,0.1-0.3,0.2-0.5,0.3 c-0.2,0.1-0.3,0.2-0.5,0.3c-0.2,0.1-0.3,0.2-0.5,0.3c-0.1,0.1-0.3,0.2-0.5,0.3c-0.2,0.1-0.3,0.2-0.5,0.3c-0.1,0.1-0.3,0.2-0.4,0.2 c-0.2,0.1-0.3,0.2-0.5,0.3c-0.1,0-0.2,0.1-0.3,0.2c-0.2,0.1-0.4,0.2-0.6,0.3c0.1-0.2,0.1-0.5,0.2-0.7c0-0.1,0-0.1,0.1-0.2 c0.1-0.2,0.1-0.4,0.2-0.7c0-0.1,0.1-0.2,0.1-0.3c0.1-0.2,0.1-0.4,0.2-0.6c0-0.1,0.1-0.3,0.1-0.4c0.1-0.2,0.1-0.4,0.2-0.6 c0-0.2,0.1-0.4,0.2-0.5c0.1-0.2,0.1-0.4,0.2-0.6s0.1-0.4,0.2-0.6c0.1-0.2,0.1-0.4,0.2-0.6c0.1-0.2,0.1-0.4,0.2-0.6 c0.1-0.2,0.1-0.4,0.2-0.6c0.1-0.2,0.1-0.4,0.2-0.7c0.1-0.2,0.1-0.4,0.2-0.6c0.1-0.2,0.1-0.5,0.2-0.7c0-0.2,0.1-0.4,0.2-0.6 c0.1-0.3,0.1-0.5,0.2-0.8c0-0.2,0.1-0.4,0.2-0.6c0.1-0.3,0.1-0.5,0.2-0.8c0-0.2,0.1-0.4,0.1-0.6c0.1-0.3,0.1-0.6,0.2-0.9 c0-0.2,0.1-0.4,0.1-0.6c0.1-0.3,0.1-0.6,0.2-0.9c0-0.2,0.1-0.3,0.1-0.5c0.1-0.4,0.1-0.7,0.2-1.1c0-0.1,0-0.3,0.1-0.4 c0.2-1,0.4-2,0.5-3c0-0.1,0-0.2,0-0.3c0.1-0.4,0.1-0.8,0.2-1.1c0-0.2,0-0.3,0.1-0.5c0-0.3,0.1-0.7,0.1-1c0-0.2,0-0.4,0.1-0.5 c0-0.3,0.1-0.6,0.1-0.9c0-0.2,0-0.4,0-0.6c0-0.3,0-0.6,0.1-0.9c0-0.2,0-0.4,0-0.6c0-0.3,0-0.5,0-0.8c0-0.2,0-0.4,0-0.6 c0-0.3,0-0.5,0-0.8c0-0.2,0-0.4,0-0.6c0-0.3,0-0.5,0-0.7c0-0.2,0-0.4,0-0.6c0-0.2,0-0.5,0-0.7c0-0.2,0-0.4,0-0.5 c0-0.2,0-0.5-0.1-0.7c0-0.2,0-0.3-0.1-0.5c0-0.2-0.1-0.4-0.1-0.6c0-0.2-0.1-0.3-0.1-0.5c0-0.2-0.1-0.4-0.1-0.6 c0-0.2-0.1-0.3-0.1-0.5c-0.1-0.2-0.1-0.4-0.2-0.6c0-0.1-0.1-0.3-0.2-0.4c-0.1-0.2-0.2-0.4-0.3-0.5c-0.1-0.1-0.1-0.2-0.2-0.4 c-0.1-0.2-0.2-0.4-0.3-0.5c-0.1-0.1-0.1-0.2-0.2-0.3c-0.2-0.3-0.4-0.5-0.6-0.7c-1.7-1.9-4.2-2.5-7.4-1.7c-3.2,0.7-5.5,2.5-6.7,5.3 c-0.2,0.3-0.3,0.7-0.4,1c0,0.1-0.1,0.2-0.1,0.3c-0.1,0.2-0.2,0.5-0.2,0.7c0,0.1-0.1,0.3-0.1,0.4c0,0.2-0.1,0.5-0.1,0.7 c0,0.2,0,0.3-0.1,0.5c0,0.2-0.1,0.4-0.1,0.7c0,0.2,0,0.3,0,0.5c0,0.2,0,0.5,0,0.7c0,0.2,0,0.4,0,0.5c0,0.2,0,0.5,0,0.7 c0,0.2,0,0.4,0,0.6c0,0.2,0,0.5,0,0.7c0,0.2,0,0.4,0,0.6c0,0.3,0,0.5,0.1,0.8c0,0.2,0,0.4,0.1,0.6c0,0.3,0.1,0.5,0.1,0.8 c0,0.2,0.1,0.4,0.1,0.6c0,0.3,0.1,0.5,0.1,0.8c0,0.2,0.1,0.4,0.1,0.6c0,0.3,0.1,0.5,0.2,0.8c0,0.2,0.1,0.4,0.1,0.6 c0.1,0.3,0.1,0.5,0.2,0.8c0,0.2,0.1,0.4,0.1,0.6c0.1,0.3,0.1,0.5,0.2,0.8c0,0.2,0.1,0.4,0.2,0.6c0.1,0.3,0.1,0.5,0.2,0.8 c0,0.2,0.1,0.4,0.2,0.6c0.1,0.3,0.2,0.5,0.3,0.8c0.1,0.2,0.1,0.4,0.2,0.6c0.1,0.3,0.2,0.5,0.3,0.8c0.1,0.2,0.1,0.4,0.2,0.5 c0.1,0.3,0.2,0.5,0.3,0.8c0.1,0.2,0.1,0.4,0.2,0.5c0.1,0.3,0.2,0.5,0.3,0.8c0.1,0.2,0.1,0.3,0.2,0.5c0.1,0.3,0.2,0.5,0.3,0.8 c0.1,0.2,0.1,0.3,0.2,0.5c0.1,0.3,0.2,0.5,0.3,0.8c0.1,0.1,0.1,0.3,0.2,0.5c0.1,0.3,0.2,0.5,0.3,0.8c0.1,0.1,0.1,0.3,0.2,0.4 c0.1,0.3,0.2,0.5,0.3,0.8c0.1,0.1,0.1,0.3,0.2,0.4c0.1,0.3,0.2,0.5,0.3,0.8c0.1,0.1,0.1,0.3,0.2,0.4c0.1,0.3,0.2,0.5,0.3,0.8 c0,0.1,0.1,0.2,0.1,0.3c0.1,0.3,0.2,0.5,0.3,0.8c0,0.1,0.1,0.2,0.1,0.3c0.1,0.3,0.2,0.5,0.4,0.8c0,0.1,0.1,0.1,0.1,0.2 c0.1,0.3,0.3,0.5,0.4,0.8c0.3,0.5,0.5,1,0.7,1.5c0,0,0,0.1,0.1,0.1c0.1,0.2,0.2,0.4,0.3,0.5c0,0,0,0.1,0,0.1 c0.1,0.2,0.2,0.4,0.3,0.5c0,0,0,0,0,0c-2.1,1.3-4.2,2.5-6.3,3.7c-0.2,0.1-0.3,0.2-0.5,0.3c-6.4,3.7-12.8,7.3-19.2,10.5 c0.4,0.3,0.8,0.5,1.1,0.8c0,0,0,0,0,0c2-1,4-2.1,6.1-3.2c0.2-0.1,0.5-0.3,0.7-0.4c4.1-2.2,8.2-4.5,12.3-6.9c0.1-0.1,0.2-0.1,0.3-0.2 c2-1.2,4.1-2.4,6.1-3.7c0,0,0,0,0,0h0c0,0.1,0.1,0.2,0.2,0.3c0,0,0,0,0.1,0c0.1,0.1,0.2,0.1,0.3,0.2c2.9,0.7,12.9,2.9,22.3,2.9 c6.1,0,11.9-0.9,15.4-3.8c2.4-1.9,3.5-4.6,3.4-7.8C499.9,31.2,498.7,28.9,496.5,27.7z M459.5,38.6c0,0.2-0.1,0.3-0.1,0.5 c0,0.2-0.1,0.3-0.1,0.5c0,0.1-0.1,0.2-0.1,0.3c0,0.2-0.1,0.3-0.1,0.5c0,0.1,0,0.2-0.1,0.2c-0.1,0.2-0.1,0.3-0.2,0.5v0c0,0,0,0,0,0 c0,0-0.1,0.1-0.1,0.1c-0.1-0.2-0.2-0.3-0.3-0.5c0,0,0-0.1,0-0.1c-0.1-0.2-0.2-0.3-0.3-0.5c0,0,0-0.1-0.1-0.2 c-0.1-0.2-0.2-0.3-0.3-0.5c0-0.1-0.1-0.2-0.1-0.3c-0.1-0.2-0.2-0.3-0.2-0.5c-0.1-0.1-0.1-0.2-0.2-0.4c-0.1-0.1-0.1-0.3-0.2-0.5 c-0.1-0.1-0.1-0.3-0.2-0.4c-0.1-0.2-0.1-0.3-0.2-0.5c-0.1-0.2-0.2-0.3-0.2-0.5c-0.1-0.2-0.1-0.3-0.2-0.5c-0.1-0.2-0.2-0.4-0.3-0.6 c-0.1-0.1-0.1-0.3-0.2-0.4c-0.1-0.2-0.2-0.4-0.3-0.7c-0.1-0.1-0.1-0.3-0.2-0.4c-0.1-0.2-0.2-0.5-0.3-0.7c-0.1-0.1-0.1-0.3-0.2-0.4 c-0.1-0.3-0.2-0.5-0.3-0.8c-0.1-0.1-0.1-0.3-0.2-0.4c-0.1-0.3-0.2-0.5-0.3-0.8c0-0.1-0.1-0.3-0.2-0.4c-0.1-0.3-0.2-0.6-0.3-0.8 c0-0.1-0.1-0.3-0.1-0.4c-0.1-0.3-0.2-0.6-0.3-0.9c0-0.1-0.1-0.3-0.1-0.4c-0.1-0.3-0.2-0.6-0.3-0.9c0-0.1-0.1-0.3-0.1-0.4 c-0.1-0.3-0.2-0.6-0.3-0.9c0-0.1-0.1-0.3-0.1-0.4c-0.1-0.3-0.2-0.6-0.3-0.9c0-0.1-0.1-0.3-0.1-0.4c-0.1-0.3-0.2-0.6-0.3-0.9 c0-0.1-0.1-0.3-0.1-0.4c-0.1-0.3-0.2-0.6-0.3-0.9c0-0.1-0.1-0.3-0.1-0.4c-0.1-0.3-0.2-0.6-0.2-0.9c0-0.1-0.1-0.3-0.1-0.4 c-0.1-0.3-0.1-0.6-0.2-0.9c0-0.1-0.1-0.3-0.1-0.4c-0.1-0.3-0.1-0.6-0.2-0.9c0-0.1,0-0.3-0.1-0.4c0-0.3-0.1-0.6-0.1-0.9 c0-0.1,0-0.3-0.1-0.4c0-0.3-0.1-0.6-0.1-0.9c0-0.1,0-0.3,0-0.4c0-0.3,0-0.5-0.1-0.8c0-0.1,0-0.3,0-0.4c0-0.3,0-0.5,0-0.8 c0-0.1,0-0.3,0-0.4c0-0.3,0-0.5,0-0.8c0-0.1,0-0.3,0-0.4c0-0.3,0-0.5,0-0.7c0-0.1,0-0.3,0-0.4c0-0.2,0.1-0.5,0.1-0.7 c0-0.1,0-0.3,0-0.4c0-0.2,0.1-0.5,0.1-0.7c0-0.1,0-0.3,0.1-0.4c0.1-0.2,0.1-0.5,0.2-0.7c0-0.1,0-0.2,0.1-0.3 c0.1-0.3,0.2-0.6,0.4-0.9c1.1-2.5,3.1-4,5.9-4.6c0.8-0.2,1.6-0.3,2.3-0.3c1.7,0,3,0.6,4,1.7c0.2,0.2,0.4,0.5,0.5,0.7 c0,0.1,0.1,0.2,0.1,0.3c0.1,0.2,0.2,0.3,0.3,0.5c0,0.1,0.1,0.2,0.1,0.3c0.1,0.2,0.2,0.4,0.2,0.6c0,0.1,0.1,0.3,0.1,0.4 c0.1,0.2,0.1,0.4,0.2,0.6c0,0.1,0.1,0.3,0.1,0.4c0,0.2,0.1,0.4,0.1,0.7c0,0.1,0,0.3,0.1,0.4c0,0.2,0.1,0.5,0.1,0.7 c0,0.1,0,0.3,0,0.4c0,0.3,0.1,0.5,0.1,0.8c0,0.1,0,0.3,0,0.4c0,0.3,0,0.5,0,0.8c0,0.1,0,0.3,0,0.5c0,0.3,0,0.6,0,0.9 c0,0.2,0,0.3,0,0.5c0,0.3,0,0.6,0,0.9c0,0.1,0,0.3,0,0.5c0,0.3,0,0.6-0.1,1c0,0.2,0,0.3,0,0.5c0,0.3-0.1,0.6-0.1,1 c0,0.2,0,0.3,0,0.5c0,0.3-0.1,0.7-0.1,1c0,0.2,0,0.3-0.1,0.5c0,0.3-0.1,0.7-0.1,1c0,0.1,0,0.3-0.1,0.4c0,0.3-0.1,0.7-0.2,1.1 c0,0.1,0,0.3-0.1,0.4c-0.1,0.4-0.1,0.7-0.2,1.1c0,0.1,0,0.3-0.1,0.4c-0.1,0.4-0.1,0.7-0.2,1.1c0,0.1-0.1,0.3-0.1,0.4 c-0.1,0.4-0.1,0.7-0.2,1.1c0,0.1-0.1,0.3-0.1,0.4c-0.1,0.4-0.2,0.7-0.2,1.1c0,0.1-0.1,0.3-0.1,0.4c-0.1,0.3-0.2,0.7-0.2,1 c0,0.1-0.1,0.3-0.1,0.4c-0.1,0.3-0.2,0.7-0.3,1c0,0.1-0.1,0.3-0.1,0.4c-0.1,0.3-0.2,0.6-0.3,1c0,0.1-0.1,0.3-0.1,0.4 c-0.1,0.3-0.2,0.6-0.2,0.9c0,0.1-0.1,0.3-0.1,0.4c-0.1,0.3-0.2,0.6-0.2,0.9c0,0.1-0.1,0.3-0.1,0.4c-0.1,0.3-0.1,0.5-0.2,0.8 c0,0.2-0.1,0.3-0.1,0.4c-0.1,0.2-0.1,0.5-0.2,0.7c0,0.2-0.1,0.3-0.1,0.5c-0.1,0.2-0.1,0.4-0.2,0.6c0,0.2-0.1,0.3-0.1,0.5 c0,0.2-0.1,0.4-0.2,0.5C459.6,38.3,459.5,38.4,459.5,38.6z M495.8,41.4c-8.2,6.7-30.4,2.1-36.1,0.8c5.3-3.4,28-17.6,36.2-13.3 c1.9,1,2.8,2.8,2.9,5.7C498.9,37.4,497.9,39.7,495.8,41.4z M148.9,84.1c2.5,0.7,5.1,1.3,7.7,1.9c-0.1,0.4-0.1,0.8-0.2,1.2 c-2.5-0.6-5.1-1.2-7.5-1.9C148.9,84.9,148.9,84.5,148.9,84.1z M352.2,86.3c0.1,0.4,0.1,0.9,0.2,1.3c-2.5,0.7-5.1,1.3-7.6,1.9 c0-0.4-0.1-0.9-0.1-1.3C347.2,87.6,349.7,86.9,352.2,86.3z M69.8,56c-8.9-4.1-16-7.7-20.9-10.4c0,0-0.1,0-0.1,0 c-1-0.5-1.9-1-2.7-1.5c-0.4-0.2-0.7-0.4-1.1-0.6c0,0-0.1-0.1-0.2-0.1c-0.7-0.4-1.3-0.7-1.8-1c0,0-0.1,0-0.1-0.1 c-0.2-0.1-0.5-0.3-0.7-0.4c0,0,0,0,0,0v0c0.1-0.1,0.1-0.3,0.2-0.4c0-0.1,0.1-0.1,0.1-0.2c0.1-0.1,0.1-0.2,0.2-0.4 c0-0.1,0.1-0.2,0.2-0.3c0.1-0.1,0.1-0.2,0.2-0.3s0.1-0.2,0.2-0.4s0.1-0.2,0.2-0.4c0.1-0.1,0.1-0.3,0.2-0.4c0.1-0.1,0.1-0.2,0.2-0.4 c0.1-0.2,0.2-0.3,0.3-0.5c0.1-0.1,0.1-0.2,0.2-0.4c0.1-0.2,0.2-0.4,0.3-0.6c0.1-0.1,0.1-0.3,0.2-0.4c0.1-0.2,0.2-0.4,0.3-0.7 c0.1-0.1,0.1-0.3,0.2-0.4c0.1-0.2,0.2-0.5,0.3-0.7c0.1-0.1,0.1-0.3,0.2-0.4c0.1-0.2,0.2-0.5,0.3-0.7c0.1-0.1,0.1-0.3,0.2-0.4 c0.1-0.3,0.2-0.5,0.3-0.8c0.1-0.1,0.1-0.3,0.2-0.4c0.1-0.3,0.2-0.5,0.3-0.8c0.1-0.1,0.1-0.3,0.2-0.4c0.1-0.3,0.2-0.6,0.3-0.8 c0.1-0.1,0.1-0.3,0.2-0.4c0.1-0.3,0.2-0.6,0.3-0.9c0.1-0.2,0.1-0.3,0.2-0.5c0.1-0.3,0.2-0.6,0.3-0.9c0.1-0.2,0.1-0.3,0.2-0.5 c0.1-0.3,0.2-0.6,0.3-0.9c0-0.2,0.1-0.3,0.2-0.5c0.1-0.3,0.2-0.6,0.3-0.9c0-0.2,0.1-0.3,0.2-0.5c0.1-0.3,0.2-0.6,0.3-0.9 c0-0.2,0.1-0.3,0.2-0.5c0.1-0.3,0.2-0.6,0.3-0.9c0-0.2,0.1-0.3,0.1-0.5c0.1-0.3,0.1-0.6,0.2-0.9c0-0.2,0.1-0.3,0.1-0.5 c0.1-0.3,0.1-0.6,0.2-0.9c0-0.2,0.1-0.3,0.1-0.5c0.1-0.3,0.1-0.6,0.2-0.9c0-0.2,0.1-0.4,0.1-0.5c0-0.3,0.1-0.5,0.1-0.8 c0-0.2,0.1-0.4,0.1-0.5c0-0.3,0.1-0.5,0.1-0.8c0-0.2,0-0.4,0.1-0.5c0-0.3,0-0.5,0.1-0.8c0-0.2,0-0.3,0-0.5c0-0.3,0-0.5,0-0.8 c0-0.2,0-0.3,0-0.5c0-0.3,0-0.5,0-0.8c0-0.2,0-0.3,0-0.5c0-0.3,0-0.5,0-0.7c0-0.2,0-0.3,0-0.5c0-0.2-0.1-0.5-0.1-0.7 c0-0.2,0-0.3-0.1-0.5c0-0.2-0.1-0.5-0.1-0.7c0-0.1,0-0.3-0.1-0.4c-0.1-0.3-0.1-0.5-0.2-0.7c0-0.1-0.1-0.2-0.1-0.3 c-0.1-0.3-0.3-0.7-0.4-1c-1.3-2.8-3.5-4.5-6.7-5.3c-3.2-0.7-5.7-0.2-7.4,1.7c-0.2,0.2-0.4,0.5-0.6,0.7C36.1,2.8,36,2.9,36,3 c-0.1,0.2-0.2,0.3-0.3,0.5c-0.1,0.1-0.1,0.2-0.2,0.3c-0.1,0.2-0.2,0.4-0.3,0.5c0,0.1-0.1,0.3-0.2,0.4C35,5,35,5.2,34.9,5.4 c0,0.1-0.1,0.3-0.1,0.4c0,0.2-0.1,0.4-0.1,0.6c0,0.2-0.1,0.3-0.1,0.5c0,0.2-0.1,0.4-0.1,0.6c0,0.2,0,0.3-0.1,0.5 c0,0.2-0.1,0.4-0.1,0.7c0,0.2,0,0.4,0,0.5c0,0.2,0,0.5-0.1,0.7c0,0.2,0,0.4,0,0.6c0,0.2,0,0.5,0,0.7c0,0.2,0,0.4,0,0.6 c0,0.3,0,0.5,0,0.8c0,0.2,0,0.4,0,0.6c0,0.3,0,0.5,0,0.8c0,0.2,0,0.4,0,0.6c0,0.3,0,0.6,0.1,0.8c0,0.2,0,0.4,0,0.6 c0,0.3,0.1,0.6,0.1,0.9c0,0.2,0,0.3,0.1,0.5c0,0.3,0.1,0.7,0.1,1c0,0.2,0,0.3,0.1,0.5c0.1,0.4,0.1,0.8,0.2,1.2c0,0.1,0,0.2,0,0.3 c0.2,1,0.3,2,0.5,3c0,0.1,0.1,0.2,0.1,0.3c0.1,0.4,0.2,0.8,0.2,1.1c0,0.2,0.1,0.3,0.1,0.5c0.1,0.3,0.1,0.7,0.2,1 c0,0.2,0.1,0.4,0.1,0.5c0.1,0.3,0.1,0.6,0.2,0.9c0,0.2,0.1,0.4,0.1,0.6c0.1,0.3,0.1,0.6,0.2,0.8c0,0.2,0.1,0.4,0.1,0.6 c0.1,0.3,0.1,0.5,0.2,0.8c0,0.2,0.1,0.4,0.2,0.6c0.1,0.3,0.1,0.5,0.2,0.8c0.1,0.2,0.1,0.4,0.2,0.6c0.1,0.2,0.1,0.5,0.2,0.7 c0.1,0.2,0.1,0.4,0.2,0.6c0.1,0.2,0.1,0.4,0.2,0.7c0.1,0.2,0.1,0.4,0.2,0.6c0.1,0.2,0.1,0.4,0.2,0.6c0.1,0.2,0.1,0.4,0.2,0.6 s0.1,0.4,0.2,0.6c0.1,0.2,0.1,0.4,0.2,0.6c0,0.2,0.1,0.3,0.2,0.5c0.1,0.2,0.1,0.4,0.2,0.6c0,0.1,0.1,0.3,0.1,0.4 c0.1,0.2,0.1,0.4,0.2,0.6c0,0.1,0.1,0.2,0.1,0.3c0.1,0.2,0.1,0.4,0.2,0.6c-0.2-0.1-0.4-0.2-0.6-0.3c-0.1,0-0.2-0.1-0.3-0.2 c-0.2-0.1-0.3-0.2-0.5-0.3c-0.1-0.1-0.3-0.2-0.4-0.2c-0.2-0.1-0.3-0.2-0.5-0.3c-0.1-0.1-0.3-0.2-0.5-0.3c-0.2-0.1-0.3-0.2-0.5-0.3 c-0.2-0.1-0.3-0.2-0.5-0.3c-0.2-0.1-0.3-0.2-0.5-0.3c-0.2-0.1-0.4-0.2-0.6-0.3c-0.2-0.1-0.4-0.2-0.5-0.3c-0.2-0.1-0.4-0.2-0.6-0.4 c-0.2-0.1-0.3-0.2-0.5-0.3c-0.2-0.1-0.4-0.3-0.6-0.4c-0.2-0.1-0.4-0.2-0.5-0.3c-0.2-0.1-0.4-0.3-0.7-0.4c-0.2-0.1-0.4-0.2-0.5-0.3 c-0.2-0.1-0.5-0.3-0.7-0.4c-0.2-0.1-0.4-0.2-0.5-0.3c-0.3-0.1-0.5-0.3-0.8-0.4c-0.2-0.1-0.3-0.2-0.5-0.3c-0.3-0.1-0.6-0.3-0.8-0.4 c-0.2-0.1-0.3-0.2-0.5-0.3c-0.3-0.2-0.6-0.3-0.9-0.5c-0.1-0.1-0.3-0.1-0.4-0.2c-0.3-0.2-0.7-0.3-1-0.5c-0.1,0-0.2-0.1-0.3-0.2 c-0.9-0.4-1.8-0.9-2.8-1.3c-0.1,0-0.2-0.1-0.3-0.1c-0.4-0.2-0.7-0.3-1.1-0.5c-0.2-0.1-0.3-0.1-0.4-0.2c-0.3-0.1-0.6-0.3-0.9-0.4 c-0.2-0.1-0.3-0.1-0.5-0.2c-0.3-0.1-0.6-0.2-0.9-0.3c-0.2-0.1-0.4-0.1-0.5-0.2c-0.3-0.1-0.5-0.2-0.8-0.3c-0.2-0.1-0.4-0.1-0.5-0.2 c-0.3-0.1-0.5-0.2-0.8-0.2c-0.2-0.1-0.4-0.1-0.6-0.2c-0.3-0.1-0.5-0.1-0.8-0.2c-0.2,0-0.4-0.1-0.5-0.1c-0.2-0.1-0.5-0.1-0.7-0.2 c-0.2,0-0.4-0.1-0.5-0.1c-0.2-0.1-0.5-0.1-0.7-0.1c-0.2,0-0.4-0.1-0.5-0.1c-0.2,0-0.5-0.1-0.7-0.1c-0.2,0-0.4,0-0.5-0.1 c-0.2,0-0.4,0-0.7-0.1c-0.2,0-0.3,0-0.5,0c-0.2,0-0.4,0-0.6,0c-0.2,0-0.3,0-0.5,0c-0.2,0-0.4,0-0.6,0c-0.1,0-0.3,0-0.4,0 c-0.2,0-0.4,0.1-0.6,0.1c-0.1,0-0.3,0-0.4,0.1c-0.2,0-0.4,0.1-0.6,0.2c-0.1,0-0.2,0.1-0.3,0.1c-0.3,0.1-0.6,0.2-0.8,0.4 c-2.2,1.2-3.4,3.4-3.5,6.7c-0.1,3.3,1,5.9,3.4,7.8c3.5,2.8,9.3,3.8,15.4,3.8c9.4,0,19.4-2.2,22.3-2.9c0.1,0,0.2-0.1,0.3-0.1 c0,0,0,0,0,0c0.1-0.1,0.1-0.1,0.2-0.2c0.2,0.1,0.4,0.3,0.7,0.4c0,0,0.1,0,0.1,0c0.2,0.1,0.4,0.3,0.7,0.4c0.1,0,0.1,0.1,0.2,0.1 c0.6,0.3,1.2,0.7,1.9,1.1c0.1,0,0.2,0.1,0.3,0.1c0.3,0.2,0.6,0.3,1,0.5c0.1,0,0.1,0.1,0.2,0.1c0.4,0.2,0.8,0.5,1.3,0.7 c0.1,0,0.1,0.1,0.2,0.1c0.4,0.2,0.8,0.4,1.2,0.6c0.1,0.1,0.2,0.1,0.3,0.2c1,0.5,2,1.1,3.2,1.7c0.1,0,0.2,0.1,0.3,0.2 c0.5,0.3,1,0.5,1.5,0.8c0.1,0,0.2,0.1,0.3,0.2c0.6,0.3,1.2,0.6,1.9,1c0,0,0.1,0,0.1,0.1c0.6,0.3,1.2,0.6,1.8,0.9 c0.1,0.1,0.3,0.1,0.4,0.2c0.7,0.3,1.3,0.7,2,1c0,0,0,0,0,0c0.7,0.4,1.5,0.7,2.3,1.1c0.1,0.1,0.2,0.1,0.4,0.2c0.7,0.3,1.3,0.6,2,1 c0.1,0.1,0.3,0.1,0.4,0.2c0.8,0.4,1.6,0.8,2.5,1.2C69,56.5,69.4,56.2,69.8,56z M39.8,42.2C39.7,42.2,39.7,42.3,39.8,42.2 c-0.2,0-0.4,0.1-0.7,0.2c0,0-0.1,0-0.1,0c-0.2,0-0.4,0.1-0.6,0.1c-0.1,0-0.2,0-0.3,0.1c-0.2,0-0.4,0.1-0.5,0.1c-0.1,0-0.3,0-0.4,0.1 c-0.2,0-0.3,0.1-0.5,0.1c-0.1,0-0.3,0.1-0.4,0.1c-0.2,0-0.4,0.1-0.5,0.1c-0.2,0-0.3,0.1-0.5,0.1c-0.2,0-0.4,0.1-0.5,0.1 c-0.2,0-0.4,0.1-0.6,0.1c-0.2,0-0.3,0.1-0.5,0.1c-0.2,0-0.5,0.1-0.7,0.1c-0.2,0-0.3,0-0.4,0.1c-0.3,0-0.5,0.1-0.8,0.1 c-0.1,0-0.3,0-0.4,0.1c-0.3,0-0.5,0.1-0.8,0.1c-0.2,0-0.3,0-0.5,0.1c-0.3,0-0.6,0.1-0.9,0.1c-0.1,0-0.3,0-0.4,0 c-0.3,0-0.6,0.1-0.9,0.1c-0.2,0-0.3,0-0.4,0c-0.3,0-0.6,0.1-0.9,0.1c-0.2,0-0.3,0-0.4,0c-0.3,0-0.6,0.1-0.9,0.1c-0.2,0-0.3,0-0.4,0 c-0.3,0-0.7,0-1,0.1c-0.1,0-0.3,0-0.4,0c-0.3,0-0.7,0-1,0.1c-0.1,0-0.2,0-0.4,0c-0.3,0-0.7,0-1,0c-0.1,0-0.2,0-0.4,0 c-0.4,0-0.7,0-1,0c-0.1,0-0.2,0-0.3,0c-0.3,0-0.7,0-1,0c-0.1,0-0.2,0-0.3,0c-0.3,0-0.6,0-1,0c-0.1,0-0.3,0-0.4,0c-0.3,0-0.6,0-1-0.1 c-0.1,0-0.2,0-0.4,0c-0.3,0-0.6,0-0.9-0.1c-0.1,0-0.3,0-0.4,0c-0.3,0-0.6-0.1-0.9-0.1c-0.1,0-0.2,0-0.4,0c-0.3,0-0.6-0.1-0.8-0.1 c-0.1,0-0.3,0-0.4-0.1c-0.3,0-0.5-0.1-0.8-0.2c-0.1,0-0.3-0.1-0.4-0.1c-0.3-0.1-0.5-0.1-0.8-0.2c-0.1,0-0.3-0.1-0.4-0.1 c-0.3-0.1-0.5-0.2-0.7-0.2c-0.1,0-0.2-0.1-0.4-0.1c-0.2-0.1-0.5-0.2-0.7-0.3C7.1,43,7,43,6.9,42.9c-0.2-0.1-0.4-0.2-0.6-0.3 c-0.1-0.1-0.2-0.1-0.3-0.2c-0.2-0.1-0.4-0.2-0.6-0.4C5.2,42,5.1,42,5,41.9c-0.3-0.2-0.5-0.4-0.8-0.6c-2.1-1.7-3.1-4-3-6.9 c0.1-2.8,1-4.7,2.9-5.7C5.2,28.2,6.5,28,8,28c0.3,0,0.6,0,1,0c0.1,0,0.2,0,0.3,0c0.2,0,0.5,0,0.7,0.1c0.1,0,0.3,0,0.4,0.1 c0.2,0,0.4,0.1,0.6,0.1c0.1,0,0.3,0,0.4,0.1c0.2,0,0.4,0.1,0.7,0.1c0.1,0,0.3,0.1,0.4,0.1c0.2,0,0.5,0.1,0.7,0.2 c0.1,0,0.3,0.1,0.4,0.1c0.2,0.1,0.5,0.1,0.7,0.2c0.1,0,0.3,0.1,0.4,0.1c0.3,0.1,0.5,0.2,0.7,0.2c0.1,0,0.3,0.1,0.4,0.1 c0.3,0.1,0.5,0.2,0.8,0.3c0.1,0.1,0.3,0.1,0.4,0.2c0.3,0.1,0.5,0.2,0.8,0.3c0.1,0,0.3,0.1,0.4,0.2c0.3,0.1,0.5,0.2,0.8,0.3 c0.1,0,0.3,0.1,0.4,0.2c0.3,0.1,0.5,0.2,0.8,0.3c0.1,0,0.3,0.1,0.4,0.2c0.3,0.1,0.6,0.2,0.8,0.3c0.1,0.1,0.3,0.1,0.4,0.2 c0.3,0.1,0.5,0.3,0.8,0.4c0.1,0.1,0.3,0.1,0.4,0.2c0.3,0.1,0.6,0.3,0.8,0.4c0.1,0.1,0.3,0.1,0.4,0.2c0.3,0.1,0.6,0.3,0.8,0.4 c0.1,0.1,0.2,0.1,0.4,0.2c0.3,0.1,0.5,0.3,0.8,0.4c0.1,0.1,0.2,0.1,0.4,0.2c0.3,0.1,0.5,0.3,0.8,0.4c0.1,0.1,0.2,0.1,0.4,0.2 c0.3,0.1,0.5,0.3,0.8,0.4c0.1,0.1,0.2,0.1,0.3,0.2c0.3,0.1,0.5,0.3,0.8,0.4c0.1,0.1,0.2,0.1,0.4,0.2c0.3,0.1,0.5,0.3,0.7,0.4 c0.1,0.1,0.2,0.1,0.4,0.2c0.2,0.1,0.5,0.3,0.7,0.4c0.1,0.1,0.3,0.1,0.4,0.2c0.2,0.1,0.4,0.3,0.7,0.4c0.1,0.1,0.3,0.1,0.4,0.2 c0.2,0.1,0.4,0.2,0.6,0.3c0.1,0.1,0.2,0.1,0.4,0.2c0.2,0.1,0.4,0.2,0.6,0.3c0.1,0.1,0.2,0.1,0.3,0.2c0.2,0.1,0.4,0.2,0.5,0.3 c0.1,0.1,0.2,0.2,0.4,0.2c0.2,0.1,0.3,0.2,0.5,0.3c0.1,0.1,0.3,0.1,0.4,0.2c0.1,0.1,0.3,0.2,0.4,0.3s0.3,0.2,0.4,0.2 c0.1,0.1,0.2,0.1,0.3,0.2c0.1,0.1,0.3,0.2,0.4,0.3c0.1,0,0.2,0.1,0.3,0.2c0.1,0.1,0.3,0.2,0.4,0.3c0.1,0,0.1,0.1,0.2,0.1 c0.2,0.1,0.3,0.2,0.4,0.3c0,0,0,0,0.1,0.1c0.2,0.1,0.3,0.2,0.5,0.3l0,0c0,0,0.1,0.1,0.2,0.1C40.2,42.2,40,42.2,39.8,42.2z M41.4,41.2c-2-6-10-31.5-3.8-38.4c1-1.1,2.3-1.7,4-1.7c0.7,0,1.4,0.1,2.3,0.3c2.9,0.6,4.8,2.2,5.9,4.6 C54.2,15.7,44.2,36.1,41.4,41.2z M254.8,98.1c0.1,0.4,0.1,0.9,0.2,1.3c-3,0-5.9-0.1-8.9-0.1c0.1-0.4,0.1-0.9,0.2-1.3 C249,98,251.9,98.1,254.8,98.1z M130.5,69.8c-13.3-5.3-23.5,5.5-26.2,8.7c-1.4-4-7.4-17.6-21.7-17c-7.7,0.3-13.5,5.7-14.8,13.7 c-1.3,7.9,1.1,16.1,7.4,25.2c6.2,9,13.1,17.9,20.5,26.6c0.1,0.1,0.2,0.2,0.4,0.2c0.7,0,2.5-1.1,9.8-5.8l0.7-0.4 c5.1-3.2,10.1-6.6,14.7-9.7c15.7-10.8,21.8-21.6,18.4-32.3C138.2,74.9,135,71.6,130.5,69.8z M120.5,110.3c-4.6,3.2-9.5,6.5-14.6,9.7 c-0.1,0.1-0.3,0.2-0.7,0.4c-5.9,3.8-8.2,5.1-8.9,5.5c-7.3-8.5-14-17.3-20.1-26.2c-6-8.8-8.4-16.7-7.2-24.3 C70.2,68,75.6,63,82.7,62.8c0.3,0,0.5,0,0.8,0c15.1,0,20,17,20.1,17.2l0.3,1.2l0.7-1c0.1-0.2,10.8-15,25.4-9.2 c4.1,1.7,7.1,4.6,8.3,8.4C141.7,89.4,135.7,99.8,120.5,110.3z M227.2,81.1c-13.6-4.5-23.1,6.9-25.6,10.3c-1.7-3.9-8.5-17-22.7-15.6 c-7.7,0.8-13.2,6.5-14,14.6c-0.8,7.9,2.1,16,8.9,24.6c6.7,8.6,14.2,17.1,22.1,25.3c0.1,0.1,0.2,0.2,0.4,0.2c0.6,0,2.3-1.1,9.4-6.4 c0.4-0.3,0.6-0.4,0.7-0.5c4.9-3.5,9.6-7.2,14-10.6c15-11.7,20.5-23,16.3-33.4C235.2,85.6,231.8,82.6,227.2,81.1z M219.7,122 c-4.4,3.5-9.1,7.1-14,10.6c-0.1,0.1-0.3,0.2-0.7,0.5c-5.7,4.2-7.8,5.6-8.5,6c-7.8-8.1-15.1-16.4-21.7-24.9 c-6.6-8.4-9.4-16.2-8.7-23.8c0.7-7.5,5.8-12.8,12.9-13.5c0.7-0.1,1.4-0.1,2-0.1c14.2,0,19.8,15.8,19.9,16l0.4,1.2L202,93 c0.1-0.2,9.9-15.7,24.8-10.8c4.2,1.4,7.4,4.2,8.8,7.8C239.6,99.9,234.2,110.7,219.7,122z M418.3,61.6c-14.3-0.5-20.3,13-21.7,17 c-2.7-3.3-12.9-14-26.2-8.7c-4.5,1.8-7.6,5-9,9.1c-3.5,10.6,2.7,21.5,18.4,32.3c4.6,3.2,9.6,6.5,14.7,9.7l0.7,0.4 c7.3,4.7,9.2,5.8,9.8,5.8c0.2,0,0.3-0.1,0.4-0.2c7.4-8.7,14.3-17.6,20.5-26.6c6.2-9.1,8.7-17.3,7.4-25.2 C431.9,67.2,426,61.9,418.3,61.6z M424.8,99.7c-6.1,8.8-12.9,17.7-20.1,26.2c-0.7-0.4-3-1.7-8.9-5.5l-0.7-0.4 c-5.1-3.2-10-6.6-14.6-9.7c-15.2-10.5-21.2-20.9-17.9-31c1.2-3.8,4.2-6.7,8.3-8.4c2.4-1,4.7-1.4,6.8-1.4c11,0,18.5,10.4,18.6,10.6 l0.7,1l0.3-1.2c0-0.2,5.1-17.8,20.9-17.2c7.1,0.3,12.5,5.3,13.7,12.7C433.2,83,430.9,90.9,424.8,99.7z M322.1,75.8 c-14.2-1.4-21.1,11.7-22.7,15.6c-2.5-3.4-12-14.8-25.6-10.3c-4.6,1.5-8,4.5-9.5,8.5c-4.1,10.4,1.3,21.6,16.3,33.4 c4.4,3.5,9.1,7.1,14,10.6l0.7,0.5c7.1,5.3,8.8,6.4,9.4,6.4c0.2,0,0.3-0.1,0.4-0.2c7.9-8.2,15.3-16.7,22.1-25.3 c6.8-8.6,9.7-16.7,8.9-24.6C335.2,82.3,329.8,76.6,322.1,75.8z M326.2,114.3c-6.6,8.4-13.9,16.8-21.7,24.9c-0.7-0.4-2.9-1.8-8.5-6 c-0.3-0.3-0.6-0.4-0.7-0.5c-4.9-3.5-9.6-7.2-14-10.6c-14.5-11.4-19.9-22.1-16-32c1.5-3.7,4.6-6.4,8.8-7.8 c14.9-4.9,24.7,10.6,24.8,10.8l0.7,1.1l0.4-1.2c0.1-0.2,6.2-17.5,21.9-15.9c7.1,0.7,12.2,6,12.9,13.5 C335.6,98.1,332.8,105.9,326.2,114.3z" style="fill: rgb(0, 0, 0);"/></g></svg>