<svg xmlns="http://www.w3.org/2000/svg" xmlns:xlink="http://www.w3.org/1999/xlink" preserveAspectRatio="xMidYMid meet" version="1.0" viewBox="-0.3 -0.1 472.7 217.4" zoomAndPan="magnify" style="fill: rgb(0, 0, 0);" original_string_length="18946"><g id="__id121_sfv0k9x9vf"><path d="M466.93265,166.4306c-1.25998,0.07399-2.26071,0.15501-3.26306,0.18822 c-14.8609,0.49287-29.72223,0.97002-44.58289,1.46938c-34.21649,1.14967-68.42755,0.92303-102.65125,0.09052 c-23.21063-0.56459-46.43832-0.5025-69.6588-0.57407c-49.2979-0.15192-98.59613-0.17123-147.89398-0.32227 c-19.1469-0.05861-38.29345-0.29712-57.43958-0.50906c-11.81077-0.1308-23.62039-0.36479-35.43042-0.5601 c-0.50086-0.00827-1.00043-0.0939-1.91376-0.18452c0-1.12605-0.02436-2.21872,0.00367-3.30998 c0.40294-15.67834,0.82967-31.35605,1.21336-47.03484c0.16693-6.82143,0.29738-13.64447,0.36011-20.46754 c0.16764-18.23307,0.56156-36.45756,1.92758-54.64705c0.3431-4.56853,0.69857-9.14129,1.25177-13.68737 c0.53417-4.38977,2.08502-8.49305,4.26756-12.33293c1.21034-2.12942,3.19763-3.35772,5.41008-4.27301 c4.28251-1.77173,8.80751-2.56443,13.3655-2.96146c8.31559-0.72433,16.6445-1.40029,24.98239-1.74397 c25.34795-1.04477,50.7141-1.15475,76.07161-0.59502c16.28783,0.35952,32.55756,1.5161,48.8452,1.91176 c13.63773,0.33129,27.29066,0.1771,40.93498,0.0452c8.14493-0.07874,16.28426-0.63554,24.42964-0.7921 c24.54147-0.4717,49.09033-0.64889,73.62549-1.3304c21.39017-0.59411,42.77066-0.44322,64.15939-0.29244 c10.89539,0.0768,21.79349-0.3148,32.69101-0.43499c7.33588-0.0809,14.69492-0.10008,21.91138,1.38807 c3.66483,0.75576,7.2829,1.89747,10.79358,3.20883c7.74313,2.89229,11.78253,8.6954,12.56506,16.85124 c0.74869,7.80358,1.54883,15.60275,2.22775,23.41244c1.59683,18.36682,3.08386,36.75911,3.07498,55.19633 c-0.0097,20.05787-0.6575,40.11543-1.03717,60.17293C467.16245,164.91606,467.03986,165.51768,466.93265,166.4306z M442.51892,28.04517c2.61441,1.10125,3.85922,4.48824,7.45459,4.49684c-0.87546-3.16687-3.59128-4.57781-5.36783-6.92375 c1.00284-1.22761,2.01263-2.35884,2.89951-3.57942c0.85141-1.17182,2.70401-2.06064,1.33609-4.2604 c-3.10135,0.92217-3.81525,4.46086-6.42615,5.74988c-1.63803-1.50664-3.18164-2.98306-4.7912-4.38369 c-0.84857-0.73845-1.76288-2.26248-2.99442-0.94641c-1.1384,1.21663,0.20898,2.24543,1.02228,3.06062 c1.57248,1.57611,3.25894,3.03846,5.15375,4.78338c-1.46164,1.48125-2.8273,2.81543-4.13208,4.20672 c-0.74155,0.79076-1.87167,1.71218-0.68054,2.81446c1.15689,1.07062,2.06519-0.06604,2.81149-0.84221 C440.06931,30.90567,441.23743,29.49708,442.51892,28.04517z M224.72905,171.55296 c-51.00827-0.1394-102.01682-0.21892-153.02463-0.45828c-14.14738-0.06638-28.29179-0.64479-42.43895-0.91635 c-7.93624-0.15237-15.87531-0.16072-23.81322-0.21504c-0.27419-0.00191-0.54979,0.20004-0.83323,0.31029 c-0.06277,0.33076-0.18542,0.62897-0.16324,0.91594c0.1646,2.13031,0.34948,4.25917,0.54376,6.38707 c1.04548,11.45001,7.04882,19.56409,17.13411,24.61012c3.78409,1.8933,7.89959,3.3587,12.02869,4.28502 c13.6299,3.05757,27.49331,4.85648,41.42435,5.41336c22.98638,0.91882,45.99533,1.6642,68.9966,1.71858 c27.7901,0.06575,55.58211-0.66341,83.37321-1.05827c0.58226-0.00824,1.16284-0.1346,2.12737-0.25282 c-0.49974-13.53128-0.99396-26.91255-1.50467-40.7392C226.94846,171.55338,225.83873,171.55603,224.72905,171.55296z M237.39038,212.59171c10.58922,0.01376,21.17963,0.13565,31.7674,0.01857c18.93637-0.2094,37.87585-0.38699,56.80548-0.89658 c29.20874-0.7863,58.41147-1.80682,87.61435-2.80022c10.677-0.36314,21.35944-0.60367,31.95432-2.3343 c9.62515-1.57222,15.58807-7.08177,18.09592-16.29008c1.14365-4.19925,1.67117-8.57347,2.35526-12.88783 c0.35791-2.25768,0.45007-4.55751,0.67532-6.97887c-1.02954-0.05118-1.62424-0.12032-2.21667-0.10416 c-7.83679,0.21355-15.67389,0.42162-23.5098,0.66512c-18.8237,0.58492-37.6431,1.40192-56.4711,1.73061 c-24.74017,0.4319-49.47348-0.29094-74.21149-0.82541c-25.23926-0.54536-50.49686-0.24719-75.74644-0.30107 c-0.66815-0.00142-1.3367,0.1965-2.00168,0.30096c0.48007,13.50975,0.95317,26.82353,1.44643,40.70311 C235.20639,212.59155,236.29839,212.59029,237.39038,212.59171z M236.68295,2.19973 c25.15341-0.37065,50.31363-0.49312,75.45837-1.18003c26.48053-0.72338,52.95648-0.49978,79.43631-0.5252 c9.57205-0.00918,19.14319-0.4108,28.71591-0.48888c7.13379-0.0582,14.25406,0.3235,21.27811,1.72209 c5.02393,1.00037,9.80203,2.67217,14.27295,5.21511c5.36221,3.04989,8.77951,7.59104,10.02206,13.5737 c0.84616,4.07373,1.35519,8.23646,1.73453,12.38503c2.19833,24.03596,4.21204,48.08573,4.49939,72.24179 c0.24594,20.68087-0.134,41.35096-1.37851,61.99508c-0.44687,7.41277-1.19736,14.81833-2.97934,22.06857 c-0.98135,3.9929-2.4874,7.7386-4.93527,11.08318c-3.58429,4.89735-8.28738,8.22548-14.25592,9.23114 c-6.41125,1.08025-12.88754,1.98216-19.37112,2.37827c-10.46689,0.63939-20.9621,0.82753-31.44681,1.15834 c-16.38898,0.51707-32.79153,0.74107-49.16647,1.53889c-38.47403,1.87462-76.96957,1.72993-115.46864,1.80638 c-17.20935,0.03416-34.41667,0.70131-51.6268,0.83125c-19.04321,0.14378-38.08942,0.10622-57.13264-0.05197 c-13.1366-0.10909-26.274-0.44785-39.40453-0.88084c-17.63226-0.58144-35.13084-2.46407-52.41752-6.07445 c-4.91284-1.02608-9.60726-2.76991-13.97187-5.2178C7.93535,199.05893,1.97937,190.04944,0.7508,177.83952 c-1.09536-10.88623-0.73625-21.77843-0.50015-32.66634c0.34222-15.78098,0.96467-31.55569,1.40384-47.33484 c0.31736-11.40242,0.45889-22.80995,0.81014-34.2111c0.39526-12.82986,1.11293-25.6485,3.28359-38.31924 c0.61336-3.58037,1.77984-7.09839,3.00692-10.5327c1.40979-3.94565,4.36537-6.53793,8.21951-8.13614 c5.62603-2.33301,11.58183-3.16109,17.56782-3.65428c26.61986-2.19323,53.30451-2.64121,79.98858-2.22918 c20.36176,0.31439,40.71675,1.20842,61.06807,2.01318c18.23088,0.7209,36.45171,0.70816,54.67593-0.07814 c2.13684-0.09221,4.27335-0.19131,6.41-0.28721C236.68433,2.3356,236.68362,2.26766,236.68295,2.19973z M466.93265,166.4306 c0.10721-0.91292,0.2298-1.51454,0.24121-2.11823c0.37967-20.0575,1.02747-40.11506,1.03717-60.17293 c0.00888-18.43722-1.47815-36.82951-3.07498-55.19633c-0.67892-7.80968-1.47906-15.60886-2.22775-23.41244 c-0.78253-8.15584-4.82193-13.95896-12.56506-16.85124c-3.51068-1.31135-7.12875-2.45306-10.79358-3.20883 c-7.21646-1.48815-14.5755-1.46898-21.91138-1.38807c-10.89752,0.12019-21.79562,0.51179-32.69101,0.43499 c-21.38873-0.15078-42.76923-0.30167-64.15939,0.29244c-24.53516,0.6815-49.08401,0.8587-73.62549,1.3304 c-8.14539,0.15656-16.28471,0.71336-24.42964,0.7921c-13.64432,0.1319-27.29726,0.2861-40.93498-0.0452 c-16.28764-0.39567-32.55737-1.55225-48.8452-1.91176C107.59505,4.41577,82.2289,4.52576,56.88095,5.57052 C48.54307,5.9142,40.21416,6.59017,31.89856,7.3145c-4.55799,0.39703-9.08299,1.18973-13.3655,2.96146 c-2.21244,0.91529-4.19974,2.14359-5.41008,4.27301c-2.18254,3.83989-3.73339,7.94317-4.26756,12.33293 c-0.5532,4.54609-0.90867,9.11885-1.25177,13.68737c-1.36602,18.1895-1.75994,36.41398-1.92758,54.64705 c-0.06273,6.82307-0.19318,13.64611-0.36011,20.46754c-0.38369,15.67879-0.81042,31.35649-1.21336,47.03484 c-0.02804,1.09126-0.00367,2.18393-0.00367,3.30998c0.91333,0.09062,1.4129,0.17625,1.91376,0.18452 c11.81003,0.19531,23.61964,0.42931,35.43042,0.5601c19.14612,0.21194,38.29267,0.45045,57.43958,0.50906 c49.29786,0.15103,98.59609,0.17035,147.89398,0.32227c23.22047,0.07156,46.44817,0.00948,69.6588,0.57407 c34.22369,0.83252,68.43475,1.05916,102.65125-0.09052c14.86066-0.49936,29.72198-0.9765,44.58289-1.46938 C464.67194,166.58562,465.67267,166.50459,466.93265,166.4306z M228.57921,171.55338c-1.63075,0-2.74048,0.00266-3.85016-0.00041 c-51.00827-0.1394-102.01682-0.21892-153.02463-0.45828c-14.14738-0.06638-28.29179-0.64479-42.43895-0.91635 c-7.93624-0.15237-15.87531-0.16072-23.81322-0.21504c-0.27419-0.00191-0.54979,0.20004-0.83323,0.31029 c-0.06277,0.33076-0.18542,0.62897-0.16324,0.91594c0.1646,2.13031,0.34948,4.25917,0.54376,6.38707 c1.04548,11.45001,7.04882,19.56409,17.13411,24.61012c3.78409,1.8933,7.89959,3.3587,12.02869,4.28502 c13.6299,3.05757,27.49331,4.85648,41.42435,5.41336c22.98638,0.91882,45.99533,1.6642,68.9966,1.71858 c27.7901,0.06575,55.58211-0.66341,83.37321-1.05827c0.58226-0.00824,1.16284-0.1346,2.12737-0.25282 C229.58414,198.76129,229.08992,185.38002,228.57921,171.55338z M233.94766,212.59155c1.25873,0,2.35072-0.00127,3.44272,0.00015 c10.58922,0.01376,21.17963,0.13565,31.7674,0.01857c18.93637-0.2094,37.87585-0.38699,56.80548-0.89658 c29.20874-0.7863,58.41147-1.80682,87.61435-2.80022c10.677-0.36314,21.35944-0.60367,31.95432-2.3343 c9.62515-1.57222,15.58807-7.08177,18.09592-16.29008c1.14365-4.19925,1.67117-8.57347,2.35526-12.88783 c0.35791-2.25768,0.45007-4.55751,0.67532-6.97887c-1.02954-0.05118-1.62424-0.12032-2.21667-0.10416 c-7.83679,0.21355-15.67389,0.42162-23.5098,0.66512c-18.8237,0.58492-37.6431,1.40192-56.4711,1.73061 c-24.74017,0.4319-49.47348-0.29094-74.21149-0.82541c-25.23926-0.54536-50.49686-0.24719-75.74644-0.30107 c-0.66815-0.00142-1.3367,0.1965-2.00168,0.30096C232.98131,185.39819,233.45441,198.71198,233.94766,212.59155z M449.97351,32.54201c-0.87546-3.16687-3.59128-4.57781-5.36783-6.92375c1.00284-1.22761,2.01263-2.35884,2.89951-3.57942 c0.85141-1.17182,2.70401-2.06064,1.33609-4.2604c-3.10135,0.92217-3.81525,4.46086-6.42615,5.74988 c-1.63803-1.50664-3.18164-2.98306-4.7912-4.38369c-0.84857-0.73845-1.76288-2.26248-2.99442-0.94641 c-1.1384,1.21663,0.20898,2.24543,1.02228,3.06062c1.57248,1.57611,3.25894,3.03846,5.15375,4.78338 c-1.46164,1.48125-2.8273,2.81543-4.13208,4.20672c-0.74155,0.79076-1.87167,1.71218-0.68054,2.81446 c1.15689,1.07062,2.06519-0.06604,2.81149-0.84221c1.26489-1.31553,2.43301-2.72412,3.71451-4.17603 C445.13333,29.14643,446.37814,32.53341,449.97351,32.54201z" style="fill: rgb(51, 50, 49);"/></g><g id="__id122_sfv0k9x9vf"><path d="M466.93265,166.4306c-1.25998,0.07399-2.26071,0.15501-3.26306,0.18822 c-14.8609,0.49287-29.72223,0.97002-44.58289,1.46938c-34.21649,1.14967-68.42755,0.92303-102.65125,0.09052 c-23.21063-0.56459-46.43832-0.5025-69.6588-0.57407c-49.2979-0.15192-98.59613-0.17123-147.89398-0.32227 c-19.1469-0.05861-38.29345-0.29712-57.43958-0.50906c-11.81077-0.1308-23.62039-0.36479-35.43042-0.5601 c-0.50086-0.00827-1.00043-0.0939-1.91376-0.18452c0-1.12605-0.02436-2.21872,0.00367-3.30998 c0.40294-15.67834,0.82967-31.35605,1.21336-47.03484c0.16693-6.82143,0.29738-13.64447,0.36011-20.46754 c0.16764-18.23307,0.56156-36.45756,1.92758-54.64705c0.3431-4.56853,0.69857-9.14129,1.25177-13.68737 c0.53417-4.38977,2.08502-8.49305,4.26756-12.33293c1.21034-2.12942,3.19763-3.35772,5.41008-4.27301 c4.28251-1.77173,8.80751-2.56443,13.3655-2.96146c8.31559-0.72433,16.6445-1.40029,24.98239-1.74397 c25.34795-1.04477,50.7141-1.15475,76.07161-0.59502c16.28783,0.35952,32.55756,1.5161,48.8452,1.91176 c13.63773,0.33129,27.29066,0.1771,40.93498,0.0452c8.14493-0.07874,16.28426-0.63554,24.42964-0.7921 c24.54147-0.4717,49.09033-0.64889,73.62549-1.3304c21.39017-0.59411,42.77066-0.44322,64.15939-0.29244 c10.89539,0.0768,21.79349-0.3148,32.69101-0.43499c7.33588-0.0809,14.69492-0.10008,21.91138,1.38807 c3.66483,0.75576,7.2829,1.89747,10.79358,3.20883c7.74313,2.89229,11.78253,8.6954,12.56506,16.85124 c0.74869,7.80358,1.54883,15.60275,2.22775,23.41244c1.59683,18.36682,3.08386,36.75911,3.07498,55.19633 c-0.0097,20.05787-0.6575,40.11543-1.03717,60.17293C467.16245,164.91606,467.03986,165.51768,466.93265,166.4306z M442.51892,28.04517c2.61441,1.10125,3.85922,4.48824,7.45459,4.49684c-0.87546-3.16687-3.59128-4.57781-5.36783-6.92375 c1.00284-1.22761,2.01263-2.35884,2.89951-3.57942c0.85141-1.17182,2.70401-2.06064,1.33609-4.2604 c-3.10135,0.92217-3.81525,4.46086-6.42615,5.74988c-1.63803-1.50664-3.18164-2.98306-4.7912-4.38369 c-0.84857-0.73845-1.76288-2.26248-2.99442-0.94641c-1.1384,1.21663,0.20898,2.24543,1.02228,3.06062 c1.57248,1.57611,3.25894,3.03846,5.15375,4.78338c-1.46164,1.48125-2.8273,2.81543-4.13208,4.20672 c-0.74155,0.79076-1.87167,1.71218-0.68054,2.81446c1.15689,1.07062,2.06519-0.06604,2.81149-0.84221 C440.06931,30.90567,441.23743,29.49708,442.51892,28.04517z M224.72905,171.55296 c-51.00827-0.1394-102.01682-0.21892-153.02463-0.45828c-14.14738-0.06638-28.29179-0.64479-42.43895-0.91635 c-7.93624-0.15237-15.87531-0.16072-23.81322-0.21504c-0.27419-0.00191-0.54979,0.20004-0.83323,0.31029 c-0.06277,0.33076-0.18542,0.62897-0.16324,0.91594c0.1646,2.13031,0.34948,4.25917,0.54376,6.38707 c1.04548,11.45001,7.04882,19.56409,17.13411,24.61012c3.78409,1.8933,7.89959,3.3587,12.02869,4.28502 c13.6299,3.05757,27.49331,4.85648,41.42435,5.41336c22.98638,0.91882,45.99533,1.6642,68.9966,1.71858 c27.7901,0.06575,55.58211-0.66341,83.37321-1.05827c0.58226-0.00824,1.16284-0.1346,2.12737-0.25282 c-0.49974-13.53128-0.99396-26.91255-1.50467-40.7392C226.94846,171.55338,225.83873,171.55603,224.72905,171.55296z M237.39038,212.59171c10.58922,0.01376,21.17963,0.13565,31.7674,0.01857c18.93637-0.2094,37.87585-0.38699,56.80548-0.89658 c29.20874-0.7863,58.41147-1.80682,87.61435-2.80022c10.677-0.36314,21.35944-0.60367,31.95432-2.3343 c9.62515-1.57222,15.58807-7.08177,18.09592-16.29008c1.14365-4.19925,1.67117-8.57347,2.35526-12.88783 c0.35791-2.25768,0.45007-4.55751,0.67532-6.97887c-1.02954-0.05118-1.62424-0.12032-2.21667-0.10416 c-7.83679,0.21355-15.67389,0.42162-23.5098,0.66512c-18.8237,0.58492-37.6431,1.40192-56.4711,1.73061 c-24.74017,0.4319-49.47348-0.29094-74.21149-0.82541c-25.23926-0.54536-50.49686-0.24719-75.74644-0.30107 c-0.66815-0.00142-1.3367,0.1965-2.00168,0.30096c0.48007,13.50975,0.95317,26.82353,1.44643,40.70311 C235.20639,212.59155,236.29839,212.59029,237.39038,212.59171z" style="fill: rgb(255, 255, 255);"/></g><g id="__id123_sfv0k9x9vf"><path d="M236.68295,2.19973c25.15341-0.37065,50.31363-0.49312,75.45837-1.18003 c26.48053-0.72338,52.95648-0.49978,79.43631-0.5252c9.57205-0.00918,19.14319-0.4108,28.71591-0.48888 c7.13379-0.0582,14.25406,0.3235,21.27811,1.72209c5.02393,1.00037,9.80203,2.67217,14.27295,5.21511 c5.36221,3.04989,8.77951,7.59104,10.02206,13.5737c0.84616,4.07373,1.35519,8.23646,1.73453,12.38503 c2.19833,24.03596,4.21204,48.08573,4.49939,72.24179c0.24594,20.68087-0.134,41.35096-1.37851,61.99508 c-0.44687,7.41277-1.19736,14.81833-2.97934,22.06857c-0.98135,3.9929-2.4874,7.7386-4.93527,11.08318 c-3.58429,4.89735-8.28738,8.22548-14.25592,9.23114c-6.41125,1.08025-12.88754,1.98216-19.37112,2.37827 c-10.46689,0.63939-20.9621,0.82753-31.44681,1.15834c-16.38898,0.51707-32.79153,0.74107-49.16647,1.53889 c-38.47403,1.87462-76.96957,1.72993-115.46864,1.80638c-17.20935,0.03416-34.41667,0.70131-51.6268,0.83125 c-19.04321,0.14378-38.08942,0.10622-57.13264-0.05197c-13.1366-0.10909-26.274-0.44785-39.40453-0.88084 c-17.63226-0.58144-35.13084-2.46407-52.41752-6.07445c-4.91284-1.02608-9.60726-2.76991-13.97187-5.2178 C7.93535,199.05893,1.97937,190.04944,0.7508,177.83952c-1.09536-10.88623-0.73625-21.77843-0.50015-32.66634 c0.34222-15.78098,0.96467-31.55569,1.40384-47.33484c0.31736-11.40242,0.45889-22.80995,0.81014-34.2111 c0.39526-12.82986,1.11293-25.6485,3.28359-38.31924c0.61336-3.58037,1.77984-7.09839,3.00692-10.5327 c1.40979-3.94565,4.36537-6.53793,8.21951-8.13614c5.62603-2.33301,11.58183-3.16109,17.56782-3.65428 c26.61986-2.19323,53.30451-2.64121,79.98858-2.22918c20.36176,0.31439,40.71675,1.20842,61.06807,2.01318 c18.23088,0.7209,36.45171,0.70816,54.67593-0.07814c2.13684-0.09221,4.27335-0.19131,6.41-0.28721 C236.68433,2.3356,236.68362,2.26766,236.68295,2.19973z M466.93265,166.4306c0.10721-0.91292,0.2298-1.51454,0.24121-2.11823 c0.37967-20.0575,1.02747-40.11506,1.03717-60.17293c0.00888-18.43722-1.47815-36.82951-3.07498-55.19633 c-0.67892-7.80968-1.47906-15.60886-2.22775-23.41244c-0.78253-8.15584-4.82193-13.95896-12.56506-16.85124 c-3.51068-1.31135-7.12875-2.45306-10.79358-3.20883c-7.21646-1.48815-14.5755-1.46898-21.91138-1.38807 c-10.89752,0.12019-21.79562,0.51179-32.69101,0.43499c-21.38873-0.15078-42.76923-0.30167-64.15939,0.29244 c-24.53516,0.6815-49.08401,0.8587-73.62549,1.3304c-8.14539,0.15656-16.28471,0.71336-24.42964,0.7921 c-13.64432,0.1319-27.29726,0.2861-40.93498-0.0452c-16.28764-0.39567-32.55737-1.55225-48.8452-1.91176 C107.59505,4.41577,82.2289,4.52576,56.88095,5.57052C48.54307,5.9142,40.21416,6.59017,31.89856,7.3145 c-4.55799,0.39703-9.08299,1.18973-13.3655,2.96146c-2.21244,0.91529-4.19974,2.14359-5.41008,4.27301 c-2.18254,3.83989-3.73339,7.94317-4.26756,12.33293c-0.5532,4.54609-0.90867,9.11885-1.25177,13.68737 c-1.36602,18.1895-1.75994,36.41398-1.92758,54.64705c-0.06273,6.82307-0.19318,13.64611-0.36011,20.46754 c-0.38369,15.67879-0.81042,31.35649-1.21336,47.03484c-0.02804,1.09126-0.00367,2.18393-0.00367,3.30998 c0.91333,0.09062,1.4129,0.17625,1.91376,0.18452c11.81003,0.19531,23.61964,0.42931,35.43042,0.5601 c19.14612,0.21194,38.29267,0.45045,57.43958,0.50906c49.29786,0.15103,98.59609,0.17035,147.89398,0.32227 c23.22047,0.07156,46.44817,0.00948,69.6588,0.57407c34.22369,0.83252,68.43475,1.05916,102.65125-0.09052 c14.86066-0.49936,29.72198-0.9765,44.58289-1.46938C464.67194,166.58562,465.67267,166.50459,466.93265,166.4306z M228.57921,171.55338c-1.63075,0-2.74048,0.00266-3.85016-0.00041c-51.00827-0.1394-102.01682-0.21892-153.02463-0.45828 c-14.14738-0.06638-28.29179-0.64479-42.43895-0.91635c-7.93624-0.15237-15.87531-0.16072-23.81322-0.21504 c-0.27419-0.00191-0.54979,0.20004-0.83323,0.31029c-0.06277,0.33076-0.18542,0.62897-0.16324,0.91594 c0.1646,2.13031,0.34948,4.25917,0.54376,6.38707c1.04548,11.45001,7.04882,19.56409,17.13411,24.61012 c3.78409,1.8933,7.89959,3.3587,12.02869,4.28502c13.6299,3.05757,27.49331,4.85648,41.42435,5.41336 c22.98638,0.91882,45.99533,1.6642,68.9966,1.71858c27.7901,0.06575,55.58211-0.66341,83.37321-1.05827 c0.58226-0.00824,1.16284-0.1346,2.12737-0.25282C229.58414,198.76129,229.08992,185.38002,228.57921,171.55338z M233.94766,212.59155c1.25873,0,2.35072-0.00127,3.44272,0.00015c10.58922,0.01376,21.17963,0.13565,31.7674,0.01857 c18.93637-0.2094,37.87585-0.38699,56.80548-0.89658c29.20874-0.7863,58.41147-1.80682,87.61435-2.80022 c10.677-0.36314,21.35944-0.60367,31.95432-2.3343c9.62515-1.57222,15.58807-7.08177,18.09592-16.29008 c1.14365-4.19925,1.67117-8.57347,2.35526-12.88783c0.35791-2.25768,0.45007-4.55751,0.67532-6.97887 c-1.02954-0.05118-1.62424-0.12032-2.21667-0.10416c-7.83679,0.21355-15.67389,0.42162-23.5098,0.66512 c-18.8237,0.58492-37.6431,1.40192-56.4711,1.73061c-24.74017,0.4319-49.47348-0.29094-74.21149-0.82541 c-25.23926-0.54536-50.49686-0.24719-75.74644-0.30107c-0.66815-0.00142-1.3367,0.1965-2.00168,0.30096 C232.98131,185.39819,233.45441,198.71198,233.94766,212.59155z M449.97351,32.54201 c-0.87546-3.16687-3.59128-4.57781-5.36783-6.92375c1.00284-1.22761,2.01263-2.35884,2.89951-3.57942 c0.85141-1.17182,2.70401-2.06064,1.33609-4.2604c-3.10135,0.92217-3.81525,4.46086-6.42615,5.74988 c-1.63803-1.50664-3.18164-2.98306-4.7912-4.38369c-0.84857-0.73845-1.76288-2.26248-2.99442-0.94641 c-1.1384,1.21663,0.20898,2.24543,1.02228,3.06062c1.57248,1.57611,3.25894,3.03846,5.15375,4.78338 c-1.46164,1.48125-2.8273,2.81543-4.13208,4.20672c-0.74155,0.79076-1.87167,1.71218-0.68054,2.81446 c1.15689,1.07062,2.06519-0.06604,2.81149-0.84221c1.26489-1.31553,2.43301-2.72412,3.71451-4.17603 C445.13333,29.14643,446.37814,32.53341,449.97351,32.54201z" style="fill: rgb(51, 50, 49);"/></g></svg>