<svg class="svg-icon" style="width: 1em; height: 1em;vertical-align: middle;fill: #fff;overflow: hidden;" viewBox="0 0 1024 1024" version="1.1" xmlns="http://www.w3.org/2000/svg"><path d="M512 550m-115 0a115 115 0 1 0 230 0 115 115 0 1 0-230 0Z"  /><path d="M835 320H726c-9.2 0-17.8-4-24-10.8-56.8-63.6-78.2-85.2-101.4-85.2h-171c-23.4 0-46.4 21.6-103.4 85.4-6 6.8-14.8 10.6-23.8 10.6h-8.2v-16c0-8.8-7.2-16-16-16h-52c-8.8 0-16 7.2-16 16v16h-15C159.8 320 128 346.4 128 381.4v352c0 35 31.8 66.6 67 66.6h640c35.2 0 61-31.6 61-66.6v-352c0-35-25.8-61.4-61-61.4zM520 720.8c-100.6 4.6-183.4-78.2-178.8-178.8 4-87.8 75-158.8 162.8-162.8 100.6-4.6 183.4 78.2 178.8 178.8-4 87.8-75 158.8-162.8 162.8zM704 436c-14.4 0-26-11.6-26-26s11.6-26 26-26 26 11.6 26 26-11.6 26-26 26z"  /></svg>