<svg class="svg-icon" style="width: 1em; height: 1em;vertical-align: middle;fill: #fff;overflow: hidden;" viewBox="0 0 1024 1024" version="1.1" xmlns="http://www.w3.org/2000/svg"><path d="M762.4 128.2c-2.6-0.2-5.2-0.2-7.8-0.2h-0.4c-32.4 0-64 10.8-89.2 30.2-3.2 2.6-5.2 6.4-5.4 10.4-0.2 4 1.6 8 4.6 10.8l179.6 161c2.6 2.2 5.8 3.6 9.2 3.6h0.8c3.8-0.2 7.2-2 9.6-4.8C881.8 318 896 301.6 896 266c0.2-72.8-58.2-133.6-133.6-137.8zM128 266c0 35.6 14.2 52 32.6 73.2 2.4 2.8 5.8 4.6 9.6 4.8h0.8c3.4 0 6.6-1.2 9.2-3.6L360 179.4c3-2.8 4.8-6.6 4.6-10.8-0.2-4-2-7.8-5.4-10.4C334 138.8 302.4 128 270 128h-0.4c-2.6 0-5.2 0-7.8 0.2-75.4 4.2-134 65-133.8 137.8z"  /><path d="M780 772c52.4-61.4 84-141 84-228 0-194.4-157.6-352-352-352S160 349.6 160 544c0 87 31.6 166.6 84 228l-69.4 71c-12.4 12.6-12 31 0.6 43.2 6.2 6 14.8 9.6 22.8 9.6 8.4 0 16.2-3.8 22.4-10.2l69.2-69c60.6 49.4 138 79.2 222.4 79.2s161.8-29.6 222.4-79.2l67.2 69c6.2 6.4 14.6 10.2 23 10.2 8 0 16.2-3.6 22.4-9.6 12.6-12.4 15-30.6 2.6-43.2L780 772zM540 548c0 15.4-12.6 28-28 28h-164c-15.4 0-28-12.6-28-28s12.6-28 28-28h136V316c0-15.4 12.6-28 28-28s28 12.6 28 28v232z"  /></svg>