<svg class="svg-icon" style="width: 1em; height: 1em;vertical-align: middle;fill: #fff;overflow: hidden;" viewBox="0 0 1024 1024" version="1.1" xmlns="http://www.w3.org/2000/svg"><path d="M634 64H390c-35.2 0-48 28.8-48 64h340c0-35.2-12.8-64-48-64zM392.2 295c15.2 17.6 23.8 40 23.8 63.4v531.8c0 43.8 35.8 69.8 79.8 69.8h32.6c43.8 0 79.8-25.8 79.8-69.8V358.4c0-23.4 8.6-45.6 23.8-63.4 30.8-35.8 50-69 50-135H342c0 70 19.2 99.2 50.2 135z m63.8 181.6c0-31.2 25.2-56.6 56-56.6s56 25.4 56 56.6v70.8c0 31.2-25.2 56.6-56 56.6s-56-25.4-56-56.6v-70.8z"  /><path d="M512 546m-40 0a40 40 0 1 0 80 0 40 40 0 1 0-80 0Z"  /></svg>