<svg class="svg-icon" style="width: 1em; height: 1em;vertical-align: middle;fill: currentColor;overflow: hidden;" viewBox="0 0 1024 1024" version="1.1" xmlns="http://www.w3.org/2000/svg"><path d="M926 384H631.8L542.4 117.2C538 104.2 525.8 96 512 96s-26 8.2-30.4 21.2L392.2 384H96c-17.6 0-32 14.4-32 32 0 1.8 0.2 3.8 0.6 5.4 0.4 7 3.6 14.8 13.4 22.6l241.8 170.4-92.8 269.8c-4.6 13 0 27.6 11 36 5.8 4.2 11.2 7.8 18 7.8 6.6 0 14.4-3.4 20-7.2l236-168.2 236 168.2c5.6 4 13.4 7.2 20 7.2 6.8 0 12.2-3.4 17.8-7.8 11.2-8.4 15.6-22.8 11-36L704 614.4l239.8-172 5.8-5c5.2-5.6 10.4-13.2 10.4-21.4 0-17.6-16.4-32-34-32z"  /></svg>