<svg class="svg-icon" style="width: 1em; height: 1em;vertical-align: middle;fill: #fff;overflow: hidden;" viewBox="0 0 1024 1024" version="1.1" xmlns="http://www.w3.org/2000/svg"><path d="M910.850987 479.290017c0-178.985464-177.805592-324.082096-397.143089-324.082096-219.33852 0-397.148206 145.096632-397.148206 324.082096 0 164.069753 149.445684 299.570843 343.293647 321.033667 0 0 2.666736 0.277316 3.333932 0.346901 8.16496 1.035586 28.169573 6.235005 23.409153 32.431643-5.948479 32.707936-17.841344 51.538817-17.841344 51.538817s-10.116405 15.808034 2.453888 29.006637c12.226462 12.837376 35.20992 0.728594 35.20992 0.728594s189.30039-93.166913 322.273914-237.713007l-0.073678-0.00921C880.144638 621.993137 910.850987 553.583071 910.850987 479.290017L910.850987 479.290017zM354.571505 578.319451l-78.513168 0c-11.164271 0-20.222577-9.054213-20.222577-20.222577L255.835759 400.603911c0-11.168364 9.058306-20.225647 20.222577-20.225647 11.169387 0 20.222577 9.057283 20.222577 20.225647l0 137.270387 58.290591 0c11.168364 0 20.221554 9.05319 20.221554 20.222577C374.793058 569.266261 365.739868 578.319451 354.571505 578.319451L354.571505 578.319451zM434.862155 558.097898c0 11.168364-9.054213 20.222577-20.222577 20.222577-11.165294 0-20.222577-9.054213-20.222577-20.222577L394.417001 400.603911c0-11.168364 9.057283-20.225647 20.222577-20.225647 11.168364 0 20.222577 9.057283 20.222577 20.225647L434.862155 558.097898 434.862155 558.097898zM624.000863 558.097898c0 11.168364-9.057283 20.222577-20.222577 20.222577-8.731872 0-14.009062-4.701069-17.065677-9.361205l-79.882352-108.87978 0 98.019431c0 11.168364-9.05319 20.222577-20.221554 20.222577-11.169387 0-20.222577-9.054213-20.222577-20.222577L466.386126 400.603911c0-11.168364 9.05319-20.225647 20.222577-20.225647 10.344602 0 15.881712 7.812943 15.881712 7.812943l81.066317 112.331391 0-99.918687c0-11.168364 9.054213-20.225647 20.222577-20.225647 11.165294 0 20.222577 9.057283 20.222577 20.225647L624.001887 558.097898 624.000863 558.097898zM751.277642 460.078467c11.168364 0 20.222577 9.054213 20.222577 20.222577 0 11.169387-9.054213 20.222577-20.222577 20.222577l-58.880015 0 0 37.352723 58.880015 0c11.168364 0 20.222577 9.05319 20.222577 20.222577 0 11.168364-9.054213 20.222577-20.222577 20.222577l-79.102592 0c-11.168364 0-20.222577-9.054213-20.222577-20.222577L651.952472 400.603911c0-11.168364 9.054213-20.225647 20.222577-20.225647l79.102592 0c11.168364 0 20.222577 9.057283 20.222577 20.225647 0 11.165294-9.054213 20.222577-20.222577 20.222577l-58.880015 0 0 39.250956C692.397626 460.078467 751.072981 460.078467 751.277642 460.078467L751.277642 460.078467zM751.277642 460.078467"  /></svg>