<svg class="svg-icon" style="width: 1em;height: 1em;vertical-align: middle;fill: #fff;overflow: hidden;" viewBox="0 0 1024 1024" version="1.1" xmlns="http://www.w3.org/2000/svg"><path d="M582.047135 356.324324H441.980541c-17.21427 0-31.135135 13.920865-31.135136 31.135135v529.297298c0 17.21427 13.920865 31.135135 31.135136 31.135135h140.09427c17.241946 0 31.135135-13.920865 31.135135-31.135135V387.459459c0-17.21427-13.893189-31.135135-31.135135-31.135135zM881.747027 76.108108h-140.09427c-17.21427 0-31.135135 13.920865-31.135135 31.135135v809.513514c0 17.21427 13.920865 31.135135 31.135135 31.135135h140.09427c17.241946 0 31.135135-13.920865 31.135135-31.135135V107.243243c0-17.21427-13.893189-31.135135-31.135135-31.135135zM282.374919 636.540541H142.280649c-17.241946 0-31.135135 13.920865-31.135135 31.135135v249.081081c0 17.21427 13.893189 31.135135 31.135135 31.135135h140.09427c17.21427 0 31.135135-13.920865 31.135135-31.135135v-249.081081c0-17.21427-13.920865-31.135135-31.135135-31.135135z"  /></svg>