<svg style="max-height: 500px" zoomAndPan="magnify" viewBox="-0.8407930199999987 -1.6129534881516585 50.6748 85.88625592417063" version="1.0" preserveAspectRatio="xMidYMid meet" xmlns:xlink="http://www.w3.org/1999/xlink" xmlns="http://www.w3.org/2000/svg" width="50.6748" height="85.88625592417063"><g id="__id277_sfv0k9x9vf"><path style="fill: rgb(255, 22, 22);" d="M44.8668,1.8711c4.0435,1.4261,2.8696,9.5304-1.4348,22.313s-9.0916,20.6582-13.4771,21 S-8.0897,8.5319,2.9972,2.8698s26.9577,14.5969,26.9577,14.5969C32.1299,10.2276,40.8233,0.445,44.8668,1.8711z M100.6929,17.1406 l-7.0435-5.6087c0,0-5.4783-7.0435-8.3478-6.7826s-8.2174,0.3913-8.3478,9.6522c-0.1304,9.2609,16.4348,29.8743,24.6522,30.785 c5.3478-2.7415,13.8261-19.8442,14.8696-21.7276s11.7078-15.7664,0-18.7166C109.5624,3.0003,100.6929,17.1406,100.6929,17.1406z M177.2581,18.1841c0,0-5.7391-10.6158-17.3478-13.721c-11.6087-3.1051-9.7826,15.4166-3.3913,22.5905 c6.3913,7.1739,19.4348,18.2609,21.913,17.4783s16.6956-14.8696,19.3044-23.4783c2.6087-8.6087,1.0435-12.7826-4.4348-14.2174 S177.2581,18.1841,177.2581,18.1841z"/></g><g id="__id278_sfv0k9x9vf"><path style="fill: rgb(252, 212, 212);" d="M31.1252,68.9232c-2.1935-0.4471-6.5793,1.3168-6.6288,6.0652c-0.0667,6.3913,5.403,10.663,9.1204,4.5978 C37.3342,73.5211,33.525,69.4124,31.1252,68.9232z M99.0842,71.6624c-2.6957-0.3913-6.6087,2.8696-5.8261,7.0435 s6.1826,5.0399,8.4783,3.4497c2.2956-1.5902,3.5217-6.841,1.3043-8.2758S99.0842,71.6624,99.0842,71.6624z M179.2146,70.4885 c-1.8222-0.1763-6.3913,3.772-5.8696,6.7773c0.5217,3.0053,7.1739,6.1358,8.6087,1.701S183.2581,70.8798,179.2146,70.4885z"/></g><g id="__id279_sfv0k9x9vf"><path style="fill: inherit;" d="M41.7867,0.9627c-3.4667,0.821-5.5166,3.6855-7.468,6.421c-1.6849,2.3618-3.4451,4.6884-4.9617,7.1648 c-3.9844-5.1697-9.0706-9.4656-15.011-12.2302C11.2339,0.87,7.2647-1.0641,3.9207,0.7109C0.973,2.2754,0.0192,6.3874,0.0002,9.4616 c-0.0365,5.9329,4.0262,10.6434,7.3724,15.1559c4.644,6.2628,9.5432,12.5396,15.4101,17.7151 c1.8828,1.6609,4.1777,3.7563,6.6984,4.3572c2.2407,0.5342,4.268-1.0905,5.649-2.6636c2.2031-2.5093,4.9748-5.3708,6.4105-8.364 c1.759-3.6672,3.4781-7.1859,4.8261-11.0217c2.1185-6.0281,3.1758-13.3505,2.3392-19.8468 C48.2592,1.3245,44.8349,0.2407,41.7867,0.9627z M31.082,22.8463c-0.1095,0.5558-0.3672,1.0739-0.6317,1.5693 c-0.1801,0.3374-0.3634,0.741-0.6172,1.0311c-0.1564,0.1788-0.4974,0.3554-0.3827,0.4063 c-0.5764-0.2558-0.6754-1.6564-0.6653-2.1783c0.0228-1.1817,0.5481-2.4027,0.9927-3.4813c0.0554-0.1343,0.1197-0.265,0.1778-0.3981 C30.7164,20.7467,31.2906,21.7876,31.082,22.8463z M45.8275,8.5109c-0.3512,5.8-2.5139,11.6559-4.5174,17.0537 c-1.136,3.0605-2.3734,6.0853-3.8127,9.0168c-1.2051,2.4544-2.5175,4.9959-4.2925,7.0955 c-0.5703,0.6746-1.2147,1.4146-2.0054,1.8394c-0.5996,0.3222-0.7968,0.3614-1.377,0.1396c-2.001-0.7647-3.7848-2.4158-5.3465-3.8263 c-4.7803-4.3173-8.905-9.3494-12.8054-14.4572c-1.7592-2.3038-3.4772-4.6414-5.1179-7.0313 c-0.9457-1.3776-2.0154-2.7884-2.6703-4.3377c-1.236-2.9238-1.2545-6.5981,0.2911-9.4165c1.7398-3.1724,6.2651-0.7935,8.6584,0.3218 c5.8641,2.7327,10.951,6.9709,14.7457,12.2072c0.0388,0.0535,0.0832,0.0949,0.1253,0.1413c0.0247,0.038,0.0477,0.0762,0.0764,0.1135 c-1.3201,2.6084-2.6021,5.7003-1.6409,8.5803c0.4061,1.217,1.2064,2.4363,2.5146,2.7949c1.5529,0.4257,2.9044-0.5566,3.7607-1.7688 c1.7204-2.4351,2.3775-5.3576,0.6013-7.9196c-0.4985-0.7191-1.0588-1.395-1.6303-2.0616c0.2513-0.4335,0.5083-0.8632,0.7731-1.2862 c1.6178-2.5834,3.4713-5.0117,5.236-7.4944c1.4913-2.098,3.2966-4.35,6.0847-4.4893c1.1003-0.0549,2.0876,0.2372,2.2729,1.4416 C45.9167,6.2429,45.8932,7.4249,45.8275,8.5109z M118.5358,3.9477c-2.8179-1.3991-6.3552-1.4388-9.0613,0.2441 c-2.7615,1.7173-4.4308,4.6094-6.3879,7.1097c-0.8729,1.1151-1.7656,2.2142-2.6506,3.3193c-0.0883-0.0935-0.178-0.187-0.2655-0.2807 c-0.2657-0.2844-0.5635-0.4203-0.8593-0.4529c-2.0671-1.7321-4.1728-3.4199-6.1228-5.2898 c-2.4752-2.3735-5.3192-5.0359-8.8613-5.5211c-7.4098-1.015-9.7526,7.8413-8.9498,13.572 c0.5309,3.7897,2.3267,7.3407,4.3784,10.5247c2.2579,3.504,4.9344,6.7827,7.8376,9.7703c2.4427,2.5137,5.0821,4.867,7.944,6.896 c1.5885,1.1262,3.8157,2.8289,5.8929,2.5584c2.4874-0.3239,5.2271-2.6602,6.6974-4.4745c2.5005-3.0856,3.9048-6.6005,5.9035-10.0264 c2.1152-3.6257,4.168-7.3125,5.9087-11.1349c1.2321-2.7054,2.4089-5.4871,2.552-8.4905 C122.6574,8.7946,121.871,5.6035,118.5358,3.9477z M96.856,26.4285c-0.0558-0.6543,0.1775-1.299,0.4572-1.9532 c0.8049-1.8821,2.0668-3.5998,3.2958-5.2343c0.8182,1.0568,1.4222,2.2255,1.4183,3.6299c-0.0063,2.2199-2.0439,5.2554-4.6118,4.1379 c-0.278-0.121-0.3378-0.1415-0.5099-0.3611C96.9993,26.7673,96.8502,26.3599,96.856,26.4285z M119.4465,13.0551 c-0.2688,2.3985-1.4272,4.7769-2.4393,6.9315c-1.4707,3.1309-3.1402,6.1686-4.8583,9.1692 c-1.7593,3.0724-3.6043,6.107-5.6946,8.9677c-1.2719,1.7407-2.9161,4.2083-4.9567,5.1517 c-0.5543,0.2563-0.4363,0.2371-1.0687-0.0073c-0.7123-0.2752-1.5677-0.8112-2.2686-1.2648 c-2.2756-1.4727-4.3567-3.2443-6.3286-5.0979c-4.8397-4.5494-9.5295-10.0102-12.1738-16.1672 c-1.263-2.941-1.7877-6.0667-1.1746-9.2318c0.5033-2.5983,1.8349-5.6068,4.9371-5.5137c3.2787,0.0983,6.0057,3.164,8.2009,5.2609 c2.181,2.0835,4.5839,3.9108,6.8729,5.8695c-0.213,0.2796-0.4375,0.55-0.6465,0.8328c-1.978,2.676-6.7028,9.08-2.0287,11.602 c2.9592,1.5967,6.3835,0.0693,8.0698-2.6051c1.6139-2.5598,1.498-6.04-0.1827-8.5317c-0.1611-0.2388-0.3407-0.4647-0.5157-0.6938 c-0.0413-0.2803-0.1791-0.5612-0.4442-0.8142c-0.0615-0.0587-0.1276-0.1121-0.1893-0.1704 c0.8297-1.0373,1.6653-2.0699,2.4882-3.1125c1.6052-2.0338,2.9764-4.3451,4.9238-6.0776c1.9218-1.7098,4.5403-2.112,6.91-1.0837 C119.6111,7.6544,119.7432,10.4071,119.4465,13.0551z M200.7729,13.487c-0.3248-3.4811-2.0092-6.8882-5.5356-8.0475 c-4.0263-1.3237-8.2808,0.6997-11.164,3.223c-2.3597,2.065-4.3409,5.0183-6.2806,7.4891c-0.1469-0.1721-0.2906-0.3467-0.4377-0.5187 c-1.9033-2.4529-3.9147-4.8291-6.247-6.8822c-2.7864-2.4528-6.0842-4.8203-9.7525-5.6738 c-3.6689-0.8538-7.1487,0.2305-9.3938,3.2905c-1.8848,2.569-2.6328,6.0159-2.2383,9.1542 c0.4606,3.6632,2.5297,7.2415,4.5151,10.2837c1.9759,3.0275,5.3159,7.4315,8.0684,9.7594 c4.5538,3.8513,8.1532,6.0671,13.1776,9.3005c1.4183,0.9127,2.5818,1.2458,4.1635,0.501c1.7646-0.831,3.2999-2.2654,4.7101-3.5836 c4.2189-3.9436,7.9783-8.4932,11.2579-13.2394C198.7349,24.0293,201.3032,19.1701,200.7729,13.487z M176.699,23.4332 c0.3828-0.7812,0.8041-1.5432,1.256-2.2865c0.5979,0.9164,1.0951,1.8831,1.3771,2.942c0.3522,1.3224,0.424,3.0823-0.9015,3.8701 c-0.6728,0.3998-2.1248,0.7876-2.7187,0.0441C174.8331,26.9029,176.1942,24.4633,176.699,23.4332z M197.7055,16.861 c-0.5286,4.2222-2.985,7.8236-5.411,11.206c-2.8354,3.9532-6.0214,7.7183-9.5292,11.0926 c-1.2114,1.1653-2.4686,2.3522-3.9112,3.2257c-0.1647,0.0997-0.956,0.3694-1.4931,0.1182 c-4.4255-2.0704-7.9572-5.897-11.7103-9.0031c-1.9713-1.6315-4.0256-3.2277-5.7374-5.1381 c-2.2742-2.5383-4.1475-5.4905-5.6296-8.5542c-1.2261-2.5345-2.0462-5.1-1.4678-7.9304c0.4811-2.3546,1.7517-4.932,4.1476-5.8184 c3.2224-1.1922,6.866,0.9861,9.416,2.7667c2.4695,1.7245,4.6186,3.8365,6.5734,6.1198c0.2386,0.2786,0.4633,0.5685,0.6967,0.8513 c0.0536,0.1089,0.1183,0.2165,0.203,0.3205c0.3514,0.4315,0.7256,0.862,1.1045,1.2939c0.3357,0.4299,0.6649,0.8647,0.9943,1.2994 c-0.0381,0.0581-0.0793,0.114-0.1171,0.1722c-1.7844,2.7562-4.9892,7.9084-2.4031,11.0457 c2.0338,2.4672,6.3668,1.5899,8.0896-0.7937c2.3737-3.2843,0.3683-7.7691-1.7799-10.6012c2.062-2.7523,4.5529-5.2358,7.1732-7.4485 c2.345-1.9803,6.1404-4.4008,8.9641-1.8848C197.9515,11.0481,198.0244,14.3138,197.7055,16.861z M32.8904,68.4876 c-1.7534-0.8915-3.8318-0.8196-5.5181,0.2061c-0.137,0.0833-0.2448,0.1806-0.3398,0.283c-0.9069,0.384-1.7719,0.8549-2.4728,1.5607 c-1.0882,1.0958-1.5891,2.5428-1.7233,4.0551c-0.1307,1.4739,0.1545,2.9976,0.4938,4.4268 c0.1627,0.6854,0.2801,1.4465,0.5867,2.0812c0.4187,0.8666,1.1797,1.235,2.0341,1.5626c2.7682,1.0615,6.1249,0.3378,8.243-1.7255 c2.2113-2.1541,3.023-5.7635,1.9017-8.6447C35.4886,70.7328,34.4121,69.2612,32.8904,68.4876z M32.4791,78.3751 c-1.1952,1.4981-3.2274,2.063-4.923,1.6526c-0.2199-0.0532-0.4362-0.1196-0.649-0.1966c0.0686,0.0248-0.4489-0.1597-0.2817-0.1088 c0.0457,0.0139-0.002-0.0345-0.045-0.0609c-0.019-0.1011-0.0574-0.2443-0.058-0.2469c-0.0673-0.2841-0.1451-0.5656-0.2156-0.8489 c-0.2745-1.1033-0.4761-2.0496-0.4974-3.1151c-0.0206-1.0291,0.1359-1.9874,0.7463-2.6601c0.7722-0.8511,1.9345-1.212,3.0363-1.5799 c0.2214-0.0739,0.4166-0.1948,0.5829-0.3436c0.4353-0.0334,0.8558,0.038,1.2015,0.211c0.8412,0.4211,1.3714,1.0703,1.8028,1.9745 C33.9363,74.6398,33.6442,76.9147,32.4791,78.3751z M103.7464,72.3646c-0.5915-0.4915-1.2586-0.8329-1.9592-1.1016 c-0.1218-0.2724-0.3216-0.5076-0.5959-0.6531c-2.7703-1.4691-5.8561,0.0738-7.5128,2.4493 c-0.7811,1.1201-1.2155,2.4304-1.6517,3.711c-0.2557,0.7507-0.403,1.5186-0.1781,2.3011c0.2075,0.7219,0.6856,2.2446,1.2463,2.716 c1.0694,0.8992,2.2098,0.7921,3.5004,1.3485c1.5093,0.6506,3.2773,1.1027,4.8325,0.3532c1.2042-0.5803,1.9945-1.7803,2.604-2.9236 c0.6724-1.2615,1.1746-2.5819,1.3209-4.01C105.5113,75.009,104.9583,73.3715,103.7464,72.3646z M100.9388,74.1258 C101.0655,74.1715,100.9966,74.1492,100.9388,74.1258L100.9388,74.1258z M101.8837,78.1475 c-0.181,0.4247-0.3991,0.8364-0.6255,1.2385c-0.1149,0.204-0.2343,0.4056-0.3631,0.6013c-0.0573,0.087-0.1158,0.1743-0.1777,0.2579 c0.1276-0.1724-0.1569,0.1767-0.1563,0.176c-0.0638,0.0687-0.4349,0.3769-0.2614,0.2593c-0.0601,0.0408-0.1233,0.0765-0.1862,0.1126 c-0.021,0.0057-0.1642,0.0721-0.2084,0.0822c-0.0656,0.0148-0.3224,0.0287-0.3981,0.0222 c-0.3035-0.0259-0.6227-0.1279-0.9138-0.2115c-0.8995-0.2584-1.7506-0.7347-2.5621-1.3411 c-0.2562-0.1915-0.6448-0.5151-0.944-0.7797c-0.0773-0.0684-0.1505-0.1455-0.2294-0.2121c-0.0339-0.0286-0.0566-0.0469-0.077-0.063 c-0.0044-0.0092-0.0114-0.0214-0.0262-0.0425c-0.0114-0.0177-0.0227-0.0353-0.034-0.053c-0.0009-0.0029-0.0018-0.0065-0.0027-0.0096 c0.0073-0.0104,0.0081-0.0084,0.0184-0.0246c0.1198-0.1879,0.1671-0.5388,0.2419-0.7597c0.0725-0.2139,0.1395-0.4297,0.2136-0.6431 c0.1894-0.5457,0.2849-0.79,0.527-1.2613c0.1263-0.2455,0.2629-0.4854,0.413-0.7172c0.0598-0.0923,0.1208-0.1837,0.1854-0.2727 c0.0204-0.028,0.0257-0.0356,0.0332-0.0461c0.0461-0.0565,0.093-0.1124,0.1417-0.1666c0.182-0.2062,0.3771-0.4017,0.5881-0.5784 c0.0224-0.0187,0.0192-0.017,0.0293-0.0261c0.011-0.0067,0.0118-0.006,0.0429-0.0274c0.1314-0.0901,0.2654-0.175,0.4044-0.2531 c0.0927-0.0521,0.1865-0.1015,0.2825-0.1472c0.0234-0.0109,0.024-0.0115,0.0359-0.0172c0.0642-0.0244,0.1288-0.0477,0.1943-0.0682 c0.0674-0.022,0.1359-0.04,0.2042-0.0587c0.1812,0.1954,0.4104,0.3471,0.6804,0.4175c0.4426,0.1155,0.8863,0.2283,1.3232,0.364 c0.1955,0.0607,0.3878,0.1294,0.5806,0.1976c0.0345,0.0122,0.0449,0.0161,0.0672,0.0242c0.1344,0.0598,0.2667,0.1252,0.3954,0.1964 c0.0857,0.0474,0.1707,0.097,0.2534,0.1497c-0.0145-0.0093,0.1339,0.1023,0.1994,0.1473c0.0507,0.0629,0.2493,0.2712,0.2504,0.2516 c0.0457,0.0684,0.088,0.1393,0.1323,0.2081c0.007,0.0109,0.0535,0.1028,0.0695,0.1281c0.0303,0.0804,0.0579,0.1646,0.0801,0.2463 c0.0018,0.0067,0.0444,0.246,0.058,0.2855C102.4372,76.5764,102.189,77.4312,101.8837,78.1475z M182.7537,71.5673 c-0.4894-0.4088-3.0173-3.2962-6.3676-1.1725c-1.0834,0.6867-2.194,1.5753-3.0531,2.5163c-0.966,1.0581-1.6682,2.2531-1.8369,3.6914 c-0.1353,1.1531,0.1466,2.3211,0.6823,3.3425c1.1098,2.116,3.4772,3.3914,5.851,3.0965c2.6052-0.3235,4.649-2.0893,5.4774-4.5596 c0.5039-1.5026,0.7745-3.3345,0.4243-4.8967C183.759,72.8179,183.3611,72.0745,182.7537,71.5673z M180.8226,73.8111 c-0.0007-0.0009-0.0023-0.002-0.0031-0.0029c0.0294,0.0009,0.0336-0.001,0.0221-0.0043c0.0441-0.0043,0.0864,0.0048,0.1306-0.0022 C180.9036,73.8125,180.8627,73.8136,180.8226,73.8111z M180.7374,73.8026c0.0005,0.0002,0.0015,0.0005,0.002,0.0007 c-0.0124-0.0013-0.0187-0.0018-0.0337-0.0032C180.7203,73.8015,180.7253,73.8016,180.7374,73.8026z M180.7699,73.8051 c0.0016,0.0001,0.0038,0.0002,0.0053,0.0004c0.0005,0.0006,0.0003,0.0007,0.0009,0.0013c-0.005-0.0005-0.0107-0.001-0.016-0.0015 C180.7634,73.805,180.7665,73.8053,180.7699,73.8051z M174.4743,77.5318C174.4807,77.6054,174.4824,77.6687,174.4743,77.5318 L174.4743,77.5318z M176.9547,80.0738C176.7225,80.0573,176.882,80.063,176.9547,80.0738L176.9547,80.0738z M180.6138,77.6844 c-0.0328,0.0981-0.068,0.1962-0.1055,0.2928c-0.0142,0.0334-0.035,0.0826-0.0412,0.0946c-0.0923,0.1805-0.1888,0.3564-0.3006,0.5259 c-0.0105,0.0159-0.0533,0.0767-0.0833,0.1202c-0.033,0.0403-0.076,0.0938-0.0883,0.1077c-0.147,0.1672-0.3049,0.3239-0.4728,0.4699 c-0.0334,0.0291-0.1224,0.0945-0.1453,0.1122c-0.0451,0.0312-0.0899,0.0629-0.1362,0.0928 c-0.1488,0.0961-0.3029,0.1843-0.4611,0.2641c-0.0469,0.0237-0.0952,0.0453-0.1431,0.0677 c-0.0327,0.0107-0.1307,0.0483-0.171,0.0618c-0.2103,0.0706-0.4285,0.1037-0.6394,0.1676 c-0.0086,0.0026-0.0102,0.0037-0.0168,0.0059c-0.1022,0.0078-0.2038,0.0182-0.3065,0.0215 c-0.1772,0.0057-0.3533-0.0017-0.5301-0.0139c-0.0031-0.0002-0.0026-0.0002-0.0055-0.0004 c-0.0851-0.0186-0.1708-0.0333-0.2554-0.054c-0.1092-0.0267-0.2159-0.0596-0.3231-0.0931 c-0.0406-0.0128-0.0784-0.0272-0.1096-0.0396c-0.16-0.078-0.3126-0.1637-0.4656-0.2555c-0.0137-0.0082-0.0537-0.0347-0.0911-0.0594 c-0.0524-0.0436-0.1705-0.136-0.1685-0.1342c-0.1277-0.1143-0.2491-0.2361-0.3633-0.364c-0.0322-0.0361-0.0629-0.0743-0.0943-0.1117 c-0.0076-0.0181-0.1215-0.178-0.135-0.1993c-0.0919-0.1451-0.1671-0.2974-0.2503-0.4473c-0.0104-0.0187-0.0154-0.0262-0.0234-0.04 c-0.0012-0.0054-0.0006-0.0058-0.0023-0.0125c-0.0209-0.0814-0.0577-0.1605-0.0829-0.2411 c-0.0554-0.1765-0.0931-0.3547-0.1306-0.5352c-0.0071-0.1268-0.0151-0.2517-0.0138-0.3788c0.001-0.0851,0.0329-0.3087,0.0318-0.3391 c0.0351-0.1528,0.0727-0.3033,0.1172-0.4551c0.0064-0.0217,0.0092-0.0334,0.0115-0.0437c0.0433-0.095,0.0911-0.1876,0.1413-0.2792 c0.0958-0.175,0.3022-0.4949,0.3564-0.5674c0.4606-0.6171,1.4979-1.6129,2.0771-2.0209c0.4717-0.3323,0.6741-0.4473,1.227-0.5559 c0.0278-0.0054,0.0425-0.0097,0.0527-0.0134c0.0236,0.0012,0.0433,0.0025,0.0789,0.0037c0.021,0.0007,0.1564,0.006,0.2343,0.0065 c0.0448,0.0125,0.1238,0.0306,0.1817,0.0432c0.0279,0.0243,0.1901,0.108,0.2235,0.131c0.0299,0.0206,0.0635,0.0313,0.0946,0.0488 c0.295,0.5328,0.8527,0.769,1.4597,0.7381c0.0082,0.003,0.0112,0.0049,0.0249,0.009c0.0088,0.0026,0.0049-0.0007,0.0115,0.0009 c0.0026,0.0027,0,0.0015,0.0031,0.0046c0.0349,0.0353,0.0956,0.1223,0.113,0.1438c0.0251,0.042,0.0494,0.0841,0.0704,0.1279 c0.0066,0.0273,0.0164,0.0684,0.03,0.1283c0.0819,0.3603,0.0712,0.2249,0.0793,0.5958 C181.0997,75.8272,180.9479,76.6848,180.6138,77.6844z"/></g></svg>