<svg xmlns="http://www.w3.org/2000/svg" xmlns:xlink="http://www.w3.org/1999/xlink" preserveAspectRatio="xMidYMid meet" version="1.0" viewBox="-0.4 -2.2 490.5 503.2" zoomAndPan="magnify" style="fill: rgb(0, 0, 0);" original_string_length="9371"><g id="__id3_sjrfiqy6wc"><path d="M256.22,71.46c-3.68-8.9-6.21-19.47-5.81-29.15c1.15-27.97,14.22-40.54,28.18-42.14 c20.82-2.38,45.31,20.18,38.74,55.94c-5.29,28.84-21.33,49.81-27.92,59.39c-0.48,0.71-1.26,1.14-2.11,1.19 c-0.85,0.04-1.67-0.31-2.23-0.95C276.31,105.6,261.39,83.97,256.22,71.46z M43.94,205.94c0.46-0.76,0.53-1.68,0.18-2.5 c-0.34-0.81-1.06-1.41-1.92-1.61c-10.28-2.34-23.31-1.58-29.25-0.09c-8.68,2.18-12.22,6.12-12.83,9.48 c-0.49,2.71,0.6,5.49,3.13,7.72C10.38,225.2,30.94,227.24,43.94,205.94z M20.55,171.74c7.64,5.92,18.17,6.43,29.22,3.68 c15.64-3.89,32.4-14.23,42.67-22.87c0.63-0.53,0.99-1.32,0.98-2.15c-0.02-0.83-0.4-1.6-1.06-2.11 c-9.04-7.09-18.11-12.62-29.31-15.53c-6.6-1.72-13.36-2.43-20.17-2.21c-8.39,0.28-17.79,4.03-24.15,9.62 c-4.52,3.98-7.49,8.89-7.83,14.1C10.54,159.85,13.09,165.96,20.55,171.74z M488.38,302.68c-1.43-28.28-20.34-40.85-41.89-50.28 c-10.28-4.49-21.13-8.28-30.74-12.91c-9.18-4.42-17.22-9.57-22.3-17.06c-4.12-6.07-3.73-12.49-1.51-19.04 c2.46-7.23,7.11-14.61,11.24-21.89c3.06-5.39,5.84-10.74,7.42-15.94c1.71-5.63,2.03-11.12,0.04-16.35 c-1.68-4.43-5.03-8.74-10.81-12.76c-4.67-3.25-10.15-5.42-15.73-6.44c-16.11-2.96-28.32,2.44-39.7,10.71 c-10.74,7.8-20.72,18.23-32.91,25.93c-4.03,2.54-11.94,4.87-20.88,5.14c-13.42,0.41-29.24-3.86-37.83-19.69 c-8.27-15.22-20.19-31.76-35-42.96C202.59,97.64,184.41,91.72,164,98.09c-11.46,3.58-24.14,11.28-28.23,23.41 c-2.38,7.06-1.4,13.98,1.23,20.73c2.45,6.29,6.36,12.43,10.01,18.36c3.42,5.53,6.64,10.87,7.96,16c1.16,4.51,0.73,8.83-2.77,12.93 c-7.06,8.24-17.64,13.1-27.33,17.5c-19.35,8.79-39.53,15.55-57.86,26.53c-15.83,9.48-35.22,26.69-44.41,46.31 c-6.33,13.53-7.88,28.18-0.57,42.33c14.66,28.42,41.01,31.78,68.79,29.27c15.98-1.44,32.41-4.8,47.12-5.98 c9.43-0.76,18.13-0.63,25.47,1.65c8.23,2.56,12.24,8.59,14.32,16.23c1.5,5.53,2.01,11.87,2.24,18.46 c0.36,10.31,0.03,21.21,1.39,30.71c0.97,6.73,2.79,12.78,6.11,17.58c9.73,14.03,27.11,20.64,44.79,20.64 c17.56-0.01,35.32-6.53,45.92-18.37c10.25-11.44,14.81-25.81,20.86-38.86c5.65-12.18,12.68-23.17,28.07-28.79 c15.32-5.6,30.96-1.79,46.47,0.66c16.62,2.62,33.78,4.49,50.53,1.81C455.14,362.24,490.14,337.5,488.38,302.68z M362.31,398.83 c-1.2-0.19-2.38,0.42-2.92,1.52c-5.26,10.89-7.67,40.84-4.45,57.9c3.6,19.09,15.61,32.74,28.45,38.51 c8.96,4.02,18.34,4.23,25.84,0.07c8.18-4.54,13.43-10.37,15.63-17.47c3.2-10.29-0.1-23.59-11.39-40.07 C399.41,418.75,376.07,401.08,362.31,398.83z" style="fill: rgb(130, 114, 112);"/></g><g id="__id4_sjrfiqy6wc"><path clip-rule="evenodd" d="M363.51,404.7c12.99,3.41,32.98,19.51,45.43,37.69 c10.01,14.61,13.52,26.22,10.68,35.34c-1.82,5.86-6.29,10.54-13.06,14.29c-6.07,3.37-13.67,2.98-20.93-0.27 c-11.48-5.16-22.08-17.46-25.31-34.52C357.49,442.11,359.17,416.23,363.51,404.7L363.51,404.7L363.51,404.7z M247.95,154.71 c9.76,17.97,27.61,23.03,42.83,22.56c10.14-0.31,19.08-3.1,23.65-5.98c12.29-7.76,22.37-18.26,33.2-26.13 c10.19-7.4,21.06-12.41,35.48-9.75c4.82,0.88,9.56,2.74,13.59,5.55c4.65,3.24,7.45,6.62,8.81,10.19c1.56,4.11,1.18,8.4-0.16,12.81 c-1.47,4.84-4.09,9.81-6.94,14.83c-4.31,7.59-9.11,15.29-11.67,22.83c-2.79,8.23-3,16.28,2.17,23.89 c5.59,8.24,14.36,14.06,24.46,18.92c9.67,4.66,20.59,8.47,30.92,12.99c19.66,8.61,37.31,19.73,38.61,45.53 c1.62,32.04-31.1,54.26-59.64,58.82c-16.18,2.59-32.76,0.72-48.82-1.81c-16.43-2.59-32.98-6.32-49.21-0.39 c-17.01,6.22-24.93,18.19-31.17,31.64c-5.83,12.57-10.09,26.48-19.97,37.51c-9.64,10.76-25.86,16.53-41.83,16.53 c-15.85,0-31.55-5.69-40.27-18.27c-3.48-5.02-4.92-11.66-5.63-18.94c-1.13-11.71-0.3-25.02-1.59-36.57 c-1.57-13.99-6.28-25.42-19.73-29.58c-7.94-2.46-17.33-2.7-27.53-1.88c-14.73,1.18-31.18,4.54-47.17,5.98 c-25.52,2.3-49.95-0.21-63.42-26.32c-6.47-12.54-4.94-25.51,0.67-37.49c8.73-18.64,27.21-34.92,42.25-43.93 c18.16-10.87,38.15-17.54,57.31-26.24c10.39-4.72,21.66-10.08,29.23-18.93c7.5-8.77,5.02-18.3-0.56-28.42 c-3.7-6.71-8.73-13.72-12.18-20.96c-3.16-6.63-5.02-13.46-2.66-20.46c3.54-10.49,14.76-16.83,24.66-19.92 c18.54-5.78,35.03-0.26,48.83,10.18C228.65,124.24,240.03,140.12,247.95,154.71L247.95,154.71L247.95,154.71z M36.95,206.45 c-7.17,9.45-16.21,12.04-23.03,11.16c-2.96-0.38-5.46-1.39-7.05-2.79c-0.81-0.72-1.4-1.49-1.38-2.36c0.02-0.9,0.71-1.71,1.86-2.54 c1.54-1.11,3.82-2.07,6.94-2.86C18.95,205.9,28.42,205.24,36.95,206.45L36.95,206.45z M86.24,150.51 c-9.82,7.69-24.23,16.2-37.79,19.57c-9.27,2.31-18.12,2.27-24.53-2.69c-5.54-4.29-7.81-8.62-7.53-12.76 c0.25-3.86,2.63-7.39,5.98-10.34c5.45-4.79,13.51-8.01,20.71-8.25c6.28-0.21,12.52,0.45,18.61,2.03 C70.98,140.49,78.69,144.9,86.24,150.51L86.24,150.51z M286.95,109.43c-8.58-10.56-21.08-29-25.66-40.07 c-3.38-8.19-5.76-17.91-5.39-26.83C256.89,18.45,267.19,7,279.22,5.63c18.14-2.07,38.44,18.32,32.72,49.49 C307.31,80.29,294.14,99.2,286.95,109.43L286.95,109.43L286.95,109.43z" fill-rule="evenodd" style="fill: rgb(235, 210, 156);"/></g><g id="__id5_sjrfiqy6wc"><path clip-rule="evenodd" d="M404.17,464.4c0.75,2.87,1.57,6.24,1.34,9.36 c-0.17,2.21-0.96,4.28-3.24,5.54c-1.99,1.09-2.72,3.6-1.63,5.59c1.09,1.99,3.61,2.72,5.59,1.62c5.09-2.79,7.12-7.22,7.49-12.14 c0.3-4.01-0.62-8.38-1.59-12.07c-0.58-2.2-2.83-3.52-5.03-2.94C404.9,459.95,403.59,462.2,404.17,464.4L404.17,464.4z M372.32,423.35c9.5,6.43,17.26,14.49,23.12,24.33c1.16,1.96,3.69,2.59,5.64,1.43c1.96-1.16,2.6-3.69,1.43-5.64 c-6.48-10.9-15.06-19.83-25.58-26.94c-1.88-1.28-4.44-0.78-5.72,1.1C369.94,419.52,370.44,422.08,372.32,423.35L372.32,423.35z M271.49,395.48c-5.67,12.87-13.97,25.02-28.44,28.67c-2.21,0.55-3.54,2.79-2.99,5c0.56,2.2,2.79,3.54,5,2.99 c17.07-4.29,27.29-18.16,33.97-33.33c0.92-2.08-0.03-4.52-2.11-5.43C274.84,392.45,272.4,393.4,271.49,395.48L271.49,395.48z M338.7,336.62c-27.57-1.84-51.86,13.57-61.64,39.5c-0.81,2.13,0.27,4.51,2.4,5.31c2.13,0.81,4.51-0.27,5.31-2.4 c8.47-22.45,29.52-35.78,53.38-34.18c2.27,0.15,4.23-1.57,4.38-3.84C342.69,338.74,340.97,336.77,338.7,336.62L338.7,336.62z M447.92,285.81c6.28,8.25,8.47,15.74,7.51,22.46c-0.96,6.69-4.98,12.49-10.56,17.42c-12.08,10.67-31.37,17.18-46.51,18.59 c-2.26,0.21-3.93,2.22-3.72,4.48c0.21,2.26,2.22,3.93,4.48,3.72c16.68-1.55,37.88-8.86,51.19-20.62 c7.13-6.29,12.03-13.86,13.26-22.42c1.23-8.53-1.13-18.16-9.11-28.62c-1.38-1.81-3.97-2.16-5.78-0.78 C446.89,281.42,446.54,284,447.92,285.81L447.92,285.81z M159.83,329.02c8.19,2.95,18.01,5.75,22.46,13.91 c1.09,1.99,3.59,2.73,5.59,1.64c1.99-1.09,2.73-3.59,1.64-5.59c-5.42-9.94-16.92-14.11-26.91-17.71c-2.14-0.77-4.5,0.34-5.27,2.48 C156.57,325.89,157.69,328.25,159.83,329.02L159.83,329.02z M54.45,314.59c2.68,8.41,7.11,13.6,12.56,16.72 c7.73,4.42,17.8,4.52,28.53,2.91c9.7-1.45,19.98-4.21,29.26-5.43c5.59-0.73,10.78-0.94,15.15,0.31c2.19,0.62,4.47-0.64,5.09-2.83 c0.62-2.18-0.64-4.47-2.83-5.09c-5.34-1.53-11.67-1.46-18.49-0.56c-9.33,1.23-19.66,3.99-29.4,5.45 c-14.07,2.11-27.03,1.66-32.02-13.98c-0.69-2.17-3.01-3.36-5.18-2.67C54.95,310.1,53.75,312.43,54.45,314.59L54.45,314.59z M390.97,252.83c3.42,2.17,6.6,3.76,10.52,4.73c2.21,0.55,4.44-0.79,4.99-3c0.55-2.21-0.79-4.44-3-4.99 c-3.02-0.75-5.46-2.02-8.1-3.69c-1.92-1.22-4.47-0.65-5.68,1.27C388.47,249.06,389.04,251.61,390.97,252.83L390.97,252.83z M370.09,156.2c5.82,1.85,10.38,5.56,11.86,10.52c0.95,3.2,0.53,6.86-1.49,10.74c-3.64,6.97-9.67,12.4-14.13,18.35 c-5.34,7.1-8.71,14.82-5.79,25.44c2.2,8.01,7.2,13.13,14.56,16.66c2.05,0.98,4.51,0.12,5.49-1.93c0.98-2.05,0.11-4.52-1.94-5.49 c-5.08-2.43-8.65-5.87-10.17-11.41c-2.11-7.67,0.58-13.18,4.43-18.31c4.72-6.29,11-12.11,14.85-19.48 c3.18-6.09,3.58-11.88,2.09-16.91c-2.19-7.38-8.62-13.28-17.27-16.02c-2.17-0.69-4.48,0.51-5.17,2.68 C366.73,153.19,367.93,155.51,370.09,156.2L370.09,156.2z M275.98,193.72c9.81,2.55,20.77,3.18,29.76-2.27 c1.94-1.18,2.57-3.71,1.39-5.66c-1.18-1.95-3.71-2.57-5.66-1.39c-7.06,4.28-15.71,3.34-23.41,1.34c-2.2-0.57-4.45,0.75-5.02,2.95 S273.78,193.14,275.98,193.72L275.98,193.72z M160.29,129.94c4.31-3.15,8.04-5.91,12.97-7.89c7.22-2.91,13.1-3.24,18.05-1.66 c4.98,1.59,8.96,5.07,12.48,9.35c8.03,9.79,13.65,23.66,20.63,33.21c7.89,10.79,19.42,18.47,32.14,22.29 c2.18,0.66,4.48-0.58,5.13-2.76c0.66-2.18-0.58-4.48-2.76-5.13c-11.01-3.31-21.03-9.92-27.86-19.26 c-7.06-9.67-12.78-23.66-20.91-33.57c-4.57-5.57-9.87-9.9-16.33-11.98c-6.48-2.08-14.19-1.94-23.64,1.86 c-5.59,2.26-9.87,5.31-14.75,8.89c-1.84,1.34-2.24,3.92-0.89,5.76C155.88,130.88,158.46,131.28,160.29,129.94L160.29,129.94z M31.08,155.21c4.03-4.89,10.74-6.52,16.89-6.46c2.27,0.02,4.14-1.81,4.16-4.08c0.02-2.28-1.81-4.14-4.08-4.16 c-8.56-0.09-17.72,2.65-23.33,9.45c-1.44,1.76-1.19,4.36,0.56,5.8C27.03,157.21,29.63,156.97,31.08,155.21L31.08,155.21z M60.24,149.92c2.25,0.18,5.05,0.22,6.97,1.59c1.85,1.32,4.43,0.9,5.75-0.94c1.33-1.85,0.9-4.43-0.94-5.75 c-3.09-2.22-7.47-2.81-11.09-3.11c-2.27-0.19-4.26,1.5-4.45,3.76C56.29,147.73,57.98,149.73,60.24,149.92L60.24,149.92z M290.52,77.44c-0.84,3.08-1.65,6.17-2.35,9.29c-0.5,2.22,0.89,4.43,3.11,4.93c2.22,0.5,4.43-0.89,4.93-3.12 c0.67-3,1.46-5.98,2.26-8.94c0.59-2.19-0.71-4.46-2.9-5.06C293.38,73.94,291.12,75.24,290.52,77.44L290.52,77.44z M283.85,21.61 c8.51,2.12,12.26,8.88,13.55,16.65c1.47,8.78-0.08,18.87-2.37,26.5c-0.66,2.18,0.58,4.48,2.76,5.13c2.18,0.65,4.48-0.59,5.13-2.77 c2.6-8.69,4.27-20.21,2.6-30.22c-1.84-11.03-7.6-20.27-19.68-23.29c-2.21-0.55-4.44,0.79-4.99,3 C280.3,18.82,281.65,21.06,283.85,21.61L283.85,21.61z" fill-rule="evenodd" style="fill: rgb(240, 244, 248);"/></g></svg>