<svg xmlns="http://www.w3.org/2000/svg" xmlns:xlink="http://www.w3.org/1999/xlink" preserveAspectRatio="xMidYMid meet" version="1.0" viewBox="-46.2 -27.8 1491.1 1460.5" zoomAndPan="magnify" style="fill: rgb(0, 0, 0);" original_string_length="1639"><g id="__id16_sjrfiqy6wc"><path d="M1361.12,418.77c-0.04,92.37-28.97,175.82-82.42,250.17c-17.48,24.32-21.07,35.72,10.26,51.08 c46.42,22.77,85.59,56.63,113.89,101.07c42.05,66.03,30.62,144.52-30.64,193.42c-91.51,73.04-198.66,87.56-311.33,78.26 c-7.14-0.59-14.4-1.51-21.25-3.49c-24.98-7.24-33.62,1.62-36.16,27.69c-7.64,78.14-29.96,150.28-89.46,207.15 c-113.57,108.55-267.66,90.86-351.54-42.77c-40.34-64.27-59.68-135.34-54.28-211.28c1.78-25.08-4.9-27.17-26.33-22.57 c-106.12,22.81-210.13,16.44-311.01-25.81c-46.35-19.41-86.15-47.92-117.33-87.38C-46.16,808.16-2.51,647.8,150.44,579.19 c72.85-32.68,149.36-43.11,228.69-33.54c10.81,1.3,25.44,8.64,31.97-0.55c7.42-10.43-6.56-19.74-12.27-28.81 c-70.22-111.55-93.26-231.52-60.6-359.77C370.01,31.77,476.86-27.82,599.16,12.51c106.66,35.17,187.42,104.91,242.49,202.61 c13.65,24.21,20.48,28.48,42.96,7.77c57.38-52.84,125.05-86.19,204.69-88.63c151.27-4.64,263.26,99.02,271.74,250.63 C1361.67,396.15,1361.12,407.47,1361.12,418.77z M780.16,596.66c-71.12-1.42-114.14,39.66-115.04,109.85 c-0.83,64.91,51.54,128.96,106.48,130.22c61.75,1.42,126.25-65.98,127.92-133.66C901.26,632.32,863.12,598.31,780.16,596.66z" style="fill: rgb(95, 67, 44);"/></g><g id="__id17_sjrfiqy6wc"><path d="M780.16,596.66c82.95,1.65,121.1,35.66,119.36,106.41c-1.66,67.68-66.17,135.08-127.92,133.66 c-54.94-1.26-107.3-65.31-106.48-130.22C666.02,636.32,709.04,595.25,780.16,596.66z" style="fill: rgb(255, 245, 254);"/></g></svg>