<svg xmlns="http://www.w3.org/2000/svg" xmlns:xlink="http://www.w3.org/1999/xlink" preserveAspectRatio="xMidYMid meet" version="1.0" viewBox="-0.2 -0.1 495.1 502.3" zoomAndPan="magnify" style="fill: rgb(0, 0, 0);" original_string_length="8759"><g id="__id11_sjrfiqy6wc"><path d="M69.44,257.35c-0.26,1.5-1.68,2.51-3.19,2.25c-9.33-1.6-18.75-2.96-28.19-4.18 c-1.53,9.72-3.13,19.42-4.7,29.13c-0.24,1.51-1.66,2.53-3.16,2.29c-1.5-0.25-2.53-1.66-2.28-3.16c1.56-9.65,3.14-19.29,4.66-28.95 c-10.06-1.26-20.14-2.4-30.15-3.56c-1.51-0.17-2.59-1.55-2.42-3.06c0.18-1.51,1.55-2.59,3.06-2.42c10.07,1.17,20.22,2.32,30.36,3.59 c1.5-9.66,2.91-19.33,4.15-29.04c0.2-1.51,1.58-2.58,3.09-2.38c1.51,0.19,2.58,1.57,2.38,3.08c-1.24,9.7-2.65,19.37-4.15,29.03 c9.48,1.23,18.93,2.59,28.27,4.19C68.69,254.42,69.7,255.85,69.44,257.35z M229.83,67.05c12.57-4.19,14.41-16.9,8.74-24.8 c-3.71-5.17-10.69-8.47-20.2-5.66c-0.17,0.05-0.33,0.12-0.48,0.2c-3.87,1.99-8.82,5.19-10.28,9.65 C203.26,59.7,217.53,71.15,229.83,67.05z M334.97,55.74l0.21,0.37l0.25,0.32l0.36,0.33l0.34,0.22l0.25,0.12l0.13,0.06 c9.28,3.44,19.27,9.24,26.63,16.83c7.06,7.28,11.71,16.22,10.56,26.34l-0.02,0.42l0.04,0.41l0.11,0.39l0.16,0.36l0.27,0.42 l0.29,0.32l0.39,0.31l0.38,0.21l0.38,0.13l0.42,0.08l0.42,0.02l0.41-0.04l0.39-0.11l0.37-0.16l0.42-0.27l0.32-0.29l0.31-0.39 l0.21-0.38l0.13-0.38l0.08-0.39c2.77-22.21,14.99-36.75,36.65-42.22l0.12-0.03c0.3-0.09,0.57-0.23,0.82-0.4l0.35-0.3l0.09-0.11 c0.2-0.22,0.36-0.48,0.49-0.77l0.09-0.26l0.09-0.4l0.03-0.41l-0.03-0.4l-0.06-0.28l-0.03-0.12c-0.09-0.3-0.23-0.57-0.41-0.82 l-0.3-0.35l-0.1-0.09c-0.22-0.2-0.49-0.36-0.78-0.49l-0.11-0.04C390.91,44.3,380.98,28,378.34,2.47c-0.16-1.52-1.51-2.62-3.03-2.46 c-1.51,0.16-2.62,1.51-2.46,3.02l0.04,0.38c-0.05,0.22-0.07,0.46-0.06,0.7c1.19,23.35-14.48,37.64-36.55,47.95l-0.37,0.21 l-0.32,0.25l-0.33,0.36l-0.23,0.35l-0.12,0.25l-0.05,0.13c-0.11,0.3-0.17,0.61-0.17,0.91l0.02,0.33 C334.75,55.15,334.83,55.45,334.97,55.74z M169.35,446.26l-0.21-0.37l-0.26-0.32l-0.35-0.33l-0.35-0.22l-0.25-0.12l-0.13-0.06 c-11.09-4.11-23.19-12.58-30.58-23.25c-4.74-6.86-7.54-14.64-6.62-22.75l0.01-0.42l-0.04-0.41l-0.11-0.39l-0.16-0.36l-0.27-0.42 l-0.28-0.31l-0.4-0.31l-0.38-0.21l-0.38-0.13l-0.41-0.08l-0.27-0.02l-0.43,0.02l-0.4,0.09l-0.37,0.14l-0.35,0.2l-0.4,0.31 l-0.28,0.32l-0.27,0.42l-0.17,0.41l-0.1,0.4l-0.02,0.11c-2.77,22.25-14.94,39.56-36.65,45.05l-0.12,0.03 c-0.3,0.09-0.58,0.23-0.82,0.4l-0.35,0.3l-0.09,0.11c-0.2,0.22-0.37,0.48-0.49,0.77l-0.09,0.26l-0.09,0.4l-0.03,0.41l0.03,0.4 l0.06,0.28l0.03,0.12c0.09,0.3,0.22,0.57,0.4,0.82l0.3,0.35l0.1,0.09c0.22,0.2,0.49,0.36,0.78,0.49l0.11,0.04 c25.18,9.19,35.12,25.49,37.76,51.02c0.16,1.52,1.52,2.62,3.03,2.46c1.52-0.16,2.62-1.51,2.46-3.02l-0.04-0.38 c0.04-0.22,0.06-0.46,0.05-0.7c-1.19-23.35,14.48-37.64,36.55-47.95l0.37-0.21l0.32-0.25l0.32-0.36l0.23-0.35l0.12-0.25l0.05-0.13 c0.11-0.3,0.17-0.61,0.17-0.91l-0.01-0.33C169.56,446.85,169.48,446.55,169.35,446.26z M404.18,286.98 c-0.17,0.05-0.33,0.11-0.48,0.19c-3.87,1.99-8.82,5.2-10.28,9.66c-4.35,13.25,9.92,24.71,22.22,20.6 c12.57-4.19,14.41-16.9,8.74-24.8C420.66,287.47,413.69,284.17,404.18,286.98z M494.37,174.02c-0.59-1.41-2.2-2.07-3.6-1.48 c-6.5,2.71-13.26,4.77-20.1,6.69c-2.39-8.7-4.89-17.36-7.36-26.05c-0.42-1.47-1.95-2.31-3.41-1.9c-1.47,0.42-2.31,1.95-1.9,3.41 c2.47,8.68,4.96,17.33,7.35,26.01c-8.52,2.31-17.07,4.55-25.3,7.62c-1.43,0.53-2.15,2.12-1.62,3.55c0.54,1.43,2.13,2.15,3.55,1.62 c8.07-3.01,16.45-5.24,24.8-7.5c2.36,8.8,4.58,17.64,6.51,26.58c0.32,1.49,1.79,2.44,3.27,2.11c1.49-0.32,2.44-1.79,2.11-3.27 c-1.95-9.04-4.19-17.97-6.58-26.87c7.07-1.97,14.07-4.09,20.78-6.89C494.3,177.04,494.96,175.43,494.37,174.02z M399.64,235.36 l0.42-0.01l0.49-0.08l0.43-0.16l0.41-0.24l0.35-0.28l0.31-0.36l0.23-0.39l0.18-0.45l0.08-0.41l0.03-0.42l-0.04-0.41l-0.11-0.45 l-0.2-0.44l-0.25-0.37l-0.33-0.35l-0.36-0.27l-0.43-0.22l-0.39-0.12l-0.41-0.07c-23.5-2.01-69.75-16.08-88.15-31.07 c-18.09-14.74-26.49-35.97-31.07-59.39c-4.7-23.98-5.38-50.26-7.89-74.51l-0.07-0.41l-0.14-0.42l-0.18-0.36l-0.23-0.32l-0.34-0.34 l-0.36-0.26l-0.37-0.19l-0.36-0.12l-0.27-0.06l-0.4-0.03l-0.3,0.02l-0.41,0.07l-0.39,0.13l-0.36,0.18l-0.32,0.23l-0.35,0.34 l-0.26,0.36l-0.18,0.38l-0.12,0.36l-0.05,0.27l-0.03,0.28c-3.61,62.7-13.52,106.82-41.42,135.79 c-18.51,19.21-44.92,31.67-82.5,38.57c-1.34,0.25-2.28,1.43-2.26,2.74c-0.02,1.3,0.88,2.47,2.19,2.75 c73.22,15.48,120.91,84.09,128.9,153.97l0.08,0.41l0.13,0.39l0.19,0.36l0.28,0.37l0.33,0.31l0.39,0.26l0.42,0.18l0.39,0.11 l0.41,0.04l0.42-0.02l0.41-0.08l0.38-0.13l0.36-0.19l0.37-0.28l0.32-0.33l0.26-0.39l0.19-0.42l0.11-0.38l0.04-0.41 c2.71-50.67,5.01-80.15,38.05-119.3c9.29-11.02,29.11-25.22,48.69-34.5C377.42,238.75,390.12,234.73,399.64,235.36z M241.73,451.31 c-0.17,0.05-0.33,0.12-0.48,0.2c-5.65,2.9-12.96,7.49-15.09,14.01c-6.31,19.25,14.46,35.81,32.32,29.85 c18.2-6.07,20.93-24.45,12.71-35.9C265.8,451.92,255.59,447.21,241.73,451.31z" style="fill: rgb(130, 114, 112);"/></g><g id="__id12_sjrfiqy6wc"><path clip-rule="evenodd" d="M270.22,98.23c-5.37,47.24-16.72,82.01-40.21,106.4 c-17.22,17.88-40.98,30.24-73.82,37.77c61.21,18.09,103.38,72.86,117.6,132.72c2.96-38.69,9.32-65.47,37.91-99.35 c9.66-11.45,30.19-26.28,50.54-35.93c6.53-3.1,13.04-5.64,19.18-7.41c-25.16-5.44-57.99-17.15-72.98-29.36 c-19.1-15.56-28.16-37.88-33-62.61C272.76,126.86,271.37,112.52,270.22,98.23L270.22,98.23z M405.98,292.2 c6.5-1.84,11.36,0.1,13.91,3.65c3.76,5.23,2.33,13.57-6,16.35c-8.31,2.77-18.17-4.7-15.23-13.65c0.46-1.41,1.56-2.54,2.79-3.53 C402.88,293.88,404.53,292.95,405.98,292.2L405.98,292.2L405.98,292.2z" fill-rule="evenodd" style="fill: rgb(235, 210, 156);"/></g><g id="__id13_sjrfiqy6wc"><path clip-rule="evenodd" d="M243.55,456.53c10.84-3.13,18.93,0.23,23.17,6.14 c6.3,8.78,3.98,22.8-9.98,27.45c-13.87,4.63-30.24-7.96-25.34-22.9c0.8-2.43,2.66-4.43,4.79-6.13 C238.51,459.24,241.2,457.74,243.55,456.53L243.55,456.53L243.55,456.53z M376.29,20.89c-4.63,14.56-16.45,25.21-32.16,33.46 c10.31,4.72,20.68,11.96,27.43,21.02c2.36,3.16,4.28,6.54,5.63,10.11c5.16-14.12,15.13-24.19,29.87-29.75 C390.48,47.98,381.09,36.62,376.29,20.89L376.29,20.89z" fill-rule="evenodd" style="fill: rgb(235, 210, 156);"/></g><g id="__id14_sjrfiqy6wc"><path clip-rule="evenodd" d="M127.11,414.04c-5.19,14.78-15.2,26.26-29.98,32.18 c16.66,7.75,26.08,19.12,30.88,34.89c4.64-14.58,16.49-25.24,32.23-33.5c-10.35-4.97-20.78-13.09-27.56-22.89 C130.36,421.34,128.45,417.77,127.11,414.04L127.11,414.04z M220.18,41.81c6.5-1.84,11.36,0.1,13.91,3.65 c3.76,5.24,2.33,13.58-6,16.35c-8.31,2.77-18.16-4.71-15.23-13.65c0.46-1.41,1.56-2.54,2.79-3.53 C217.08,43.49,218.73,42.57,220.18,41.81L220.18,41.81L220.18,41.81z" fill-rule="evenodd" style="fill: rgb(158, 209, 218);"/></g><g id="__id15_sjrfiqy6wc"><path clip-rule="evenodd" d="M255.74,477.34c-0.45,0.45-0.89,0.83-1.4,1.19 c-1.23,0.89-1.51,2.62-0.62,3.85c0.89,1.23,2.62,1.51,3.85,0.62c0.74-0.54,1.38-1.09,2.04-1.73c1.08-1.07,1.1-2.82,0.03-3.9 C258.58,476.29,256.83,476.27,255.74,477.34L255.74,477.34z M253.75,465.43c1.33,0.66,2.77,1.43,3.82,2.51 c0.72,0.75,1.24,1.66,1.15,2.85c-0.12,1.52,1.02,2.85,2.53,2.97c1.52,0.12,2.84-1.02,2.97-2.53c0.42-5.39-3.87-8.7-8.04-10.75 c-1.37-0.67-3.02-0.11-3.69,1.26C251.81,463.11,252.38,464.76,253.75,465.43L253.75,465.43z M138.4,451.59 c-4.14,1.96-7.61,4.96-9.13,9.48c-0.49,1.44,0.3,3.01,1.74,3.49c1.44,0.49,3.01-0.3,3.49-1.74c1.02-3.03,3.47-4.93,6.25-6.25 c1.38-0.65,1.97-2.3,1.32-3.67C141.42,451.53,139.78,450.95,138.4,451.59L138.4,451.59z M127.23,433.94 c2.45,5.28,6.48,8.54,12.06,10.12c1.47,0.41,2.99-0.44,3.4-1.9c0.42-1.47-0.44-2.99-1.9-3.41c-3.95-1.12-6.82-3.4-8.56-7.13 c-0.64-1.38-2.28-1.98-3.66-1.34C127.19,430.92,126.59,432.56,127.23,433.94L127.23,433.94z M295.05,263.49 c-19.39,9.85-30.92,29.72-29.61,51.97c0.22,3.8,3.49,6.7,7.29,6.48c3.8-0.22,6.7-3.49,6.48-7.29c-0.98-16.63,7.6-31.5,22.09-38.86 c3.4-1.72,4.75-5.88,3.03-9.27C302.59,263.13,298.44,261.77,295.05,263.49L295.05,263.49z M413.52,301.81 c0.08,1.24,1,2.31,2.28,2.54c1.5,0.26,2.93-0.74,3.2-2.24c0.23-1.34-0.18-2.67-1.19-3.82c-1.26-1.45-3.73-2.62-4.85-3.02 c-1.43-0.51-3.01,0.23-3.53,1.67c-0.51,1.43,0.23,3.01,1.66,3.53c0.38,0.13,1.03,0.41,1.65,0.77 C412.99,301.39,413.33,301.66,413.52,301.81L413.52,301.81z M266.78,192.68c7.93,25.9,26.91,39.2,52.85,44.31 c3.74,0.74,7.36-1.7,8.1-5.43c0.74-3.73-1.7-7.36-5.43-8.09c-20.62-4.07-36.03-14.24-42.32-34.82c-1.12-3.64-4.97-5.69-8.61-4.57 C267.73,185.19,265.67,189.05,266.78,192.68L266.78,192.68z M224.23,50c1.07-0.07,2.55,0.13,3.71,0.73 c0.62,0.32,1.21,0.77,1.13,1.57c-0.16,1.51,0.94,2.87,2.45,3.03c1.51,0.16,2.87-0.94,3.03-2.45c0.3-2.77-0.89-4.81-2.76-6.22 c-2.21-1.67-5.59-2.32-7.93-2.16c-1.52,0.1-2.67,1.42-2.57,2.94C221.39,48.95,222.71,50.1,224.23,50L224.23,50z M374.4,38.54 c1.59,8.68,7.28,14.41,15.77,16.4c1.48,0.35,2.97-0.57,3.31-2.05c0.35-1.48-0.57-2.97-2.05-3.32c-6.24-1.46-10.44-5.65-11.61-12.03 c-0.27-1.5-1.71-2.49-3.21-2.21C375.12,35.61,374.13,37.05,374.4,38.54L374.4,38.54z" fill-rule="evenodd" style="fill: rgb(240, 244, 248);"/></g></svg>