<svg xmlns="http://www.w3.org/2000/svg" xmlns:xlink="http://www.w3.org/1999/xlink" preserveAspectRatio="xMidYMid meet" version="1.0" viewBox="-0.4 -0.1 499.2 407.5" zoomAndPan="magnify" style="fill: rgb(0, 0, 0);" original_string_length="10078"><g id="__id6_sjrfiqy6wc"><path d="M394.75,360.15c1.37,2.9,2,5.23,1.98,6.78c-0.01,1.05-0.28,1.91-0.69,2.58c-0.49,1.05-1.35,1.97-2.67,2.66 c-1.41,0.74-3.5,1.26-6.2,1.44c-8.48,0.59-23.91-1.83-41.44-5.81c-11.28,17.49-22.44,32.39-28.33,37.24 c-1.46,1.2-2.73,1.87-3.68,2.11c-0.82,0.21-1.53,0.17-2.15,0.01l-0.35-0.12c-0.73-0.3-1.51-0.86-2.23-1.76 c-1.06-1.29-2.17-3.56-3.22-6.67c-2.99-8.84-5.91-25.2-8.2-43.81c-20.91-6.48-38.53-13.14-44.43-17.11c-1.6-1.08-2.52-2.14-2.9-2.93 c-0.34-0.71-0.43-1.38-0.35-2.01c0.02-0.99,0.37-2.13,1.21-3.32c0.88-1.27,2.43-2.74,4.59-4.31c7.05-5.15,21.24-12,37.69-18.79 c-0.92-18.85-0.76-35.43,0.94-44.36c0.52-2.73,1.22-4.82,2.01-6.18c0.72-1.24,1.59-2.02,2.48-2.46c1.01-0.67,2.54-0.94,4.6-0.04 c2.5,1.11,6.78,4.46,12.11,9.47c6.91,6.51,15.8,15.86,25.13,26.34c15.39-4.9,28.79-8.33,36.2-8.97c2.82-0.24,4.93-0.04,6.18,0.44 c1.01,0.39,1.69,0.96,2.14,1.61c0.59,0.79,1.02,1.89,1.12,3.33c0.1,1.43-0.13,3.34-0.7,5.66c-1.87,7.48-7.51,19.85-14.92,33.77 C381.92,339.29,391.07,352.34,394.75,360.15z M323.06,197.07c1.84-2.15,2.77-4.14,2.96-5.81l0.02-0.33v-0.07 c-0.01-1.26-0.53-2.72-1.75-4.24c-1.93-2.39-5.98-5.33-11.87-8.53c-17.99-9.81-53.78-23.05-93.79-35.28 c-2.04-41.56-6.18-77.64-12.77-96.07c-1.87-5.22-3.99-9.11-6.24-11.48c-1.79-1.89-3.73-2.93-5.73-3.19c-1.59-0.51-3.62-0.41-6,0.56 c-2.86,1.14-6.48,3.61-10.68,7.25c-15.04,13.05-38.41,41.82-63.27,75.92c-35.72-7.9-66.97-12.86-84.76-12.32 c-4.97,0.14-8.95,0.73-11.77,1.74c-2.37,0.84-4.05,2.02-5.06,3.39c-0.97,1.16-1.57,2.91-1.49,5.28c0.08,2.64,0.99,6.31,2.69,10.84 c6.03,16.06,22.29,43.91,42.95,75.17c-17.69,27.58-33.17,53.52-43.38,73.12c-7.47,14.31-12.12,25.35-12.96,31.32 c-0.51,3.59,0.43,5.89,1.91,7.03c1.09,1.35,2.86,2.43,5.36,3.08c3.2,0.83,7.82,0.99,13.65,0.5c20.87-1.78,58.11-11.99,99.54-25.95 c25.41,32.53,49.63,60.09,65.48,72.54c4.41,3.47,8.23,5.8,11.3,6.87c2.43,0.85,4.52,0.94,6.18,0.46c1.1-0.13,2.23-0.71,3.26-1.91 c0.99-1.17,2.01-3.15,2.93-5.93c5.1-15.48,8.76-58.96,10.01-109.42c40.05-16.71,74.85-33.45,92.62-45.61 C317.23,202.67,320.85,199.65,323.06,197.07z M495.85,145.3c-5.42-11.43-18.4-30.96-33.89-51.57c14.03-21.49,25-40.97,28.4-52.59 c1.02-3.48,1.37-6.35,1.09-8.47c-0.24-1.84-0.93-3.24-1.96-4.25c-0.74-0.97-1.96-1.78-3.75-2.23c-1.94-0.48-4.77-0.59-8.36-0.28 c-12.26,1.06-34.31,6.89-59.09,14.86c-14.96-16.86-28.73-30.61-37.81-36.81c-2.66-1.81-4.98-3.01-6.85-3.56 c-1.73-0.51-3.2-0.51-4.36-0.14c-0.89,0.23-1.79,0.76-2.62,1.7c-1.18,1.35-2.38,3.91-3.38,7.56c-2.82,10.22-4.83,29.94-5.88,53 c-18.75,7.32-35.78,14.62-47.95,20.67c-9.13,4.54-15.59,8.47-18.23,11.21c-1.87,1.93-2.25,3.75-1.89,5.13 c0.09,1.23,0.64,2.59,1.79,3.98c1.36,1.65,3.71,3.51,6.94,5.46c11.07,6.7,33.29,15.12,58.99,23.2c0.9,25.42,3.02,47.89,6.41,59.86 c0.99,3.49,2.12,6.16,3.31,7.88c1.03,1.49,2.19,2.4,3.35,2.84c0.62,0.33,1.37,0.5,2.26,0.42c1.12-0.1,2.77-0.77,4.76-2.2 c8.2-5.9,25.81-26.23,44.8-50.98c26.05,6.17,49.43,10.41,62.73,10.8c3.77,0.11,6.78-0.1,8.9-0.61c1.94-0.47,3.28-1.24,4.1-2.11 l0.24-0.29l0.03-0.05c0.56-0.79,0.93-1.92,0.86-3.42C498.7,152.33,497.72,149.23,495.85,145.3z" style="fill: rgb(130, 114, 112);"/></g><g id="__id7_sjrfiqy6wc"><path clip-rule="evenodd" d="M301.21,258.38c0.66,0.35,2.08,1.15,3.31,2.09 c7.19,5.49,19.8,18.46,33.23,33.62c0.77,0.87,1.97,1.13,3,0.75c15.54-5,29.15-8.59,36.58-9.23c1.32-0.11,2.84,0.01,3.47,0.07 c0.02,0.19,0.05,0.44,0.05,0.64c-0.01,0.96-0.22,2.14-0.57,3.53c-1.83,7.36-7.51,19.57-14.86,33.3c-0.98,0.94-1.12,2.49-0.29,3.6 c0.08,0.12,0.17,0.23,0.26,0.33c11.36,14.42,20.73,27.59,24.41,35.41c0.57,1.21,0.99,2.26,1.24,3.16c0.12,0.42,0.18,0.97,0.2,1.18 l-0.16,0.31c-0.08,0.05-0.39,0.25-0.63,0.34c-0.92,0.37-2.16,0.56-3.66,0.67c-8.46,0.59-24.09-2.04-41.71-6.11l-0.36-0.06 c-0.42-0.04-0.83,0.02-1.21,0.16l-0.18,0.08c-0.37,0.16-0.7,0.41-0.97,0.73l-0.21,0.29c-9.88,15.44-19.72,29.05-25.98,35.46 c-1.13,1.16-2.46,2.18-3.21,2.73c-0.09-0.13-0.19-0.27-0.26-0.4c-0.59-1.03-1.17-2.44-1.75-4.17c-3.01-8.91-5.9-25.61-8.16-44.48 c-0.14-1.16-0.99-2.07-2.06-2.33c-18.37-5.65-34.36-11.42-42.01-15.43c-1.26-0.66-2.5-1.52-3.15-2c0.08-0.13,0.19-0.28,0.28-0.39 c0.69-0.82,1.73-1.7,3.06-2.67c6.96-5.08,21.1-11.81,37.42-18.5h0.03c1.5-0.08,2.66-1.36,2.59-2.86c0-0.13-0.01-0.26-0.02-0.39 c-0.99-19-0.94-35.86,0.77-44.79c0.32-1.69,0.69-3.06,1.15-4.05C300.95,258.77,301.1,258.54,301.21,258.38L301.21,258.38z" fill-rule="evenodd" style="fill: rgb(235, 210, 156);"/></g><g id="__id8_sjrfiqy6wc"><path clip-rule="evenodd" d="M192.24,37.28c0.13,0.06,0.26,0.1,0.4,0.13 c0.14,0.03,0.28,0.05,0.42,0.06c1.26,0.11,2.32,1.08,3.41,2.52c1.53,2.02,2.92,4.92,4.23,8.58c6.59,18.41,10.57,54.74,12.56,96.41 l0.04,0.36c0.07,0.42,0.24,0.79,0.48,1.12l0.12,0.16c0.26,0.31,0.58,0.56,0.97,0.73l0.34,0.13c40.29,12.25,76.53,25.56,94.6,35.41 c4.38,2.39,7.65,4.53,9.53,6.41c0.39,0.39,0.72,0.76,0.96,1.12c0.11,0.16,0.22,0.28,0.26,0.41c-0.14,0.8-0.77,1.67-1.65,2.69 c-1.98,2.32-5.27,4.98-9.62,7.96c-17.82,12.18-52.97,29-93.28,45.76c-1.11,0.46-1.75,1.56-1.68,2.69 c-1.05,44.17-3.9,83.13-8.01,102.55c-0.84,3.94-1.71,7.05-2.65,9.15c-0.34,0.76-0.9,1.56-1.09,1.83l-0.08,0.02l-0.41,0.12 c-0.76,0.28-1.73,0.06-2.89-0.36c-2.65-0.92-5.91-3.01-9.72-6c-15.69-12.32-39.65-39.7-64.81-71.94c-0.02-0.17-0.06-0.34-0.12-0.52 c-0.48-1.43-2.04-2.2-3.47-1.72l-0.11,0.03c-0.18,0.04-0.37,0.11-0.54,0.19c-41.52,14.05-78.94,24.43-99.81,26.21 c-5.03,0.43-9.04,0.37-11.81-0.34c-1.18-0.31-2.09-0.64-2.53-1.31l-0.08-0.11L5.9,307.4l-0.36-0.3c-0.02-0.33-0.08-1.26,0.03-2 c0.33-2.33,1.33-5.5,2.88-9.4c7.67-19.3,28.48-55.25,53.61-94.35c0.64-1,0.56-2.26-0.13-3.16c-20.79-31.35-37.23-59.34-43.27-75.39 c-1.21-3.22-1.99-5.93-2.25-8.04c-0.09-0.69-0.12-1.31-0.07-1.84c0.03-0.33,0.02-0.61,0.18-0.78c0.11-0.11,0.2-0.23,0.28-0.35 c0.49-0.61,1.34-1.03,2.43-1.42c2.43-0.86,5.85-1.3,10.11-1.43c17.57-0.53,48.5,4.47,83.83,12.29c0.04,0.03,0.08,0.06,0.12,0.09 c1.22,0.89,2.94,0.62,3.83-0.61l0.02-0.03c0.13-0.14,0.25-0.31,0.35-0.48c24.88-34.19,48.28-63.16,63.3-76.21 c3.61-3.13,6.68-5.32,9.13-6.31C190.88,37.32,191.64,37.04,192.24,37.28L192.24,37.28z" fill-rule="evenodd" style="fill: rgb(238, 187, 196);"/></g><g id="__id9_sjrfiqy6wc"><path clip-rule="evenodd" d="M414.68,44.95c0.51,1.35,1.98,2.09,3.37,1.66 c0.16-0.03,0.31-0.08,0.46-0.14c24.88-8.05,47.1-14.04,59.35-15.1c2.4-0.21,4.38-0.23,5.87,0.01c0.57,0.08,1.31,0.37,1.44,0.42 c0.06,0.08,0.11,0.15,0.17,0.23c0.09,0.11,0.19,0.21,0.3,0.29c0.4,0.35,0.42,0.98,0.43,1.74c0.03,1.49-0.33,3.35-0.97,5.55 c-3.4,11.59-14.62,31.19-28.78,52.73l-0.18,0.31c-0.18,0.38-0.27,0.78-0.27,1.19l0.01,0.19c0.03,0.4,0.14,0.8,0.35,1.17l0.2,0.3 c15.71,20.8,29.01,40.64,34.47,52.15c1.08,2.28,1.84,4.21,2.22,5.71c0.1,0.41,0.15,0.93,0.18,1.24c-0.43,0.21-1.07,0.29-1.86,0.42 c-1.72,0.28-3.95,0.36-6.62,0.29c-13.36-0.39-37.07-4.77-63.35-11.06c-1.15-0.28-2.31,0.22-2.92,1.15 c-16.6,21.72-32.2,40.19-41.32,48.41c-1.46,1.32-2.74,2.36-3.82,3.08c-0.47,0.31-1.04,0.6-1.34,0.74l-0.04-0.02 c-0.16-0.04-0.26-0.21-0.41-0.37c-0.26-0.29-0.5-0.66-0.74-1.09c-0.78-1.37-1.48-3.28-2.15-5.62c-3.36-11.84-5.37-34.14-6.23-59.31 c0.03-0.07,0.05-0.13,0.07-0.2c0.45-1.44-0.36-2.98-1.81-3.43l-0.02-0.01c-0.14-0.06-0.29-0.11-0.44-0.14 c-25.87-8.07-48.35-16.47-59.43-23.17c-2.18-1.32-3.89-2.54-5.03-3.69c-0.35-0.35-0.64-0.69-0.85-1.02 c-0.11-0.16-0.23-0.28-0.22-0.42l-0.02-0.43c0.6-0.57,2.75-2.56,5.07-4.02c10.87-6.88,34.38-17.29,61.21-27.72 c1.09-0.43,1.76-1.48,1.74-2.59c1.01-23.23,2.95-43.19,5.77-53.41c0.54-1.97,1.1-3.53,1.71-4.64c0.17-0.31,0.47-0.69,0.58-0.82 l0.1-0.03c0.47-0.12,1.06,0.12,1.79,0.41c1.33,0.51,2.89,1.41,4.66,2.61C386.34,14.6,399.91,28.27,414.68,44.95L414.68,44.95z" fill-rule="evenodd" style="fill: rgb(235, 210, 156);"/></g><g id="__id10_sjrfiqy6wc"><path clip-rule="evenodd" d="M329.49,361.11c-3.04,5.76-5.64,11.62-8.39,17.5 c-0.64,1.37-0.05,3.01,1.32,3.64c1.37,0.64,3,0.05,3.64-1.32c2.71-5.8,5.27-11.59,8.27-17.26c0.71-1.33,0.19-2.99-1.14-3.7 C331.86,359.26,330.2,359.77,329.49,361.11L329.49,361.11z M361.51,341.81c4.5,4.3,8.84,9,12.54,14c0.9,1.22,2.62,1.47,3.83,0.57 c1.22-0.9,1.47-2.62,0.57-3.83c-3.89-5.26-8.44-10.2-13.16-14.7c-1.09-1.04-2.83-1.01-3.87,0.09 C360.38,339.03,360.42,340.76,361.51,341.81L361.51,341.81z M186.61,264.18c2.08,19.59,5.44,39.79,3.18,59.51 c-0.43,3.76,2.27,7.16,6.03,7.58c3.76,0.43,7.16-2.27,7.58-6.03c2.37-20.71-0.99-41.93-3.17-62.52c-0.4-3.76-3.77-6.49-7.53-6.09 C188.93,257.04,186.21,260.42,186.61,264.18L186.61,264.18z M364.42,294.31c-1.07,6.87-3.23,13.46-7.16,19.24 c-0.85,1.25-0.52,2.96,0.73,3.81c1.25,0.85,2.96,0.52,3.81-0.73c4.38-6.46,6.84-13.8,8.04-21.48c0.23-1.49-0.79-2.89-2.28-3.13 C366.06,291.79,364.66,292.82,364.42,294.31L364.42,294.31z M305.97,276.5c5.11,6.13,10.31,12.03,14,19.16 c0.7,1.34,2.35,1.87,3.7,1.17c1.34-0.69,1.87-2.34,1.18-3.69c-3.88-7.49-9.3-13.71-14.67-20.15c-0.97-1.16-2.7-1.32-3.86-0.35 C305.15,273.62,304.99,275.34,305.97,276.5L305.97,276.5z M219.2,170.76c9.02,4.93,19.17,8.08,29.1,11.6 c8.83,3.13,17.5,6.55,24.66,12.41c2.92,2.4,7.25,1.97,9.64-0.96c2.39-2.92,1.97-7.25-0.96-9.64c-8.38-6.87-18.42-11.06-28.76-14.72 c-9.24-3.28-18.72-6.13-27.11-10.71c-3.32-1.81-7.48-0.59-9.3,2.73C214.66,164.78,215.89,168.95,219.2,170.76L219.2,170.76z M451.7,121.02c7.57,5.57,13.3,11.72,19.16,19c1.42,1.77,4.01,2.04,5.78,0.62c1.77-1.42,2.05-4.01,0.63-5.78 c-6.32-7.85-12.53-14.45-20.69-20.46c-1.83-1.34-4.4-0.96-5.75,0.87C449.48,117.09,449.87,119.67,451.7,121.02L451.7,121.02z M179.32,64.1c5.41,20.59,7.68,41,8.51,62.22c0.14,3.78,3.33,6.73,7.11,6.58c3.78-0.14,6.73-3.33,6.58-7.11 c-0.87-22.23-3.28-43.6-8.95-65.17c-0.96-3.66-4.71-5.85-8.37-4.88C180.55,56.7,178.36,60.45,179.32,64.1L179.32,64.1z M468.78,44.24c-4.45,11.37-10.18,22.7-17.17,32.71c-1.3,1.86-0.84,4.42,1.02,5.72c1.86,1.3,4.42,0.84,5.72-1.02 c7.35-10.53,13.4-22.46,18.08-34.42c0.83-2.12-0.22-4.5-2.33-5.33C471.99,41.08,469.61,42.13,468.78,44.24L468.78,44.24z M378.47,27.35c4.21,6.3,9.43,12.01,13.36,18.48c1.18,1.94,3.71,2.56,5.65,1.37c1.94-1.18,2.56-3.71,1.38-5.65 c-3.99-6.57-9.27-12.37-13.55-18.77c-1.26-1.89-3.82-2.39-5.71-1.14C377.72,22.9,377.21,25.46,378.47,27.35L378.47,27.35z" fill-rule="evenodd" style="fill: rgb(240, 244, 248);"/></g></svg>