<svg xmlns="http://www.w3.org/2000/svg" xmlns:xlink="http://www.w3.org/1999/xlink" preserveAspectRatio="xMidYMid meet" version="1.0" viewBox="0.0 0.0 566.9 214.0" zoomAndPan="magnify" style="fill: rgb(0, 0, 0);" original_string_length="932"><defs><clipPath id="__id123_smaz57oce"><path d="M 0 0 L 566.929688 0 L 566.929688 214 L 0 214 Z M 0 0"/></clipPath></defs><g><g clip-path="url(#__id123_smaz57oce)" id="__id124_smaz57oce"><path d="M 134.941406 76 C 166.941406 119 237.941406 134 263.941406 98 C 289.941406 62 324.941406 24 360.941406 58 C 396.941406 92 355.941406 130 373.941406 178 C 391.941406 226 449.941406 188 457.941406 148 C 465.941406 108 506.941406 110 506.941406 146 C 506.941406 182 529.941406 227 561.941406 209 C 563.730469 207.992188 565.390625 206.339844 566.929688 204.125 L 566.929688 0 L 0 0 L 0 98.214844 C 7.726562 104.621094 20.761719 112.453125 41.941406 118 C 83.941406 129 102.941406 33 134.941406 76" style="fill: #f8ca43;"/></g></g></svg>