<svg fill="none" preserveAspectRatio="xMidYMid meet" style="fill: none;" version="1.0" viewBox="200.8 284.2 1613.3 1200.7" xmlns="http://www.w3.org/2000/svg" xmlns:xlink="http://www.w3.org/1999/xlink" zoomAndPan="magnify" original_string_length="8328"><g clip-path="url(#__id878_suglsebx0a)"><path d="M201.039 1260.16C515.359 1281.48 835.999 1196.2 1098.2 1021.52C1360.4 846.84 1562.6 583.8 1664 285.52" stroke="#fff" stroke-miterlimit="10" stroke-width="8" style="fill: inherit;"/><g id="__id854_suglsebx0a"><path d="M389.039 1375.48L471.519 1465.12C477.639 1471.76 488.679 1466.96 487.999 1457.96L471.519 1237.04C471.119 1231.8 466.559 1227.88 461.319 1228.28L280.839 1241.76C275.599 1242.16 271.679 1246.72 272.079 1251.96L288.559 1472.88C289.239 1481.88 300.839 1484.96 305.919 1477.48L374.199 1376.6C377.599 1371.48 384.879 1370.96 389.039 1375.48Z" style="fill: rgb(255, 255, 255);"/></g><mask height="254" id="__id855_suglsebx0a" maskUnits="userSpaceOnUse" style="mask-type:luminance" width="217" x="272" y="1228"><g id="__id856_suglsebx0a"><path d="M389.039 1375.48L471.519 1465.12C477.639 1471.76 488.679 1466.96 487.999 1457.96L471.519 1237.04C471.119 1231.8 466.559 1227.88 461.319 1228.28L280.839 1241.76C275.599 1242.16 271.679 1246.72 272.079 1251.96L288.559 1472.88C289.239 1481.88 300.839 1484.96 305.919 1477.48L374.199 1376.6C377.599 1371.48 384.879 1370.96 389.039 1375.48Z" style="fill: rgb(255, 255, 255);"/></g></mask><g id="__id857_suglsebx0a" mask="url(#__id855_suglsebx0a)"><path d="M454.118 1192.72C457.238 1194.96 458.758 1198.84 457.918 1202.6C431.358 1319.84 388.998 1439.52 299.038 1518.96C274.598 1540.56 243.118 1559.56 211.118 1553.28C177.838 1546.8 155.478 1515.16 143.158 1483.6C108.878 1395.92 128.638 1289.56 192.118 1220.08C254.478 1151.76 356.118 1122.28 454.118 1192.72Z" opacity=".102" style="fill: rgb(255, 255, 255);"/></g><g id="__id858_suglsebx0a"><path d="M1005 1218.4L1115.84 1268.88C1124.04 1272.6 1132.36 1263.92 1128.24 1255.88L1027.12 1058.76C1024.72 1054.08 1019 1052.24 1014.32 1054.64L853.279 1137.28C848.599 1139.68 846.759 1145.4 849.159 1150.08L950.279 1347.2C954.399 1355.2 966.319 1353.56 968.039 1344.72L991.679 1225.2C992.919 1219.2 999.439 1215.88 1005 1218.4Z" style="fill: rgb(255, 255, 255);"/></g><mask height="300" id="__id859_suglsebx0a" maskUnits="userSpaceOnUse" style="mask-type:luminance" width="282" x="848" y="1053"><g id="__id860_suglsebx0a"><path d="M1005 1218.4L1115.84 1268.88C1124.04 1272.6 1132.36 1263.92 1128.24 1255.88L1027.12 1058.76C1024.72 1054.08 1019 1052.24 1014.32 1054.64L853.279 1137.28C848.599 1139.68 846.759 1145.4 849.159 1150.08L950.279 1347.2C954.399 1355.2 966.319 1353.56 968.039 1344.72L991.679 1225.2C992.919 1219.2 999.439 1215.88 1005 1218.4Z" style="fill: rgb(255, 255, 255);"/></g></mask><g id="__id861_suglsebx0a" mask="url(#__id859_suglsebx0a)"><path d="M993.878 1024.76C997.638 1025.6 1000.56 1028.6 1001.2 1032.36C1022.32 1150.72 1029.88 1277.44 977.918 1385.6C963.798 1415 942.199 1444.76 910.279 1451.44C877.119 1458.4 844.198 1437.96 820.558 1413.68C754.878 1346.24 731.718 1240.6 763.118 1151.88C794.038 1064.68 876.198 997.959 993.878 1024.76Z" opacity=".102" style="fill: rgb(255, 255, 255);"/></g><g id="__id862_suglsebx0a"><path d="M1512 798.92L1633.68 804.8C1642.68 805.24 1647.16 794.08 1640.4 788.16L1473.48 642.48C1469.52 639.04 1463.52 639.44 1460.08 643.4L1341.08 779.76C1337.64 783.72 1338.04 789.72 1342 793.16L1508.92 938.84C1515.72 944.76 1526.16 938.8 1524.52 929.96L1502.24 810.2C1501.08 804.12 1505.88 798.64 1512 798.92Z" style="fill: rgb(255, 255, 255);"/></g><mask height="302" id="__id863_suglsebx0a" maskUnits="userSpaceOnUse" style="mask-type:luminance" width="306" x="1338" y="640"><g id="__id864_suglsebx0a"><path d="M1512 798.92L1633.68 804.8C1642.68 805.24 1647.16 794.08 1640.4 788.16L1473.48 642.48C1469.52 639.04 1463.52 639.44 1460.08 643.4L1341.08 779.76C1337.64 783.72 1338.04 789.72 1342 793.16L1508.92 938.84C1515.72 944.76 1526.16 938.8 1524.52 929.96L1502.24 810.2C1501.08 804.12 1505.88 798.64 1512 798.92Z" style="fill: rgb(255, 255, 255);"/></g></mask><g id="__id865_suglsebx0a" mask="url(#__id863_suglsebx0a)"><path d="M1430 623.159C1433.8 622.559 1437.6 624.239 1439.64 627.519C1503.08 729.639 1557 844.559 1548.76 964.319C1546.52 996.879 1537.48 1032.48 1510.28 1050.52C1482.04 1069.24 1443.92 1062.44 1412.96 1048.64C1327 1010.32 1266.36 920.719 1262.72 826.679C1259.12 734.199 1310.76 641.839 1430 623.159Z" opacity=".102" style="fill: rgb(255, 255, 255);"/></g><g id="__id866_suglsebx0a"><path d="M706.12 1332.32L800.76 1409C807.76 1414.68 818 1408.32 816 1399.52L767.56 1183.32C766.4 1178.2 761.32 1174.96 756.2 1176.12L579.6 1215.68C574.48 1216.84 571.24 1221.92 572.4 1227.04L620.84 1443.24C622.8 1452.04 634.76 1453.4 638.68 1445.28L691.56 1335.52C694.24 1330.04 701.36 1328.48 706.12 1332.32Z" style="fill: rgb(63, 111, 155);"/></g><mask height="276" id="__id867_suglsebx0a" maskUnits="userSpaceOnUse" style="mask-type:luminance" width="245" x="572" y="1175"><g id="__id868_suglsebx0a"><path d="M706.12 1332.32L800.76 1409C807.76 1414.68 818 1408.32 816 1399.52L767.56 1183.32C766.4 1178.2 761.32 1174.96 756.2 1176.12L579.6 1215.68C574.48 1216.84 571.24 1221.92 572.4 1227.04L620.84 1443.24C622.8 1452.04 634.76 1453.4 638.68 1445.28L691.56 1335.52C694.24 1330.04 701.36 1328.48 706.12 1332.32Z" style="fill: rgb(255, 255, 255);"/></g></mask><g id="__id869_suglsebx0a" mask="url(#__id867_suglsebx0a)"><path d="M743.96 1142.08C747.36 1143.84 749.44 1147.44 749.16 1151.28C739.92 1271.16 715.44 1395.72 637.96 1487.4C616.92 1512.32 588.56 1535.68 555.96 1534.16C522.12 1532.56 495.4 1504.52 478.6 1475.08C431.96 1393.32 436.04 1285.24 488.72 1207.24C540.48 1130.56 636.76 1086.6 743.96 1142.08Z" opacity=".102" style="fill: rgb(255, 255, 255);"/></g><g id="__id870_suglsebx0a"><path d="M1289.2 1033.48L1406.52 1066.2C1415.2 1068.6 1422.04 1058.72 1416.76 1051.44L1286.32 872.36C1283.24 868.12 1277.28 867.2 1273.04 870.28L1126.72 976.84C1122.48 979.92 1121.56 985.88 1124.64 990.12L1255.08 1169.2C1260.4 1176.48 1271.88 1173 1272.24 1164L1277.12 1042.28C1277.4 1036.12 1283.32 1031.84 1289.2 1033.48Z" style="fill: rgb(63, 111, 155);"/></g><mask height="306" id="__id871_suglsebx0a" maskUnits="userSpaceOnUse" style="mask-type:luminance" width="297" x="1122" y="868"><g id="__id872_suglsebx0a"><path d="M1289.2 1033.48L1406.52 1066.2C1415.2 1068.6 1422.04 1058.72 1416.76 1051.44L1286.32 872.36C1283.24 868.12 1277.28 867.2 1273.04 870.28L1126.72 976.84C1122.48 979.92 1121.56 985.88 1124.64 990.12L1255.08 1169.2C1260.4 1176.48 1271.88 1173 1272.24 1164L1277.12 1042.28C1277.4 1036.12 1283.32 1031.84 1289.2 1033.48Z" style="fill: rgb(255, 255, 255);"/></g></mask><g id="__id873_suglsebx0a" mask="url(#__id871_suglsebx0a)"><path d="M1248.24 843.88C1252.08 844.16 1255.4 846.64 1256.68 850.28C1295.88 963.92 1322.96 1087.96 1288.36 1202.88C1278.96 1234.12 1262.24 1266.84 1231.72 1278.4C1200.04 1290.4 1164.36 1275.28 1137.24 1254.96C1061.92 1198.52 1022.68 1097.72 1040 1005.2C1057 914.24 1127.84 835.64 1248.24 843.88Z" opacity=".102" style="fill: rgb(255, 255, 255);"/></g><g id="__id874_suglsebx0a"><path d="M1682.04 537.12L1802.76 520.68C1811.68 519.48 1814.08 507.68 1806.32 503.08L1615.64 390.28C1611.12 387.6 1605.28 389.12 1602.64 393.64L1510.52 549.44C1507.84 553.96 1509.36 559.8 1513.88 562.44L1704.56 675.24C1712.32 679.84 1721.52 672.04 1718.28 663.64L1674.52 549.96C1672.24 544.2 1675.96 537.92 1682.04 537.12Z" style="fill: rgb(63, 111, 155);"/></g><mask height="289" id="__id875_suglsebx0a" maskUnits="userSpaceOnUse" style="mask-type:luminance" width="302" x="1509" y="388"><g id="__id876_suglsebx0a"><path d="M1682.04 537.12L1802.76 520.68C1811.68 519.48 1814.08 507.68 1806.32 503.08L1615.64 390.28C1611.12 387.6 1605.28 389.12 1602.64 393.64L1510.52 549.44C1507.84 553.96 1509.36 559.8 1513.88 562.44L1704.56 675.24C1712.32 679.84 1721.52 672.04 1718.28 663.64L1674.52 549.96C1672.24 544.2 1675.96 537.92 1682.04 537.12Z" style="fill: rgb(255, 255, 255);"/></g></mask><g id="__id877_suglsebx0a" mask="url(#__id875_suglsebx0a)"><path d="M1569.32 379.239C1572.96 377.959 1577 378.919 1579.6 381.759C1660.6 470.599 1734.6 573.759 1748.32 692.999C1752.04 725.399 1749.68 762.079 1726.24 784.759C1701.88 808.319 1663.16 808.599 1630.2 800.679C1538.68 778.679 1462.72 701.679 1441.96 609.839C1421.6 519.599 1455.52 419.359 1569.32 379.239Z" opacity=".102" style="fill: rgb(255, 255, 255);"/></g></g><defs><clipPath id="__id878_suglsebx0a"><path d="M0 0H2000V2000H0z" style="fill: rgb(255, 255, 255);"/></clipPath></defs></svg>