<?xml version="1.0" encoding="UTF-8"?><svg xmlns="http://www.w3.org/2000/svg" xmlns:xlink="http://www.w3.org/1999/xlink" height="1042.4" preserveAspectRatio="xMidYMid meet" version="1.0" viewBox="-2.3 -3.4 503.9 1042.4" width="503.9" zoomAndPan="magnify"><g><g id="change1_1"><path d="M492.94,167.16c-9.1-22.03-40.01-15.05-57.38-9.73-34.04,10.42-63.63,33.06-84.04,62.09-13.19-9.41-14.98-26.79-13.66-42.97,1.66-20.32,4.6-40.54,6.29-60.88,.04-.48,.07-.97,.11-1.45,.69-.2,1.33-.65,1.81-1.32,18.06-25.11,42.16-45.58,69.81-59.43,11.59-5.81,25.96-13.37,39.38-11.83,5.83,.67,11.36,3.62,10.67,10.29-.76,7.34-8.42,15.46-13.07,20.86-9,10.45-19.71,19.16-31.6,26,3.86-8.41,5.65-18.45-1.7-24.5-10.71-8.82-24.53,3.21-32.97,9.8-7.76,6.06-20.21,18.86-10.93,28.97,4.32,4.71,10.31,5.22,16.2,3.88,7.98-1.81,15.69-4.73,23.13-8.11,16.04-7.56,30.52-18.35,42.11-31.8,7.71-8.95,23.13-26.7,9.66-37.34-10.61-8.38-26.5-3.02-37.51,1.3-16.5,6.47-32.12,15.15-46.28,25.81-14.32,10.78-27.03,23.39-37.96,37.54,.24-3.16,.46-6.33,.68-9.49,3.35-5.42,4.99-12.12,4.08-18-.42-2.72-1.24-6.01-2.51-9.18,.26-5.61,.49-11.22,.67-16.83,.52-16.02,.14-35.02-14.02-45.51-11.73-8.69-27.67-7-34.55,6.67-7.38,14.65-6.78,34.08-3.11,49.64,2.04,8.66,5.41,17.06,9.94,24.72,3.93,6.65,8.91,14.16,16.23,17.37,3.89,1.71,7.6,1.88,10.97,.98,1.59,2.16,3.32,4.22,5.21,6.15-1.05,12.61-2.29,25.19-3.65,37.74-2.77,25.49-9.99,59.71,13.19,75.85-6.04,9.27-11.17,19.12-15.22,29.4-4.82,12.22-8.02,25.03-9.5,38.08-1.05,9.23-1.02,18.53-1.31,27.81-4.86-11.01-10.02-21.89-15.52-32.6-13.41-26.12-28.7-51.28-45.71-75.22-15.23-21.43-31.39-43.81-52.4-59.98-15.17-11.67-47.97-29.07-63.41-8.7-6.68,8.81-5.94,20.96-4.11,31.24,2.26,12.71,5.85,25.3,9.92,37.54,8,24.02,18.85,47.11,32.22,68.61,13.65,21.95,29.93,42.33,48.41,60.41,9.21,9,18.94,17.69,29.36,25.27,10.28,7.48,22.88,14.21,36.02,12.18,2.5-.39,4.8-1.01,6.91-1.84-.1,7.42-.56,14.83-1.36,22.2-1.61,14.95-4.57,29.74-8.28,44.3-3.56,14-9.44,28.03-10.79,42.47-.74,7.97,.73,15.81,4.73,22.28-2.4,4.58-4.71,9.21-6.9,13.87-7.5,15.95-14,32.35-20.39,48.77-5.83,14.98-10.62,31.39-19.53,44.9-2.73,4.15-5.93,7.48-9.48,10-.27-4.27-.88-8.57-1.92-12.93-.38-1.58-.81-3.13-1.27-4.67,2.66-2,4.44-5.05,4.28-8.62-.3-6.6-5.35-13.92-8.21-19.7-3.57-7.22-7.37-14.33-11.37-21.32-8.14-14.23-17.15-27.97-26.94-41.12-9.43-12.66-19.56-24.81-30.37-36.31-10.37-11.03-21.27-22.31-33.39-31.45-16.21-12.22-49.95-25.49-60.39,1.01-5.3,13.44,1.2,28.33,7.08,40.42,7.13,14.66,15.23,28.83,24.22,42.43,17.49,26.44,38.29,50.71,61.82,71.95,17.71,15.98,45.03,39.69,70.57,30.54-.25,4.87-.93,9.75-2.06,14.6-6.8,29.36-25.05,54.58-32.09,83.88-3.02,12.59-4.86,27.88,1.59,39.74-8.25,14.77-13.6,31.24-17.26,47.73-3.01,13.56-5.01,32.65-12.55,46.09-1.15-2.74-2.39-5.41-3.75-8.02,1.77-6.63-.38-14.57-3.92-20.81-7.07-12.46-19.11-22.47-29.63-31.96-11.22-10.13-23.12-19.62-35.97-27.61-12.22-7.59-25.43-13.85-39.36-17.54-12.08-3.2-27.84-6.28-40.01-1.99-13.19,4.65-13.1,18.18-6.79,28.62,3.78,6.25,8.84,11.79,13.45,17.42,4.71,5.76,9.49,11.48,14.38,17.08,19.16,21.93,40.73,42.89,67.11,55.9,12.88,6.35,28.01,12.36,42.62,10.79,7.92-.85,14.5-4.3,19.74-9.36,.44,1.36,.87,2.71,1.28,4.07,4.66,15.49,7.61,31.5,11.02,47.3,7.47,34.56,14.93,69.13,22.4,103.69,.81,3.77,6.6,2.18,5.79-1.59-7.83-36.23-15.65-72.45-23.48-108.68-3.46-16.03-6.42-33.93-12.22-50.36,2.06-2.87,3.82-6.02,5.27-9.36,6.15-14.21,7.54-29.86,11.02-44.81,3.31-14.22,7.86-28.25,14.69-41.17,8.3,9.02,21.42,9.34,32.98,6.57,15.98-3.83,31.64-10.72,46.62-17.37,16.31-7.23,32.18-15.46,47.49-24.62,13.21-7.91,26.61-16.19,36.02-28.66,7.83-10.39,11.78-24.12,4.48-35.93-14.04-22.71-49.3-15.73-70.02-8.99-27.52,8.95-52.53,25.87-70.87,48.27-6.89,8.42-18.32,21.24-14.23,32.92-4.71,4.97-8.85,10.35-12.49,16.04-3-8.68-2.13-19.69-.46-27.99,3.01-14.9,9.24-28.86,15.53-42.61,9.42-20.57,19.03-41.76,19.69-64.11,.22-.12,.43-.24,.65-.37,11.77-7.13,18.05-20.14,23.09-32.41,6.73-16.41,12.79-33.09,19.49-49.51,5.15-12.62,10.69-25.29,16.97-37.56,.84,.86,1.74,1.68,2.71,2.45,.53,4.8,2.56,9.17,6.92,11.78,6.44,3.85,13.38,2.06,20.13,.24,14.74-3.98,29.09-9.44,42.8-16.16,27.41-13.43,52.35-32.12,72.83-54.77,7.52-8.31,21.19-20.77,13.91-33.06-6.02-10.15-20.98-11.4-31.43-11.66-29.72-.76-58.08,12.17-80.83,30.55-20.06,16.21-35.35,36.98-47.75,59.37-4.56-10.68-.82-24.43,2.47-35.4,4.49-14.99,8.5-30.11,11.33-45.5,2.87-15.6,4.61-31.54,4.61-47.45,5.53-3.9,9.37-9.57,12.05-16.08,1.22-.6,2.4-1.41,3.5-2.46,6.29-6.05,4.74-14.91,2.02-22.54,.44-4.6,.66-9.08,.81-13.2,.53-14.79,.68-29.2,4.16-43.68,3.36-13.98,8.79-27.39,15.93-39.86,1.58-2.76,3.25-5.47,4.99-8.14,.37,.19,.75,.37,1.14,.55-2.07,7.47,.46,14.84,8.16,18.43,9.43,4.4,21.13,2.71,31.04,1.39,25.39-3.37,49.98-13.06,70.77-28.05,15.08-10.88,37.24-31.55,28.52-52.64Zm-111.3-56.81c-9.91-6.55,4.85-18.73,10.03-22.64,5.65-4.27,17.64-15.08,24.57-8.37,6.22,6.02-.57,18.41-4.75,24.52-4.61,2.08-9.32,3.9-14.17,5.38-4.73,1.45-11.09,4.15-15.69,1.11Zm-46.1-13.19c-5.66-9.05-9.13-19.93-7.87-29.99,.34-2.7,1.9-4.95,4.71-5.49,3.97-.77,6.04,2.44,7.69,5.46,.45,.81,.85,1.64,1.24,2.47-.35,7.76-.8,15.52-1.33,23.28-1.22,1.64-2.72,3.14-4.44,4.27Zm-16.97-3.73c-4.98-5.43-8.83-12.3-11.77-19.02-6-13.7-8.22-29.11-6.31-43.94,.89-6.9,2.4-14.98,7.3-20.26,4.82-5.19,12.01-5.39,18.16-2.63,14.97,6.7,16.38,24.55,16.11,38.92-.08,4.15-.19,8.31-.33,12.46-1.28-1.21-2.71-2.17-4.32-2.73-5.58-1.95-12.09,.68-14.62,6.06-3.41,7.24-.39,18.7,2.02,25.87,1.29,3.84,2.96,7.52,4.96,11-4.41,.22-8.26-2.5-11.22-5.73Zm20.42,8.68c.12-.08,.23-.17,.34-.25-.02,.21-.03,.42-.05,.62-.1-.12-.2-.25-.29-.37ZM136.36,883.87c-13.35-.28-26.94-6.18-38.53-12.41-11.15-5.99-21.46-13.43-31.01-21.71-18.7-16.22-34.65-35.31-50.17-54.51-3.98-4.93-8.62-10.14-10.39-16.38-2.28-8.02,2.86-13,10.31-14.31,12.13-2.13,25.86,.8,37.44,4.38,24.96,7.72,46.81,23.39,66.13,40.58,9.21,8.2,19.29,16.78,26.75,26.65,3.17,4.2,6.2,9.08,7.34,14.32-2.9-4.16-6.21-8.05-10.02-11.54-7.76-7.12-22.92-17.68-33.12-9.43-11.36,9.19,.15,23.36,8.01,30.25,8.16,7.16,21.11,15.69,32.26,10.09,1.92-.96,3.49-2.13,4.76-3.45,1.14,2.5,2.18,5.04,3.15,7.61-5.27,6.17-12.54,10.08-22.91,9.86Zm16.7-23.59c-1.88,3.19-5.26,5.32-9.51,5.32-11.19-.02-24.85-11.7-29.71-21.22-2.01-3.93-2.35-8.59,2.2-10.99,3.47-1.83,7.1-.46,10.4,.98,5.64,2.45,10.75,6,15.11,10.32,4.63,4.59,8.39,9.9,11.51,15.6Zm47.67-87.13c3.63-5.98,7.78-11.55,12.52-16.66,9.01,7.39,25.27,4.09,35.25,.77,6.42-2.14,12.56-5.21,18.05-9.16,4.35-3.13,10.04-6.88,10.01-12.88-.05-14.06-18.7-9.91-27.07-7.7-12.96,3.43-24.75,10.32-34.75,19.16-.22-6.67,6.01-14.07,9.54-18.84,4.5-6.08,9.55-11.78,14.96-17.06,10.66-10.41,22.91-19.13,36.17-25.91,13.46-6.88,28.06-11.71,43.01-14.02,12.24-1.89,28.07-1.7,37.69,7.31,12.92,12.1,4.34,29.23-5.9,39.68-11.75,12.01-27.4,20.36-41.98,28.42-15.66,8.66-31.84,16.38-48.45,23.03-7.98,3.2-16.06,6.26-24.25,8.89-7.55,2.42-15.98,4.62-23.91,2.84-5.11-1.15-8.75-3.75-11.29-7.22,.13-.21,.25-.43,.38-.65Zm16.72-20.82c6.93-6.37,14.76-11.71,23.43-15.48,4.81-2.09,9.88-3.67,15.03-4.64,3.63-.69,12.74-3.19,14.44,1.67,1.54,4.4-5.89,8.47-8.83,10.42-4.31,2.86-8.95,5.21-13.84,6.91-4.87,1.69-9.94,2.82-15.08,3.19-4.59,.33-11.16,.88-15.14-2.07Zm-17.35-123.51c-15.52-5.52-28.45-17.03-40.49-27.89-24.23-21.86-45.55-46.91-63.23-74.33-8.67-13.44-16.55-27.45-23.36-41.93-5.9-12.54-12.69-33.69,3.52-41.8,11.63-5.82,26.67,1.05,36.66,7.26,13.13,8.16,24.35,20.1,35.02,31.16,22.59,23.43,42.31,49.58,58.65,77.73,4.04,6.96,7.88,14.05,11.5,21.25,1.81,3.6,3.57,7.22,5.27,10.87,1.34,2.87,3.47,7.19,2.72,10.09-9.75-25-30.38-45.04-50.88-61.57-4.36-3.51-10.33-10.45-16.53-9.29-4.75,.88-7.58,5.51-6.65,10.12,1.3,6.43,4.94,13.17,8.04,18.9,3.3,6.08,7.18,11.8,11.51,17.19,8.79,10.93,19.71,20.26,31.98,27.1,5.3,2.96,12.24,7.3,18.53,6.67,.23-.02,.45-.06,.68-.1,1.74,6.07,2.71,12.27,2.94,18.51-7.74,3.3-16.65,3.35-25.89,.07Zm20.97-24.57c-6.73,.12-15.28-6.14-20.75-9.74-6.19-4.08-11.9-8.85-17.09-14.15-10.35-10.58-18.58-23.34-23.73-37.23-.55-1.49-2.1-4.51-.85-6.08,1.77-2.22,4.61,.59,6.09,1.73,3.57,2.75,7.09,5.56,10.55,8.44,6.21,5.17,12.24,10.57,17.91,16.33,11.22,11.38,21.38,24.36,27.34,39.31,.19,.47,.35,.94,.53,1.41Zm107.25-143.73c21.24-22.01,49.6-39.54,80.61-42.29,7.49-.67,15.24-.62,22.66,.68,5.35,.94,12.83,3.13,15.21,8.63,3.44,7.93-6.08,16.36-10.79,21.75-5.03,5.76-10.34,11.27-15.9,16.51-22.66,21.34-49.62,38.22-78.76,49.16-6.9,2.59-13.92,4.85-21.04,6.78-6.61,1.79-15.14,3.01-18.33-2.76,14.12,3.71,28.33-8.09,39.91-15.32,8.79-5.48,17.58-10.96,26.37-16.45,6.47-4.04,13.31-7.86,17.74-14.3,3.43-4.99,4.55-11.23,.46-16.17-4.81-5.82-11.78-5.16-18.41-3.66-15.61,3.52-30.57,10.3-43.57,19.62-6.09,4.37-12.59,9.49-17.97,15.45,6.44-9.83,13.61-19.14,21.8-27.63Zm-27.47,51.68c1.53-15.68,17.26-28.01,29.34-36.19,6.98-4.73,14.48-8.76,22.32-11.86,6.87-2.72,15.79-6.47,23.25-6.32,5.4,.11,8.85,4.63,6.51,9.66-1.63,3.5-4.79,6.4-7.83,8.67-7.41,5.52-15.83,10-23.66,14.89-8.22,5.13-16.42,10.29-24.67,15.39-7.71,4.77-16.44,9.85-25.26,5.77Zm-4.75-6.63c-.24,.81-.45,1.64-.63,2.47-.15-.17-.29-.34-.44-.51,.35-.66,.71-1.31,1.07-1.97Zm-30.73-143.37c-20.47-14.44-38.63-33.16-54.34-52.57-15.78-19.49-29.2-40.91-39.99-63.55-10.84-22.73-19.23-47-24.01-71.75-2.16-11.16-3.16-27.57,9.73-32.67,11.91-4.71,27.05,1.86,37.33,7.78,22.95,13.23,39.72,35.65,55.17,56.59,16.71,22.65,31.85,46.44,45.3,71.16,6.72,12.36,13.03,24.95,18.88,37.74,2.66,5.81,5.69,11.76,7.94,17.7-.61,6.34-1.61,13.49-3.88,20.01-2.66,.72-5.7,.24-8.83-.98-.72-6.54-1.78-13.04-3.26-19.48-5.37-23.44-16.24-45.85-32.17-63.95-4.09-4.65-8.54-8.99-13.33-12.93-4.26-3.51-9.2-7.87-14.36-9.99-3.85-1.58-8.26-.81-11.22,2.2-3.59,3.66-3.01,8.16-1.77,12.71,6.59,24.13,18.87,46.63,35.38,65.4,8.25,9.38,17.61,17.79,27.81,25,2.1,1.48,4.56,3.06,7.2,4.42,.48,4.98,.75,9.98,.85,14.99-12.96,6.8-27.42-.09-38.42-7.85Zm36.8-13.9c-6.75-4.25-13.13-10.3-16.51-13.31-9.33-8.34-17.68-17.78-24.79-28.09-7.1-10.3-13.06-21.42-17.55-33.1-2.06-5.36-4.31-11.05-5.39-16.7-.56-2.89-.2-6.72,3.72-6.65,3.17,.06,7.32,3.99,9.76,5.78,19.96,14.67,34.44,36.31,42.86,59.42,3.86,10.6,6.41,21.55,7.9,32.64Zm7.54,17.41c-.1-2.68-.27-5.36-.48-8.03,1.87,.57,3.76,.94,5.61,1.03-1.39,2.58-3.08,4.96-5.14,7Zm47.2-143.1c-.07-.03-.15-.07-.22-.1,1.02-1.44,2.07-2.86,3.13-4.27-1.03,1.43-2.01,2.89-2.91,4.37Zm129.54-36.3c-5.01,12.58-15.68,21.7-26.47,29.3-22.89,16.12-50.29,25.84-78.27,27.37-8.71,.48-25.36-.93-21.75-12.95,13.83,3.74,28.01,1.12,40.78-5.29,6.71-3.37,12.9-7.67,18.82-12.26,5.42-4.21,10.95-8.47,14.72-14.3,2.84-4.39,4.77-9.99,2.66-15.06-2.11-5.07-7.64-8.06-13-7.98-6.09,.09-12.49,3.54-17.93,6.08-6.59,3.07-12.9,6.75-18.83,10.95-7.76,5.51-15.67,12.14-22.26,19.66,10.66-12.67,23.25-23.73,37.27-32.53,10.68-6.7,22.14-12.1,34.18-15.86,11.32-3.53,24.53-7.08,36.43-4.76,13.97,2.73,18.58,15.2,13.63,27.63Zm-123.66,38.24c6.74-10.44,16.94-19.65,26.77-26.72,5.46-3.93,11.25-7.41,17.29-10.38,5.6-2.75,15.76-8.9,21.88-5.03,13.56,8.58-16.88,28.66-22.61,32.34-13.11,8.4-28.07,13.38-43.33,9.8Z"/></g></g></svg>