<?xml version="1.0" encoding="UTF-8"?><svg xmlns="http://www.w3.org/2000/svg" xmlns:xlink="http://www.w3.org/1999/xlink" height="1338.3" preserveAspectRatio="xMidYMid meet" version="1.0" viewBox="-1.0 -5.4 505.8 1338.3" width="505.8" zoomAndPan="magnify"><g><g id="change1_1"><path d="M475.35,746.49c-4.72,1.22-9.57,4.11-13.98,6.17-36.09,16.86-69.32,39.69-98.47,66.81-55.08,51.24-95.93,118.17-115.23,190.96-12.93,6.4-27.47,7.93-37.05-6.41-4.29-6.43-6.78-13.9-9.58-21.04-2.78-7.08-5.64-14.13-8.59-21.14,.79-1.09,1.55-2.2,2.28-3.32,9.84-15.13,14.56-32.96,17.96-50.49,3.57-18.41,6.11-36.96,10.79-55.15,4.27-16.58,9.72-32.86,16.14-48.73,.63,.06,1.26,.11,1.91,.13,11.88,.33,21.94-7.23,30.46-14.64,39.14-34.01,74.35-73,105.63-114.3,35.74-47.19,66.09-98.36,90.46-152.31,.87-1.92,.13-3.62-1.79-4.41-19.7-8.06-39.89,6.07-55.76,16.45-16.89,11.05-33.04,23.24-48.34,36.41-30.94,26.63-58.32,57.39-81.3,91.12-11.42,16.76-21.73,34.28-30.83,52.4-6.38,12.72-17.9,30.99-11.75,45.83,1.92,4.62,5.83,7.68,10.43,8.61-4.56,9.18-8.85,18.49-12.8,27.95-3.26-1-6.44-2.93-9.49-6.02-15.56-15.77-15.35-42.98-17.15-63.41-3.02-34.18-5.35-68.58-9.82-102.65,2.55-2.06,4.88-4.41,6.89-6.93,8.18-10.23,11.32-23.27,13.46-35.92,2.16-12.8,4.05-25.59,6.87-38.28,4.73-21.31,11.05-42.23,18.82-62.61,10.11,.32,20.77-2.92,29.87-6.42,24.45-9.4,45.01-26.37,64.06-43.93,44.64-41.15,86.35-85.65,125.06-132.4,13.94-16.83,40.27-41.36,30.35-65.8-8.74-21.53-35.59-25.09-55.13-18.53-13.06,4.38-24.93,11.96-36.35,19.5-10.71,7.07-21.05,14.7-31,22.81-20.05,16.33-38.44,34.69-54.84,54.68-16.34,19.92-30.76,41.41-42.85,64.17-5.84,10.98-11.69,22.35-15.95,34.05-2.54,6.96-2.61,16.06,3.46,20.23-7.69,14.71-14.58,29.85-20.66,45.31-.69-.13-1.38-.26-2.05-.44-14.41-3.8-17.2-22.93-19.57-35.38-2.78-14.6-3.44-29.55-2.7-44.37,2.84-57.07,25.95-110.07,38.28-165.24,1.19-5.34,2.31-10.76,3.32-16.22,19.21,5.09,38.46-9.36,53.78-20.42,19.08-13.77,36.72-29.52,52.53-46.95,15.8-17.42,29.83-36.48,41.73-56.78,5.97-10.19,11.39-20.7,16.24-31.46,4.45-9.87,9.62-20.4,10.9-31.26,1.07-9.11-1.66-18.65-9.94-23.57-7.19-4.28-16.27-3.63-24.03-1.47-19.98,5.58-37.68,21.99-51.8,36.51-35.52,36.53-57.58,85.22-61.28,136.04-.17,2.33,2.66,3.66,4.51,2.59,42.01-24.31,71.91-66.95,80.23-114.79,.39-2.27-2.07-5.09-4.41-3.39-26.76,19.5-45.36,48.4-51.6,80.97-.72,3.77,5.06,5.39,5.79,1.6,5.45-28.46,20.58-54.25,42.8-72.67-9.41,41.16-35.05,77.54-70.83,100.07,3.93-38.93,19.03-76.37,42.83-107.44,12.39-16.18,27.17-30.66,43.77-42.48,11.79-8.4,43.31-24.12,47.89,.28,2.06,10.96-4.48,23.38-8.76,33.14-4.04,9.22-8.52,18.26-13.39,27.08-10.29,18.62-22.36,36.28-36.01,52.59-13.15,15.72-27.73,30.24-43.52,43.31-8.37,6.92-17.08,13.41-26.11,19.46-9.32,6.24-19.93,13.81-31.54,14.34-3.06,.14-5.98-.3-8.76-1.16,6.5-38.43,7.26-79.03-7.82-115.23-7.88-18.92-21.87-42.74-42.16-50.2-20.31-7.47-41.82,6.91-50.21,25.23-10.61,23.18-1.97,50.28,8.83,71.68,11.06,21.92,26.33,41.78,44.56,58.21,8.84,7.96,18.39,15.08,28.46,21.4,1.5,.94,4.1,.12,4.41-1.79,.48-3.02,.85-6.04,1.12-9.07,1.12,.74,2.25,1.46,3.39,2.13,.87,.51,1.74,.96,2.61,1.38-4.67,24.95-11.85,49.58-18.94,73.69-16.26,55.29-34.17,117.09-15.4,174.14,3.44,10.44,9.34,19.33,20.65,21.62-.82,2.16-1.63,4.31-2.41,6.48-8.29,22.96-14.72,46.59-19.15,70.59-3.39,18.39-4.55,46.48-19.2,60.78-2.41-17.22-5.41-34.34-9.36-51.3-.86-5.42-1.89-10.82-2.71-16.07-4.1-26.13-9.39-52.07-15.83-77.72-6.03-24.02-12.86-47.98-21.24-71.29-6.69-18.62-14.75-37.04-26.09-53.34-12.02-17.3-27.6-31.38-47.37-39.11-1-.39-2.19,.1-2.92,.77-17.48,16.11-11.33,42.53-6.87,62.89,6.66,30.41,14.04,60.66,22.11,90.72,7.91,29.47,16.33,58.85,25.78,87.87,7.67,23.54,17.09,47.66,34.73,65.64,7.78,7.93,17.65,15.59,29.29,15.64,5.54,.02,10.84-1.58,15.61-4.23,4.62,35.78,7.1,71.86,10.26,106.36,1.81,19.77,3.04,42.55,16.7,58.36,3.55,4.11,8.01,7.23,13.02,8.92-3.45,8.58-6.64,17.28-9.5,26.08-5.68,17.46-9.91,35.27-13.05,53.35-3.01,17.34-5.49,34.93-11.28,51.62-2.11,6.08-5.41,14.48-9.98,21.89-.03-.07-.06-.15-.09-.22-.41-.95-.84-1.9-1.25-2.85,.58-.54,.94-1.28,.84-2.1-8.41-68.47-38.33-133.31-84.13-184.82-22.64-25.46-49.81-49.33-79.86-65.72-17.61-9.61-24.49,9.19-25.31,23.89-1.09,19.65,7.46,38.68,16.42,55.67,19.74,37.44,42.23,73.6,66.17,108.49,11.89,17.33,24.24,34.34,37.04,51.01,10.4,13.55,21.33,31.27,38.1,37.56,12.46,4.68,22.59-.96,30.4-9.61,1.18,2.84,2.35,5.68,3.5,8.53,5.52,13.65,9.66,31.51,22.24,40.64,9.73,7.07,21.34,6.02,31.78,1.78-.5,2.04-.99,4.09-1.45,6.14-9.77,43.34-9.84,87.31-9.01,131.49,.87,46.57,2.32,94.54-11.72,139.53-3.16,10.13-7.15,19.92-11.93,29.38-11.09-11.44-10.75-28.19-7.72-43.35,3.52-17.62,10.59-34.27,15.1-51.64,10.58-40.69,12.55-83.15,6.3-124.69-.57-3.81-6.35-2.19-5.79,1.59,6.81,45.26,3.35,91.84-10.32,135.53-8.37,26.77-26.04,67.59,1.17,89.52,1.42,1.15,3.73,1.25,4.71-.61,41.16-77.68,20.96-168.43,27.1-252.22,1.59-21.65,5.18-43.1,10.59-64.08,.8-.45,1.59-.91,2.36-1.38,4.25-2.6,8.35-5.52,12.34-8.63-1.26,3.61-2.44,7.24-3.5,10.89-1.82,6.28-2.88,15.08,4.14,18.57,7.75,3.85,18.43-2.14,24.96-6.21,9.25-5.77,17.01-13.62,24.31-21.63,16.93-18.57,33.15-37.85,48.94-57.4,31.23-38.7,60.43-79.03,87.41-120.81,6.98-10.81,13.82-21.72,20.5-32.72,4.97-8.18,10.14-16.34,12.09-25.86,1.37-6.68,1.26-14.41-3.58-19.75-2.12-2.33-4.32-4.04-7.41-3.24ZM247.48,200.84c1.55-43.98-18.59-87.35-54.02-114.17-1.85-1.4-4.55,.51-4.51,2.59,.45,23.42,6.11,46.44,16.58,67.4,8.35,16.73,20.6,34.92,35.89,47.14-.15,2.46-.37,4.91-.67,7.36-21.59-14.22-40.32-32.55-54.78-54.03-15.33-22.79-31.39-53.93-22.78-82.04,3.85-12.57,14.08-23.74,26.83-27.56,14.23-4.26,26.38,3.41,35.64,13.71,17.04,18.96,26.6,43.43,30.39,68.4,3.85,25.37,2.34,50.65-1.89,75.63-2.33-1.25-4.55-2.77-6.68-4.44Zm-5.82-5.13c-2.48-2.4-4.82-4.9-7.02-7.27-8.17-8.83-15.19-18.68-21-29.21-10.79-19.57-17.04-41.29-18.42-63.53,29.22,24.52,46.37,62.03,46.43,100.02Zm21.3,221.71c.39-6.5,4.48-13.16,7.16-19.01,2.62-5.72,5.39-11.37,8.29-16.94,11.82-22.7,25.93-44.24,42.05-64.11,15.85-19.54,33.6-37.54,52.93-53.64,9.74-8.11,19.89-15.71,30.4-22.79,11.43-7.69,23.38-15.64,36.44-20.26,12.34-4.36,25.93-5.23,37.49,1.74,13,7.83,16.09,22.02,9.72,35.48-6.12,12.91-16.61,23.89-25.62,34.81-9.32,11.3-18.82,22.45-28.5,33.45-19.08,21.7-38.83,42.8-59.22,63.27-19.3,19.38-38.83,39.1-60.33,56.07-10.46,8.26-21.7,15.78-33.86,21.31-9.14,4.15-21.16,8.87-32.13,8.96,5.93-14.92,12.64-29.53,20.1-43.75,8.2,1.09,16.9-4.34,22.75-9.43,11.05-9.6,20.03-22.65,29.55-33.75,21.22-24.74,42.43-49.48,63.65-74.22,10.47-12.21,20.93-24.41,31.4-36.62,1.35-1.58,1.06-4.54-1.32-5.01-11.89-2.37-22.05,3.45-31.19,10.53-9.4,7.29-18.38,15.17-27.08,23.28-17.94,16.75-34.46,34.99-49.45,54.41-15.46,20.02-29.24,41.31-41.23,63.56-1.43-1.3-2.23-3.61-2.01-7.34Zm8.19,8.46c4.51-8.29,9.27-16.45,14.29-24.45,15.43-24.61,33.18-47.74,53.01-68.96,9.76-10.44,20.02-20.42,30.75-29.88,9.94-8.77,23.43-23.41,37.82-24.19-19.04,22.2-38.07,44.4-57.11,66.6-19.93,23.24-39.17,47.38-59.94,69.87-3.03,3.28-12.02,9.75-18.81,11.02Zm-86.33,156.59c.36,4.36,.6,11.03-3.31,13.93-41.57-45.73-65.81-105.69-67.86-167.39,37.3,39.07,57.39,87.2,69.27,138.38,.76,5.01,1.49,10.05,1.9,15.08Zm-1.73,44.47c-13.96,2.95-25.86-8.2-34.23-17.96-8.43-9.84-14.69-21.41-19.77-33.28-10.95-25.56-18.09-53.04-25.75-79.72-9.18-31.97-17.56-64.17-25.14-96.55-3.65-15.61-8.03-31.42-10.05-47.35-1.59-12.51-1.25-26.21,7.75-35.75,33.62,13.91,52.61,47.93,65.07,80.4,15.06,39.25,25.57,80.7,33.67,121.95-13.78-36.92-33.72-71.46-62.04-99.28-1.84-1.81-5.13-.5-5.12,2.12,.28,66.64,25.99,131.81,71.23,180.74,.66,.71,1.99,1.15,2.92,.77,3.45-1.39,5.72-3.7,7.17-6.53,1.55,8.83,2.9,17.72,4.12,26.64-2.87,1.72-6.12,3.01-9.83,3.8Zm72.37,142.38c8.47-1.91,15.32-9.51,21.34-15.18,16.07-15.12,31.26-31.16,45.49-48.02,31.79-37.65,58.74-79.23,80.16-123.6,.64-1.32,.5-3.43-1.08-4.1-15.52-6.66-27.44,8.51-35.99,19.33-11.33,14.33-22.61,28.69-33.67,43.23-22.26,29.26-43.68,59.24-62.46,90.88-6.18,10.4-12.06,21-17.58,31.78-.64-.02-1.28-.09-1.91-.23-24.75-5.29,25.82-81.99,32.8-92.54,20.31-30.71,44.34-58.94,71.35-83.95,15.21-14.08,31.35-27.14,48.35-39.01,8.67-6.06,17.52-12.01,26.72-17.24,9.92-5.64,21.18-10.36,32.41-7.36-41.83,91.48-101,174.72-173.94,244.03-10.82,10.29-28.56,30.63-45.38,30.93,.3-.71,.59-1.42,.89-2.13,3.89-9.07,8.07-18,12.49-26.79Zm4.1-7.96c30.66-58.53,71.89-111.35,112.85-162.88,5.26-6.62,13.76-17.36,23.25-15.68-16.75,34.16-36.73,66.7-59.82,96.95-12.09,15.85-25.02,31.06-38.68,45.57-6.66,7.08-13.51,13.99-20.52,20.72-4.4,4.22-10.49,11.61-17.07,15.33Zm-93.55,211.14c-9.4-.57-17.36-7.83-23.44-14.36-7.2-7.75-13.48-16.49-19.88-24.89-24.02-31.49-46.46-64.19-67.2-97.93-10.58-17.21-20.74-34.69-30.42-52.43-9.61-17.6-19.8-37.13-19.03-57.77,.19-4.97,1.01-10.08,2.81-14.75,1.49-3.87,3.46-7.76,8.85-7.13,2.48,.29,5.29,2.38,7.43,3.65,6.87,4.08,13.56,8.48,20.09,13.09,13.93,9.84,27.04,20.83,39.25,32.74,50.43,49.21,85.13,114.3,96.87,183.8-13.07-28.64-27.61-56.62-43.57-83.75-10.3-17.5-20.54-36.02-33.44-51.75-10.01-12.21-25.04-24.23-41.63-18.11-1.46,.54-2.64,2.05-2.1,3.69,21.95,65.71,64.41,123.37,120.51,163.93,1.62,3.67,3.22,7.36,4.78,11.05-5.29,6.66-11.89,11.42-19.87,10.93Zm10.07-33.19c-50-38.64-88.13-91.71-108.73-151.52,18.05-4.02,32.39,16.01,41.1,29.25,11.01,16.72,21.46,33.81,31.34,51.23,13.12,23.13,25.24,46.85,36.29,71.04Zm300.4-159.74c-4.74,9.77-11.16,18.95-16.91,28.15-6.18,9.89-12.49,19.7-18.92,29.43-12.86,19.47-26.2,38.61-40.01,57.41-27.71,37.74-57.13,74.63-88.92,109.04-7.24,7.83-14.97,15.47-24.36,20.71-4.03,2.24-15.96,8.65-18.43,1.66-1.59-4.51,1.36-10.59,2.78-14.86,1.59-4.78,3.28-9.52,5.07-14.22,6.66-5.89,13.03-12.14,19.24-18.18,12.71-12.35,24.75-25.38,36.05-39.03,26.1-31.49,48.26-66.09,65.95-102.96,1.15-2.39-1.46-6.08-4.1-4.1-34.86,26.04-64.87,58.08-88.5,94.62-11.6,17.94-21.59,36.91-29.86,56.61-1.32,3.16-2.62,6.34-3.88,9.54-4.04,3.38-8.14,6.65-12.32,9.78-1.37,1.03-2.81,2.04-4.28,3,13.87-49.05,37.64-95.33,69-135.5,23.21-29.72,50.6-56.29,81.28-78.24,14.91-10.67,30.58-20.26,46.89-28.64,4.01-2.06,8.06-4.04,12.14-5.95,3.54-1.65,10.85-6.69,14.11-3.87,6.51,5.62,.86,19.63-2.03,25.59Zm-194.75,205.06c4.46-10.49,9.41-20.77,14.86-30.78,19.55-35.94,45.2-68.49,75.65-95.82,4.79-4.3,9.7-8.44,14.71-12.46-14.53,28.37-31.72,55.36-51.47,80.4-16.15,20.49-34.08,40.82-53.76,58.66Z"/></g></g></svg>