<svg xmlns="http://www.w3.org/2000/svg" xmlns:xlink="http://www.w3.org/1999/xlink" preserveAspectRatio="xMidYMid meet" version="1.1" viewBox="0.0 0.0 505.3 500.0" zoomAndPan="magnify" style="fill: rgb(0, 0, 0);" original_string_length="5757">
 <defs>
  <clipPath id="__id134_smaz57oce">
   <path d="m206 6h299.32v363h-299.32z"/>
  </clipPath>
  <clipPath id="__id135_smaz57oce">
   <path d="m0 0h358v499.95h-358z"/>
  </clipPath>
 </defs>
 <g id="__id136_smaz57oce">
  <g id="__id137_smaz57oce"><path d="m225.2 175.85c18.3 10.8 37.3 25 55.4 43.5 36.9 38 54.1 78.4 62.2 102.1-10.3-2.7-24.5-7-41-13.9-25.2-10.7-55.7-27.6-85.1-54.5-44.8-40.8-66.5-85.4-76.4-110.1 16.7 3.5 49.3 11.9 84.9 32.9" style="fill: rgb(254, 180, 174);"/></g>
  <g id="__id138_smaz57oce"><path d="m494.3 317.45c1.5-5.2-1.5-10.7-6.7-12.3l-40.3-11.8c-5.2-1.5-10.7 1.5-12.3 6.7-1.5 5.2 1.5 10.7 6.7 12.3l40.3 11.8c0.9 0.3 1.9 0.4 2.8 0.4 4.3 0 8.2-2.8 9.5-7.1zm-79.6-241.1l18.9-49.403c1.9-5.097-0.6-10.801-5.7-12.699-5.1-2-10.8 0.602-12.7 5.699l-18.9 49.403c-1.9 5.097 0.6 10.796 5.7 12.699 1.2 0.398 2.4 0.699 3.5 0.699 3.9 0 7.7-2.398 9.2-6.398zm-220.5-10.301c4.6-2.903 5.9-9.102 3-13.602l-21.3-33.097c-2.9-4.602-9.1-5.903-13.6-3-4.6 2.898-5.9 9.097-3 13.597l21.3 33.102c1.9 2.898 5.1 4.5 8.3 4.5 1.8 0.097 3.6-0.403 5.3-1.5zm59.7 215.9c-1.9 0-3.8-0.5-5.5-1.7-4.5-3-5.7-9.2-2.7-13.7 7.5-11.2 23.5-31 45.6-37.4 26.2-7.5 50.7-0.4 74.4 6.4 6.4 1.8 12.4 3.6 18.5 5 13.3 3.2 27.3 5.7 38.8 2 12.5-4 23.2-14.6 32-24.5 3.6-4.1 9.9-4.4 13.9-0.8 4.1 3.6 4.4 9.9 0.8 13.9-10.6 11.9-23.7 24.8-40.7 30.2-16.1 5.1-33.3 2.2-49.4-1.7-6.5-1.6-13-3.4-19.3-5.3-22-6.3-42.7-12.3-63.5-6.4-11.8 3.4-24.4 14.1-34.7 29.4-1.9 3-5 4.6-8.2 4.6" style="fill: rgb(227, 121, 127);"/></g>
  <g clip-path="url(#__id134_smaz57oce)" id="__id139_smaz57oce">
   <path d="m397 368.15c5.3-1.2 8.7-6.5 7.5-11.8l-5.5-24.3c-1.2-5.3-6.5-8.6-11.8-7.5-5.3 1.2-8.7 6.5-7.5 11.8l5.5 24.3c1 4.6 5.1 7.7 9.6 7.7 0.7 0.1 1.5 0 2.2-0.2zm106-174.8c3.5-4.2 3-10.4-1.2-13.9-6.7-5.7-18-12.9-33.7-15.3-17.9-2.8-32.5 2.3-39.6 5.6-4.9 2.3-7.1 8.2-4.8 13.1s8.2 7.1 13.1 4.8c5.1-2.4 15.5-6 28.3-4 11.1 1.7 19.2 6.9 24 11 1.8 1.6 4.1 2.3 6.3 2.3 2.9 0 5.7-1.2 7.6-3.6zm-286.3 69.6c-3 0-5.9-1.3-7.8-3.8-3.3-4.3-2.5-10.5 1.8-13.8 19.6-15.2 32-32 36.6-50 5.5-21.4-0.4-40.4-6.7-60.5-6.8-21.9-14.6-46.702-6.8-75.998 4.7-17.903 14.3-34.5 28.4-49.301 3.8-3.9026 10-4.1018 13.9-0.301 3.9 3.801 4.1 10 0.3 13.898-11.8 12.403-19.8 26.102-23.6 40.704-6.3 23.796 0 43.898 6.6 65.098 6.8 21.9 13.9 44.5 7 71.3-5.8 22.4-20.5 42.8-43.7 60.7-1.8 1.4-3.9 2-6 2" style="fill: rgb(34, 39, 49);"/>
  </g>
  <g clip-path="url(#__id135_smaz57oce)" id="__id140_smaz57oce">
   <path d="m149.9 114.35c1.2-5.3-2.1-10.6-7.4-11.8l-30.8-6.999c-5.3-1.199-10.6 2.097-11.802 7.399-1.199 5.3 2.102 10.6 7.402 11.8l30.8 7c0.7 0.2 1.5 0.2 2.2 0.2 4.5 0 8.6-3.1 9.6-7.6zm66.8 138.8c-12.9-11.7-23.8-23.7-33.1-35.4-7.8-9.9-14.5-19.6-20.1-28.7-11.1-18.1-18.5-34.3-23.2-45.9l-50.902 129.3-12.796 32.5-76.602 195 32.898-17.1 28.102-14.6 141.7-73.8 31-16.1 109.1-56.8c-26.2-6.9-77.4-24.1-126.1-68.4zm108.3-170.4c-3.1 0-6.2-1.5-8.1-4.301-3.1-4.5-2-10.597 2.5-13.699 4.2-2.898 14.3-11.199 17.3-25.801 2.3-11.199-0.8-20.5-2.9-25.097-2.2-5.0004 0-10.801 5-13 5-2.2036 10.8-0.00044 13 4.9996 3 6.6994 7.6 20.5 4.2 37.097-4.4 21.602-19.2 33.801-25.4 38.102-1.7 1.097-3.7 1.699-5.6 1.699" style="fill: rgb(227, 121, 127);"/>
  </g>
  <g id="__id141_smaz57oce"><path d="m216.7 365.75c-9.8 0-17.8 7.9-17.8 17.8 0 4.1 1.4 7.9 3.7 10.9l31-16.1c-2.2-7.3-9-12.6-16.9-12.6zm-127.3-93.3l-12.796 32.5c2.699 1.7 5.796 2.6 9.199 2.6 9.801 0 17.799-7.9 17.799-17.8 0-8.5-6.1-15.7-14.202-17.3zm179.9 37.2c-9.8 0-17.8 8-17.8 17.8s7.9 17.8 17.8 17.8c9.8 0 17.8-7.9 17.8-17.8 0-9.8-7.9-17.8-17.8-17.8zm-144.4 38.4c-9.8 0-17.8 7.9-17.8 17.8 0 9.8 7.9 17.8 17.8 17.8s17.8-7.9 17.8-17.8-8-17.8-17.8-17.8zm-81.701 102.6c-9.801 0-17.801 7.9-17.801 17.8 0 6 2.903 11.2 7.403 14.5l28.199-14.7c-0.102-9.8-8-17.6-17.801-17.6zm120.3-261.7c-5.8 2.9-9.8 8.9-9.8 15.9 0 9.8 7.9 17.8 17.8 17.8 4.7 0 9.1-1.9 12.2-4.9-7.9-9.9-14.6-19.6-20.2-28.8zm293.8-78.8c-13.3-5.2-40.4-12.502-71.9-3.9-40.5 11.1-61.7 41-68.9 53.4-2.8 4.7-1.2 10.7 3.5 13.5 1.6 0.9 3.3 1.4 5 1.4 3.4 0 6.7-1.8 8.5-4.9 6-10.3 23.6-35.1 57.1-44.3 26-7.2 48.5-1 59.5 3.2 5.1 2 10.8-0.6 12.8-5.6s-0.5-10.8-5.6-12.8" style="fill: rgb(254, 180, 174);"/></g>
  <g id="__id142_smaz57oce"><path d="m395.9 360.85c0.7-0.2 1.1-0.8 0.9-1.5l-6.1-26c-0.2-0.7-0.8-1.1-1.5-0.9s-1.1 0.8-0.9 1.5l6.1 26c0.1 0.6 0.6 1 1.2 1 0.1-0.1 0.2-0.1 0.3-0.1zm-206.1-301.4c0.6-0.398 0.8-1.097 0.4-1.699l-21.6-34.301c-0.4-0.597-1.1-0.699-1.7-0.398-0.6 0.398-0.8 1.097-0.4 1.699l21.6 34.301c0.2 0.398 0.6 0.597 1 0.597 0.3-0.097 0.5-0.097 0.7-0.199zm133.9 104.5c6.3-10.3 24.7-35.4 59.1-46.4 33.3-10.8 62.3-1.9 73.2 2.3 0.6 0.2 1.3-0.1 1.6-0.7s-0.1-1.4-0.7-1.6c-13.8-5.4-42-13-74.8-2.4-35.1 11.3-54 37-60.5 47.5-0.4 0.6-0.2 1.3 0.4 1.7 0.2 0.1 0.4 0.2 0.6 0.2 0.4 0 0.8-0.2 1.1-0.6zm-98.8 96.4c0.4-0.5 0.4-1.3-0.1-1.7-18.6-16.1-35.3-34.4-49.5-54.4-10.5-14.7-19.7-30.5-27.4-46.9-0.3-0.6-1-0.9-1.6-0.6s-0.9 1-0.6 1.6c7.8 16.5 17 32.4 27.6 47.3 14.3 20.2 31.1 38.7 49.9 54.8 0.2 0.2 0.5 0.3 0.8 0.3s0.7-0.1 0.9-0.4zm30.9 78.7c0.6-0.4 0.7-1.2 0.3-1.7-5.3-7.4-3.8-17.8 3.4-23.1 3.5-2.6 8.1-3.7 12.6-2.9 4.6 0.8 8.6 3.4 11.2 7.3 0.4 0.6 1.1 0.7 1.7 0.3s0.7-1.1 0.3-1.7c-3-4.5-7.5-7.4-12.8-8.3-5.1-0.9-10.4 0.3-14.5 3.3-8.2 6.1-10 18-3.9 26.5 0.2 0.3 0.6 0.5 1 0.5 0.2 0 0.5-0.1 0.7-0.2zm-228.9 136.4c0.602-0.2 1-0.9 0.801-1.6-2.398-7.4 0.403-15.5 6.801-19.5 5.801-3.6 13.398-3.2 18.898 1 0.5 0.4 1.301 0.3 1.704-0.2 0.398-0.5 0.296-1.3-0.204-1.7-6.398-4.8-15.097-5.3-21.699-1.1-7.398 4.6-10.597 13.8-7.801 22.4 0.204 0.5 0.704 0.9 1.204 0.9 0-0.2 0.097-0.2 0.296-0.2zm98.002-90.7c-0.7 0-1.2-0.6-1.2-1.2 0-0.7 0.6-1.2 1.2-1.2 9.1 0 16.5-7.4 16.5-16.5s-7.4-16.5-16.5-16.5c-0.7 0-1.2-0.6-1.2-1.2s0.6-1.2 1.2-1.2c10.5 0 19 8.5 19 19 0 10.3-8.5 18.8-19 18.8" style="fill: rgb(34, 39, 49);"/></g>
 </g>
</svg>