<svg class="svg-icon" style="width: 1em; height: 1em;vertical-align: middle;fill: #fff;overflow: hidden;" viewBox="0 0 1024 1024" version="1.1" xmlns="http://www.w3.org/2000/svg"><path d="M896 128H128c-46.933333 0-85.333333 38.4-85.333333 85.333333v128h85.333333V213.333333h768v597.333334h-298.666667v85.333333h298.666667c46.933333 0 85.333333-38.4 85.333333-85.333333V213.333333c0-46.933333-38.4-85.333333-85.333333-85.333333zM42.666667 768v128h128c0-72.533333-55.466667-128-128-128z m0-170.666667v85.333334c119.466667 0 213.333333 93.866667 213.333333 213.333333h85.333333c0-166.4-132.266667-298.666667-298.666666-298.666667z m0-170.666666v85.333333c213.333333 0 384 170.666667 384 384h85.333333c0-260.266667-209.066667-469.333333-469.333333-469.333333z"  /></svg>